<svg xmlns="http://www.w3.org/2000/svg" width="32" height="32" viewBox="0 0 32 32">
  <title>icon_gps-lost</title>
  <g>
    <polygon points="23.418 20.472 17.731 14.785 15.835 16.681 21.522 22.367 15.835 28.054 17.731 29.95 23.418 24.263 29.104 29.95 31 28.054 25.313 22.367 31 16.681 29.104 14.785 23.418 20.472"/>
    <path d="M17.08,5.0269l-.6583-3.7335-3.5.6171L13.58,5.644l-1.75.3086.6583,3.7337,1.7494-.3086.6583,3.7335,3.501-.6174L17.7383,8.76l1.75-.3086L18.83,4.7183Zm1.4209-2.175L29.0016,1l1.3166,7.4672-10.5,1.8516ZM1,5.9374,11.5,4.0859l1.3166,7.4672-10.5,1.8516Z"/>
  </g>
</svg>
