<svg xmlns="http://www.w3.org/2000/svg" width="16" height="16" viewBox="0 0 16 16">
  <title>icon-jumppattern-skip</title>
  <path d="M11.2667,1H4.7333A3.7376,3.7376,0,0,0,1,4.7333v9.3333a.9333.9333,0,0,0,1.8667,0V4.7333A1.8685,1.8685,0,0,1,4.7333,2.8667h6.5333a1.8688,1.8688,0,0,1,1.8667,1.8667v6.5333a1.8691,1.8691,0,0,1-1.8667,1.8667H10.8a1.8691,1.8691,0,0,1-1.8667-1.8667V8.057H10.74a.5248.5248,0,0,0,.3716-.8958L8.3712,4.42a.5249.5249,0,0,0-.7424,0L4.8881,7.1611A.5248.5248,0,0,0,5.26,8.057h1.807v3.21A3.7373,3.7373,0,0,0,10.8,15h.4667A3.737,3.737,0,0,0,15,11.2667V4.7333A3.7373,3.7373,0,0,0,11.2667,1Z"/>
</svg>
