<svg xmlns="http://www.w3.org/2000/svg" width="32" height="32" viewBox="0 0 32 32">
<path d="M27.7851,9.57H22.4282V4.2133A3.1478,3.1478,0,0,0,19.348.9992q-.0669-.0015-.1338,0H4.2149a3.1479,3.1479,0,0,0-3.2142,3.08q-.0013.0669,0,.1339V19.2126a3.148,3.148,0,0,0,3.08,3.2142q.0671.0014.134,0H9.5718v5.3569a3.1478,3.1478,0,0,0,3.08,3.214c.0445.001.0892.001.1337,0H27.7851a3.1479,3.1479,0,0,0,3.2142-3.08q.0013-.0669,0-.1339V12.7843A3.148,3.148,0,0,0,27.919,9.57Q27.8521,9.5689,27.7851,9.57Zm-23.57,9.6424V4.2133H19.2142V9.57H12.7858a3.1479,3.1479,0,0,0-3.2141,3.08q-.0015.0671,0,.134v6.4282Zm23.57,8.5711H12.7859v-5.357h6.4283a3.1479,3.1479,0,0,0,3.2141-3.08q.0015-.067,0-.134V12.7843h5.3569Z"/>
</svg>