<svg xmlns="http://www.w3.org/2000/svg" width="32" height="32" viewBox="0 0 32 32">
  <title>icon_show-on-map-tool</title>
  <g>
    <path d="M16,6.6664A9.3336,9.3336,0,1,0,25.3336,16,9.3332,9.3332,0,0,0,16,6.6664Zm0,16.8A7.4666,7.4666,0,1,1,23.4666,16,7.4664,7.4664,0,0,1,16,23.4666Z" fill="#1a171b"/>
    <g>
      <path d="M6.6664,16.9331H2.9331a.9331.9331,0,1,1,0-1.8662H6.6664a.9331.9331,0,1,1,0,1.8662Z" fill="#1a171b"/>
      <path d="M29.0669,16.9331H25.3336a.9331.9331,0,1,1,0-1.8662h3.7333a.9331.9331,0,1,1,0,1.8662Z" fill="#1a171b"/>
    </g>
    <g>
      <path d="M16,7.6a.9328.9328,0,0,1-.9331-.934V2.9331a.9331.9331,0,1,1,1.8662,0V6.6664A.9328.9328,0,0,1,16,7.6Z" fill="#1a171b"/>
      <path d="M16,30a.9327.9327,0,0,1-.9331-.9331V25.3336a.9331.9331,0,1,1,1.8662,0v3.7333A.9327.9327,0,0,1,16,30Z" fill="#1a171b"/>
    </g>
    <circle cx="16" cy="16" r="4.6664" fill="#1a171b"/>
  </g>
</svg>
