<svg xmlns="http://www.w3.org/2000/svg" width="32" height="32" viewBox="0 0 32 32">
  <title>icon_reference-point</title>
  <path d="M16,1A14.9077,14.9077,0,0,0,1,16,15.1525,15.1525,0,0,0,14.9286,31h2.1429A15.1525,15.1525,0,0,0,31,16,14.9077,14.9077,0,0,0,16,1Zm0,27.8571A12.8571,12.8571,0,1,1,28.8571,16,12.8949,12.8949,0,0,1,16,28.8571Z"/>
  <path d="M22.6429,11.9286a5.2635,5.2635,0,0,1-1.0714,3.2143,6.5252,6.5252,0,0,1-2.7857,1.9286L23.9286,25h-4.5l-3.8571-6.4286c-.2143-.2143-.2143-.4286-.4286-.6429-.2143,0-.4286-.2143-.8571-.2143H13.2143V25H9.3571V6.5714h7.0714A7.9922,7.9922,0,0,1,19,7a4.1434,4.1434,0,0,1,1.9286,1.0714,3.3324,3.3324,0,0,1,1.2857,1.7143A3.524,3.524,0,0,1,22.6429,11.9286Zm-3.8571.4286a2.6193,2.6193,0,0,0-.6429-1.9286,2.67,2.67,0,0,0-2.3571-.8571H13.2143v5.3571h2.5714a3.8493,3.8493,0,0,0,2.3571-.6429C18.7857,13.8571,18.7857,13.2143,18.7857,12.3571Z"/>
</svg>
