<svg xmlns="http://www.w3.org/2000/svg" width="32" height="32" viewBox="0 0 32 32">
  <path d="M26.4126222,5.68914514 L26.3108549,5.58737781 C26.3108549,5.58737781 24.9892548,4.26577774 23.6676547,5.58737781 L17.9810613,11.2753465 L6.81966045,9.31563774 C6.81966045,9.31563774 6.25443919,9.21524565 5.84736987,9.62231497 L5.33853321,10.1311516 C5.33853321,10.1311516 4.42400246,11.0456824 5.60120294,11.5820237 L13.8911147,15.3639178 L10.0789655,19.1774422 L6.02202461,18.1652699 C6.02202461,18.1652699 5.81298901,18.113011 5.66033801,18.265662 L5.31102852,18.6149714 C5.31102852,18.6149714 4.80906804,19.1183072 5.42104726,19.4772433 L9.87268039,22.0929388 C9.87268039,22.0929388 9.87955656,22.0956892 9.88780796,22.1011902 L9.91531265,22.1273196 C9.92081359,22.1383215 9.92493929,22.1479481 9.92493929,22.1479481 L12.4925016,26.5473224 C12.8514377,27.1606768 13.3533982,26.6573411 13.3533982,26.6573411 L13.7027077,26.3080316 C13.8553587,26.1553806 13.8030998,25.946345 13.8030998,25.946345 L12.8046797,21.9402878 L16.6250803,18.1198871 L20.3863459,26.3671667 C20.9226872,27.5443672 21.8385932,26.6298364 21.8385932,26.6298364 L22.3460546,26.1209997 C22.753124,25.7153057 22.6541071,25.1487092 22.6541071,25.1487092 L20.704025,14.0409425 L26.4126222,8.33234529 C26.4126222,8.33234529 27.7342223,7.01074521 26.4126222,5.68914514"/>
</svg>
