<svg xmlns="http://www.w3.org/2000/svg" width="32" height="32" viewBox="0 0 32 32">
  <title>icon_show-on-map</title>
  <g>
    <path d="M16,5.333A10.667,10.667,0,1,0,26.667,16,10.6665,10.6665,0,0,0,16,5.333Zm0,19.2A8.5332,8.5332,0,1,1,24.5332,16,8.533,8.533,0,0,1,16,24.5332Z" fill="#1a171b"/>
    <g>
      <path d="M5.333,17.0664H1.0664a1.0664,1.0664,0,0,1,0-2.1328H5.333a1.0664,1.0664,0,1,1,0,2.1328Z" fill="#1a171b"/>
      <path d="M30.9336,17.0664H26.667a1.0664,1.0664,0,1,1,0-2.1328h4.2666a1.0664,1.0664,0,1,1,0,2.1328Z" fill="#1a171b"/>
    </g>
    <g>
      <path d="M16,6.4A1.0661,1.0661,0,0,1,14.9336,5.333V1.0664a1.0664,1.0664,0,0,1,2.1328,0V5.333A1.0661,1.0661,0,0,1,16,6.4Z" fill="#1a171b"/>
      <path d="M16,32a1.0659,1.0659,0,0,1-1.0664-1.0664V26.667a1.0664,1.0664,0,1,1,2.1328,0v4.2666A1.0659,1.0659,0,0,1,16,32Z" fill="#1a171b"/>
    </g>
    <circle cx="16" cy="16" r="5.333" fill="#1a171b"/>
  </g>
</svg>
