<svg xmlns="http://www.w3.org/2000/svg" width="32" height="32" viewBox="0 0 32 32">
  <title>icon_speed</title>
  <g>
    <path d="M16,7.0968a12.8043,12.8043,0,0,1,6.5816,1.825l2.2575-2.2464A15.9368,15.9368,0,0,0,1.0857,25.6762,1.5487,1.5487,0,1,0,3.981,24.5755,12.8027,12.8027,0,0,1,16,7.0968Z"/>
    <path d="M26.7882,7.6472,13.2087,21.14a3.5552,3.5552,0,0,0-.7217,2.751,3.3641,3.3641,0,0,0,1.3871,2.1805,3.4779,3.4779,0,0,0,4.7087-.8326L18.76,24.97ZM15.8835,24.9442a1.6671,1.6671,0,1,1,1.6681-1.6661A1.667,1.667,0,0,1,15.8835,24.9442Z"/>
    <path d="M28.15,9.6175l-1.4644,3.1587A12.6481,12.6481,0,0,1,28.02,24.5734a1.5485,1.5485,0,0,0,2.8932,1.1049A15.7389,15.7389,0,0,0,28.15,9.6175Z"/>
  </g>
</svg>
