<svg xmlns="http://www.w3.org/2000/svg" width="16" height="16" viewBox="0 0 16 16">
  <title>icon-refresh</title>
  <path d="M13.9864,7.4154a.58.58,0,0,0-1.1581.0774,5.0581,5.0581,0,0,1-1.4368,3.8746,4.8048,4.8048,0,0,1-3.4527,1.4709h0a4.5974,4.5974,0,0,1-3.1942-1.282l.9112-.9112a.3439.3439,0,0,0-.2431-.5868H2.875a.3439.3439,0,0,0-.3437.3437V12.94a.3436.3436,0,0,0,.5868.2431l.8059-.8059A5.7461,5.7461,0,0,0,7.9387,14H7.94a5.9622,5.9622,0,0,0,4.2818-1.8185,6.2241,6.2241,0,0,0,1.7651-4.7657M2.64,9.1633a.5808.5808,0,0,0,.5357-.6224A5.0536,5.0536,0,0,1,4.6074,4.6314a4.81,4.81,0,0,1,3.4543-1.47,4.6007,4.6007,0,0,1,3.2615,1.3439l-.8918.8911a.3446.3446,0,0,0,.2431.5884h2.5377a.3446.3446,0,0,0,.3437-.3445V3.1024a.3439.3439,0,0,0-.5868-.2431l-.8252.8252A5.7505,5.7505,0,0,0,8.0617,2,5.965,5.965,0,0,0,3.7783,3.8177a6.2161,6.2161,0,0,0-1.7612,4.81.5812.5812,0,0,0,.5783.5373c.0147,0,.0294-.0008.0441-.0015"/>
</svg>
