<svg xmlns="http://www.w3.org/2000/svg" width="32" height="32" viewBox="0 0 32 32">
  <path d="M21.1619034,20.9778056 C19.2445331,20.9778056 17.5047415,20.2002988 16.2412929,18.9440493 C16.5592548,18.6932793 16.832822,18.3933152 17.0463964,18.0489565 C18.0962706,19.1144288 19.5516963,19.7779494 21.1619034,19.7779494 C21.4930637,19.7779494 21.7618315,20.0467172 21.7618315,20.3778775 C21.7618315,20.7090378 21.4930637,20.9778056 21.1619034,20.9778056 L21.1619034,20.9778056 Z M14.1139477,18.4965029 C12.8696968,18.4965029 11.8570181,17.4838242 11.8570181,16.2395733 C11.8570181,14.9953223 12.8696968,13.9826437 14.1139477,13.9826437 C15.3593985,13.9826437 16.3720772,14.9953223 16.3720772,16.2395733 C16.3720772,17.4838242 15.3593985,18.4965029 14.1139477,18.4965029 L14.1139477,18.4965029 Z M13.1540627,7.28024662 L15.0738327,7.28024662 L15.0738327,12.9351691 C14.7678694,12.8451799 14.4499075,12.7827874 14.1139477,12.7827874 C13.7791878,12.7827874 13.4612259,12.8451799 13.1540627,12.9351691 L13.1540627,7.28024662 Z M24.7422744,16.2107767 L22.4517488,13.5123 C21.8758178,10.5294574 19.6008904,8.15974126 16.6732411,7.43502808 L16.6732411,7.19985625 C16.6732411,7.19985625 16.6732411,6 15.4733849,6 L12.7545106,6 C12.7545106,6 11.5546543,6 11.5546543,7.19985625 L11.5546543,7.91257087 C8.86937604,9.14482324 7,11.8504991 7,14.997722 C7,17.2078573 7.92388931,19.1984188 9.39971251,20.6178487 L9.39971251,24.1598244 C9.39971251,25.1965002 10.4363883,25.1965002 10.4363883,25.1965002 L17.9606869,25.1965002 C18.9973627,25.1965002 18.9973627,24.1598244 18.9973627,24.1598244 L18.9973627,22.159664 L21.5602556,22.159664 C22.5969314,22.159664 22.5969314,21.1229882 22.5969314,21.1229882 L22.5969314,17.168262 L24.319925,17.143065 C25.5197813,17.126267 24.7422744,16.2107767 24.7422744,16.2107767 L24.7422744,16.2107767 Z"/>
</svg>
