<svg xmlns="http://www.w3.org/2000/svg" width="32" height="32" viewBox="0 0 32 32">
  <path transform="translate(8,8)" d="M9.33220508,7.99973077 L14.7245663,2.60865385 C15.0918112,2.24034615 15.0918112,1.64373077 14.7245663,1.27542308 C14.3562445,0.908192308 13.7585292,0.908192308 13.3912843,1.27542308 L8,6.66757692 L2.60871572,1.27542308 C2.24039386,0.908192308 1.64267856,0.908192308 1.27543367,1.27542308 C0.908188776,1.64373077 0.908188776,2.24034615 1.27543367,2.60865385 L6.66671795,7.99973077 L1.27543367,13.3908077 C0.908188776,13.7591154 0.908188776,14.3557308 1.27543367,14.7240385 C1.64267856,15.0912692 2.24039386,15.0912692 2.60871572,14.7240385 L8,9.33188462 L13.3912843,14.7240385 C13.5743682,14.9081923 13.8166853,14.9997308 14.0579253,14.9997308 C14.2980884,14.9997308 14.5404054,14.9081923 14.7245663,14.7240385 C15.0918112,14.3557308 15.0918112,13.7591154 14.7245663,13.3908077 L9.33220508,7.99973077 Z"/>
</svg>
