<svg xmlns="http://www.w3.org/2000/svg" width="32" height="32" viewBox="0 0 32 32">
  <title>icon_plan</title>
  <path d="M22.6576,7.9186c0-1.41-.8678-1.9525-2.278-2.6034-1.1932-.5424-2.4949-1.1932-2.4949-2.9288C17.8847.1085,16.3661,0,15.9322,0,14.9559,0,13.98.6508,13.98,2.3864c0,1.8441-1.3017,2.3864-2.4949,3.0373-1.41.6508-2.278,1.1932-2.278,2.6034H22.6576Z"/>
  <path d="M24.8271,3.9051H22.1153a4.3549,4.3549,0,0,1,2.6034,4.0136V9.8712H7.3627V7.9186A4.3549,4.3549,0,0,1,9.9661,3.9051H7.2542S4,3.9051,4,6.9424v22.02A3.0466,3.0466,0,0,0,7.2542,32H24.7186s3.2542,0,3.2542-3.0373V6.9424A2.8454,2.8454,0,0,0,24.8271,3.9051ZM8.0136,28.2034a1.3017,1.3017,0,1,1,1.3017-1.3017A1.2533,1.2533,0,0,1,8.0136,28.2034Zm0-6.0746a1.3017,1.3017,0,1,1,1.3017-1.3017A1.2533,1.2533,0,0,1,8.0136,22.1288Zm0-5.9661A1.3017,1.3017,0,1,1,9.3153,14.861,1.2533,1.2533,0,0,1,8.0136,16.1627ZM24.61,28.2034H11.0508V25.7085H24.61Zm0-6.0746H11.0508V19.6339H24.61Zm0-5.9661H11.0508V13.6678H24.61Z"/>
</svg>
