<svg xmlns="http://www.w3.org/2000/svg" width="32" height="32" viewBox="0 0 32 32">
  <g fill="#252525">
    <g transform="translate(3 3)">
      <path d="M1,1 L25,1 L25,25 L1,25 L1,1 Z M3,3 L3,23 L23,23 L23,3 L3,3 Z"/>
      <circle cx="23.5" cy="2.5" r="2.5"/>
      <circle cx="2.5" cy="2.5" r="2.5"/>
      <circle cx="2.5" cy="23.5" r="2.5"/>
      <circle cx="23.5" cy="23.5" r="2.5"/>
    </g>
    <path d="M16,25 C16,25 10,16.7962802 10,13.6666667 C10,10.5370531 12.6862915,8 16,8 C19.3137085,8 22,10.5370531 22,13.6666667 C22,16.7962802 16,25 16,25 Z M16,17.7142857 C17.9882251,17.7142857 19.6,16.083323 19.6,14.0714286 C19.6,12.0595341 17.9882251,10.4285714 16,10.4285714 C14.0117749,10.4285714 12.4,12.0595341 12.4,14.0714286 C12.4,16.083323 14.0117749,17.7142857 16,17.7142857 Z"/>
  </g>
</svg>
