<svg xmlns="http://www.w3.org/2000/svg" width="16" height="16" viewBox="0 0 16 16">
  <path fill="#1C1B19" fill-rule="evenodd"
        d="M1.86669778,6.4 C1.86669778,3.89973333 3.89979833,1.86666667 6.40010667,1.86666667 C8.90041501,1.86666667 10.9335156,3.89973333 10.9335156,6.4 C10.9335156,8.90026667 8.90041501,10.9333333 6.40010667,10.9333333 C3.89979833,10.9333333 1.86669778,8.90026667 1.86669778,6.4 M15.7271955,14.4064 L11.5308588,10.2101333 C12.3244721,9.14346667 12.8002133,7.82826667 12.8002133,6.4 C12.8002133,2.8704 9.9297655,0 6.40010667,0 C2.87044784,0 0,2.8704 0,6.4 C0,9.9296 2.87044784,12.8 6.40010667,12.8 C7.82839714,12.8 9.14361906,12.3242667 10.2103035,11.5306667 L14.4066401,15.7269333 C14.5890432,15.9093333 14.8279805,16 15.0669178,16 C15.3058551,16 15.5447924,15.9093333 15.7271955,15.7269333 C16.0909348,15.3621333 16.0909348,14.7712 15.7271955,14.4064"/>
</svg>
