<svg xmlns="http://www.w3.org/2000/svg" width="32" height="32" viewBox="0 0 32 32">
  <title>icon_scanpattern-side</title>
  <path d="M17.0059,22.2162a2.2828,2.2828,0,0,0,.8691,0L29.9312,19.778A2.1894,2.1894,0,0,0,31.6885,17.63V7.8889a2.192,2.192,0,0,0-.8049-1.6964,2.1613,2.1613,0,0,0-1.8218-.4518L17.44,8.0879,9.9019,6.5656V1.2339A1.2326,1.2326,0,0,0,7.7976.3612L1.3611,6.7979a1.2326,1.2326,0,0,0,0,1.7431l0,0L7.798,14.9781a1.2326,1.2326,0,0,0,2.1044-.8726V11.0366l7.1048,1.4349a2.1892,2.1892,0,0,0,.8669,0l9.43-1.9036v5.2692L17.44,17.8319l-11.6217-2.35A2.192,2.192,0,0,0,3.1921,17.63V27.373A2.1942,2.1942,0,0,0,4.95,29.5212l12.0562,2.436a2.2267,2.2267,0,0,0,.8691,0l12.0562-2.436a2.1927,2.1927,0,0,0-.8691-4.2984L17.44,27.5722,7.5762,25.5786v-5.27Z"/>
</svg>
