<svg xmlns="http://www.w3.org/2000/svg" width="32" height="32" viewBox="0 0 32 32">
  <title>icon_auto-recompute</title>
  <path d="M17.7734,19.2607H13.0679L12.02,23.001H8.9995L14.0376,7.999h2.9233L22,23.001H18.84Zm-4.0688-2.2832H17.123l-1.7417-6.0439Z"/>
  <path d="M15.998.001a1.5486,1.5486,0,0,0,0,3.0971,12.9287,12.9287,0,1,1-9.3422,4.02l2.39,2.3891a.9183.9183,0,0,0,1.5674-.6484v-6.78a.9185.9185,0,0,0-.919-.9189h-6.78a.9194.9194,0,0,0-.6485,1.57L4.4683,4.9321A15.9848,15.9848,0,1,0,15.998.001Z"/>
</svg>
