<svg xmlns="http://www.w3.org/2000/svg" width="32" height="32" viewBox="0 0 32 32">
  <g fill="#252525" transform="translate(7 3)">
    <path d="M9,0 L18,4 L18,21 L9,26 L0,21 L0,4 L9,0 Z M10,9 L10,24 L17,20 L17,6 L10,9 Z M8,9 L1,6 L1,20 L8,24 L8,9 Z"/>
    <polygon points="11 11 13 10 13 13 11 14"/>
    <polygon points="14 10 16 9 16 12 14 13"/>
    <polygon points="11 18 13 17 13 20 11 21"/>
    <polygon points="14 16 16 15 16 18 14 19"/>
    <polygon points="2 10 4 9 4 12 2 13" transform="matrix(-1 0 0 1 6 0)"/>
    <polygon points="5 11 7 10 7 13 5 14" transform="matrix(-1 0 0 1 12 0)"/>
    <polygon points="2 16 4 15 4 18 2 19" transform="matrix(-1 0 0 1 6 0)"/>
    <polygon points="5 18 7 17 7 21 5 22" transform="matrix(-1 0 0 1 12 0)"/>
  </g>
</svg>
