<svg xmlns="http://www.w3.org/2000/svg" viewBox="0 0 32 32" height="32" width="32"><path d="M16,0A16,16,0,1,0,32,16,16,16,0,0,0,16,0ZM28.8646,10.4866l-3.6782,1.5762a10.054,10.054,0,0,0-5.2492-5.2494l1.5762-3.678A14.08,14.08,0,0,1,28.8646,10.4866ZM16,24a8,8,0,1,1,8-8A8,8,0,0,1,16,24ZM10.4866,3.1354l1.5762,3.6782a10.054,10.054,0,0,0-5.2494,5.2492l-3.678-1.5762A14.0788,14.0788,0,0,1,10.4866,3.1354Zm-7.351,18.378,3.678-1.5762a10.0536,10.0536,0,0,0,5.2494,5.2494l-1.5762,3.6782a14.08,14.08,0,0,1-7.3514-7.3514Zm18.3778,7.351-1.5762-3.6778a10.0536,10.0536,0,0,0,5.2494-5.2494l3.6778,1.5762A14.0823,14.0823,0,0,1,21.5134,28.8644Z"/></svg>