<svg xmlns="http://www.w3.org/2000/svg" width="32" height="32" viewBox="0 0 32 32">
  <title>icon_menu-tools</title>
  <path d="M31.2986,5.49l-6.273,6.2929a1.4758,1.4758,0,0,1-2.1356,0L20.3541,9.2385a1.4868,1.4868,0,0,1,0-2.1423L26.6272.8033A8.5048,8.5048,0,0,0,22.89,0a9.2425,9.2425,0,0,0-9.2094,9.2385A10.086,10.086,0,0,0,14.348,12.72L1.001,26.1088a3.4017,3.4017,0,0,0,0,4.82A3.5835,3.5835,0,0,0,3.4035,32a3.3375,3.3375,0,0,0,2.4024-1.0711L19.1529,17.54a8.3384,8.3384,0,0,0,3.6037.8034A9.2425,9.2425,0,0,0,31.966,9.1046,6.7464,6.7464,0,0,0,31.2986,5.49"/>
</svg>
