<svg xmlns="http://www.w3.org/2000/svg" width="16" height="16" viewBox="0 0 16 16">
  <path d="M8,4.39948387 C7.33729032,4.39948387 6.79948387,3.86167742 6.79948387,3.2 C6.79948387,2.53729032 7.33729032,1.99948387 8,1.99948387 C8.66270968,1.99948387 9.19948387,2.53729032 9.19948387,3.2 C9.19948387,3.86167742 8.66270968,4.39948387 8,4.39948387 L8,4.39948387 Z M8.90322581,12.9620645 C8.90322581,13.4606452 8.49858065,13.8652903 8,13.8652903 C7.5003871,13.8652903 7.09677419,13.4606452 7.09677419,12.9620645 L7.09677419,6.63535484 C7.09677419,6.13677419 7.5003871,5.73212903 8,5.73212903 C8.49858065,5.73212903 8.90322581,6.13677419 8.90322581,6.63535484 L8.90322581,12.9620645 Z M8,0 C3.58193548,0 0,3.58090323 0,8 C0,12.4180645 3.58193548,16 8,16 C12.4180645,16 16,12.4180645 16,8 C16,3.58090323 12.4180645,0 8,0 L8,0 Z"/>
</svg>
