<svg xmlns="http://www.w3.org/2000/svg" width="16" height="16" viewBox="0 0 16 16">
  <title>icon_complete</title>
  <g>
    <path d="M14.59,5.6667,13.5084,6.7483a5.6,5.6,0,0,1-4.2364,6.76,5.6,5.6,0,0,1-6.76-4.2364,5.6,5.6,0,0,1,4.2364-6.76A5.4583,5.4583,0,0,1,11.886,3.9541l.9915-.9915a6.9154,6.9154,0,0,0-9.9149.27,6.9134,6.9134,0,0,0,.27,9.9149,6.9134,6.9134,0,0,0,9.9149-.27A7.2117,7.2117,0,0,0,14.59,5.6667"/>
    <path d="M4.5851,6.6582A.8.8,0,0,0,3.5034,7.83l3.335,3.335a.7791.7791,0,0,0,.5408.27h.09a.7791.7791,0,0,0,.5408-.27l6.67-6.58a.7419.7419,0,0,0,.09-1.0816.8291.8291,0,0,0-1.0816-.09l-.09.09L7.4694,9.6326Z"/>
  </g>
</svg>
