<svg xmlns="http://www.w3.org/2000/svg" width="32" height="32" viewBox="0 0 32 32">
  <title>icon_arrow-up</title>
  <path d="M16.2353,32a1.99,1.99,0,0,0,1.9719-2.0023h0V6.83l8.3534,8.4823a1.9529,1.9529,0,0,0,2.7617.0269l.0269-.0269a2.0254,2.0254,0,0,0,0-2.8343L17.6376.5847A1.9513,1.9513,0,0,0,16.2419,0l-.0277.0043L16.1868,0a1.9559,1.9559,0,0,0-1.3961.5847L3.0764,12.4754a2.0279,2.0279,0,0,0,.0046,2.837,1.949,1.949,0,0,0,2.7562.0324l.0324-.0324,8.3959-8.52V29.9977h0A1.9867,1.9867,0,0,0,16.2353,32Z"/>
</svg>
