<svg xmlns="http://www.w3.org/2000/svg" width="24" height="24" viewBox="0 0 24 24">
  <title>icon_tool_settings_dark</title>
  <path d="M19.5485,10.5539h-.6271a7.0329,7.0329,0,0,0-.9986-2.417l.4645-.4648a1.4543,1.4543,0,0,0-2.0562-2.0571l-.4645.4648A7.023,7.023,0,0,0,13.4512,5.08V4.4525a1.4515,1.4515,0,1,0-2.9031,0V5.08a7.023,7.023,0,0,0-2.4154.9993l-.4874-.4528A1.4517,1.4517,0,0,0,5.6248,7.6484l.4645.4648a7.0329,7.0329,0,0,0-1.01,2.4407H4.4515a1.4525,1.4525,0,0,0,0,2.905h.6271a6.9747,6.9747,0,0,0,.9986,2.417l-.4645.4648a1.4518,1.4518,0,1,0,2.0326,2.0449l.4645-.4648a7.023,7.023,0,0,0,2.4154.9993v.6275a1.4515,1.4515,0,1,0,2.9031,0V18.92a6.9649,6.9649,0,0,0,2.4154-.9993l.4645.4648a1.4539,1.4539,0,0,0,2.0555-2.0568l-.4645-.4648a6.9747,6.9747,0,0,0,1.0219-2.4058h.6274a1.4525,1.4525,0,0,0,0-2.905h0ZM12,15.8639a3.8579,3.8579,0,1,1,3.8553-3.8579h0A3.8566,3.8566,0,0,1,12,15.8639Z"/>
</svg>
