<svg xmlns="http://www.w3.org/2000/svg" width="32" height="32" viewBox="0 0 32 32">
  <title>icon_lens</title>
  <path d="M29.86,8.03A15.9853,15.9853,0,0,0,18.2285.1729L13.5146,8.03Z"/>
  <path d="M2,24a16.25,16.25,0,0,0,11.6777,8.0117L18,24Z"/>
  <path d="M29.9639,24.0254A16.0066,16.0066,0,0,0,30.7432,10H21.58Z"/>
  <path d="M2.0225,7.9541A16.0469,16.0469,0,0,0,1.2627,22h9.1631Z"/>
  <path d="M16.124.0283C11.3057-.2578,6.47,2.2949,3.1494,6.0742l4.58,7.7022Z"/>
  <path d="M16.1582,32a15.9827,15.9827,0,0,0,12.4375-6.5088L23.917,17.6133Z"/>
</svg>
