<svg xmlns="http://www.w3.org/2000/svg" width="16" height="16" viewBox="0 0 16 16">
  <g >
    <path d="M10.5503613,12.0864486 C10.2117581,12.0864486 9.9375,11.8429907 9.9375,11.5434579 C9.9375,11.2429907 10.2117581,11 10.5503613,11 C10.8889645,11 11.16375,11.2429907 11.16375,11.5434579 C11.16375,11.8429907 10.8889645,12.0864486 10.5503613,12.0864486 L10.5503613,12.0864486 Z M9.9375,7.38037383 C9.9375,7.1546729 10.1895,6.97149533 10.5,6.97149533 C10.8105,6.97149533 11.0625,7.1546729 11.0625,7.38037383 L11.0625,10.1257009 C11.0625,10.3518692 10.8105,10.5345794 10.5,10.5345794 C10.1895,10.5345794 9.9375,10.3518692 9.9375,10.1257009 L9.9375,7.38037383 Z M14.7438932,10.8755674 L11.7745123,5.82456609 C11.5412679,5.42616822 11.0764611,5 10.4720441,5 C10.1171313,5 9.61083391,5.14312417 9.21106643,5.82403204 L6.24056418,10.8761015 C6.1609471,11.012283 5.7824856,11.7241656 6.17552487,12.3618158 C6.32130264,12.6 6.6941573,13 7.54807857,13 L13.4369395,13 C13.6006591,13 14.4366385,12.9674232 14.8313598,12.3276368 C14.9771376,12.0894526 15.1604812,11.5831776 14.7438932,10.8755674 L14.7438932,10.8755674 Z"/>
    <path d="M13,3.5 C13,3.5 13,2 11.5,2 L10,2 L10,0.839 C10,0.839 10,0 9.16,0 L6.839,0 C6.839,0 6,0 6,0.839 L6,2 L4.5,2 C4.5,2 3,2 3,3.5 L3,14.5 C3,14.5 3,16 4.5,16 L11.5,16 C11.5,16 13,16 13,14.5 L13,13.8564065 L11.5,13.8564065 L11.5,14.5 L4.5,14.5 L4.5,3.5 L11.5,3.5 L11.5,4 L13,5 L13,3.5 Z"/>
  </g>
</svg>
