<svg xmlns="http://www.w3.org/2000/svg" width="32" height="32" viewBox="0 0 32 32">
  <title>icon_sidelap</title>
  <path d="M22.3333,28V3.9688A3.7966,3.7966,0,0,0,20.1619.4157,1.9529,1.9529,0,0,0,19,0H4.95A3.7876,3.7876,0,0,0,1,4V28.0469A3.8242,3.8242,0,0,0,5,32l13.3853-.0013A3.788,3.788,0,0,0,22.3333,28ZM5,27.9832v-.01L5.0171,4l13.3165.0168L18.3165,28Z"/>
  <g>
    <path d="M11.6021,6.1277a1.7021,1.7021,0,0,0,1.7021-1.7021V3.4043h1.0213a1.7021,1.7021,0,1,0,0-3.4043H11.6021A1.7021,1.7021,0,0,0,9.9,1.7021V4.4255A1.7021,1.7021,0,0,0,11.6021,6.1277Z"/>
    <path d="M26.5809,3.4043h1.0213V4.4255a1.7021,1.7021,0,0,0,3.4043,0V1.7021A1.7021,1.7021,0,0,0,29.3043,0H26.5809a1.7021,1.7021,0,1,0,0,3.4043Z"/>
    <path d="M29.3043,25.8723a1.7021,1.7021,0,0,0-1.7021,1.7021v1.0213H26.5809a1.7021,1.7021,0,0,0,0,3.4043h2.7234a1.7021,1.7021,0,0,0,1.7021-1.7021V27.5745A1.7021,1.7021,0,0,0,29.3043,25.8723Z"/>
    <path d="M14.3255,28.5957H13.3043V27.5745a1.7021,1.7021,0,0,0-3.4043,0v2.7234A1.7021,1.7021,0,0,0,11.6021,32h2.7234a1.7021,1.7021,0,0,0,0-3.4043Z"/>
    <path d="M29.3043,8.17a1.7021,1.7021,0,0,0-1.7021,1.7021v.6809a1.7021,1.7021,0,0,0,3.4043,0V9.8723A1.7019,1.7019,0,0,0,29.3043,8.17Z"/>
    <path d="M29.3043,14.2979A1.7021,1.7021,0,0,0,27.6021,16v.6809a1.7021,1.7021,0,1,0,3.4043,0V16A1.7019,1.7019,0,0,0,29.3043,14.2979Z"/>
    <path d="M11.6021,8.17A1.7021,1.7021,0,0,0,9.9,9.8723v.6809a1.7021,1.7021,0,0,0,3.4043,0V9.8723A1.7019,1.7019,0,0,0,11.6021,8.17Z"/>
    <path d="M11.6021,14.2979A1.7021,1.7021,0,0,0,9.9,16v.6809a1.7021,1.7021,0,1,0,3.4043,0V16A1.7019,1.7019,0,0,0,11.6021,14.2979Z"/>
    <path d="M29.3043,20.0851a1.7021,1.7021,0,0,0-1.7021,1.7021v.6809a1.7021,1.7021,0,0,0,3.4043,0v-.6809A1.7019,1.7019,0,0,0,29.3043,20.0851Z"/>
    <path d="M11.6021,20.0851A1.7021,1.7021,0,0,0,9.9,21.7872v.6809a1.7021,1.7021,0,0,0,3.4043,0v-.6809A1.7019,1.7019,0,0,0,11.6021,20.0851Z"/>
  </g>
</svg>
