<svg xmlns="http://www.w3.org/2000/svg" width="32" height="32" viewBox="0 0 32 32">
  <title>icon_idl</title>
  <path d="M29.8757,10.2459,23.8673.3993A.824.824,0,0,0,22.7365.1181l-.0132.0081a.85.85,0,0,0-.2692,1.1606l5.6183,9.2073-3.224,2.0253L22.6449,8.647h-5.79a.7428.7428,0,0,1,.0182.16v2.631a.7522.7522,0,0,1-.75.75h-.245a.7522.7522,0,0,1-.75-.75V8.807a.7428.7428,0,0,1,.0182-.16h-5.79L7.1519,12.5194l-3.224-2.0253L9.5463,1.2868A.85.85,0,0,0,9.2771.1262a.824.824,0,0,0-1.1359.26L8.1331.3992,2.1247,10.2459a.8506.8506,0,0,0-.1024.6369c.005.0211.0106.0419.0168.0623a.8537.8537,0,0,0,.384.5875L6.3205,13.98l-3.61,6.3431L9.3555,32H22.6448L29.29,20.3235,25.68,13.98l3.8975-2.448a.8537.8537,0,0,0,.384-.5876c.0062-.02.0119-.0411.0168-.0623A.8506.8506,0,0,0,29.8757,10.2459Z"/>
</svg>
