<svg xmlns="http://www.w3.org/2000/svg" width="32" height="32" viewBox="0 0 32 32">
<path d="M27.2942,2.0019H4.6542A2.5573,2.5573,0,0,0,2.0019,4.4607q-.0047.12.0021.24l.004,1.6111A5.598,5.598,0,0,0,3.1973,9.19l9.9989,11.387.002,6.6806a2.7979,2.7979,0,0,0,5.5952-.0449l.002-6.6339L28.9461,9.0047a5.2371,5.2371,0,0,0,1.0415-2.816V4.8745a2.62,2.62,0,0,0-2.6934-2.8726ZM26.6194,7.12,15.9966,19.2259,5.52,7.3A2.9062,2.9062,0,0,1,5,6.1947l.002-1.1933,21.99.002.002,1.1112A2.192,2.192,0,0,1,26.6192,7.12Z"/>
</svg>