<svg xmlns="http://www.w3.org/2000/svg" width="32" height="32" viewBox="0 0 32 32">
  <title>icon_scanpattern-updown</title>
  <path d="M31.66,8.4031,25.5973,2.34a1.1612,1.1612,0,0,0-1.6421,0h0L17.8921,8.4031a1.161,1.161,0,0,0,.8219,1.9821h3.9974v12.45L15.4851,25.026V10.6036a2.0647,2.0647,0,0,0-1.4659-1.9759L2.6634,5.1859A2.0647,2.0647,0,0,0,0,7.1618v17.205a2.0647,2.0647,0,0,0,4.1294,0V9.9452l7.2264,2.19V27.8086A2.0665,2.0665,0,0,0,13.42,29.8732a2.0328,2.0328,0,0,0,.5988-.0888l11.3557-3.4418a2.0647,2.0647,0,0,0,1.4659-1.9759V10.3848H30.838A1.161,1.161,0,0,0,31.66,8.4031Z"/>
</svg>
