<svg xmlns="http://www.w3.org/2000/svg" width="32" height="32" viewBox="0 0 32 32">
  <title>icon_plan_tool-windmill</title>
  <path d="M17.2094,18.1393H15.2127L14.8079,32h2.9289"/>
  <circle cx="16.2723" cy="15.3274" r="2.0892"/>
  <path d="M16.2723,12.1931a.9367.9367,0,0,1-.9372-.9373V2.9373a.9372.9372,0,1,1,1.8743,0v8.3185A.9367.9367,0,0,1,16.2723,12.1931Z"/>
  <path d="M27.6784,20.8547a.9394.9394,0,0,1-.5781-.06l-7.5987-3.38a.9381.9381,0,0,1,.7633-1.7139l7.5987,3.38a.9375.9375,0,0,1-.1852,1.7734Z"/>
  <path d="M4.9383,21.264a.9367.9367,0,0,1-.3789-1.794l7.61-3.3574a.9373.9373,0,0,1,.756,1.7153l-7.61,3.3556A.92.92,0,0,1,4.9383,21.264Z"/>
</svg>
