<svg xmlns="http://www.w3.org/2000/svg" width="32" height="32" viewBox="0 0 32 32">
  <title>icon_elevation_V02</title>
  <g>
    <path d="M20.0576,1a.9972.9972,0,0,1,.9951-1h9.95a1,1,0,0,1,0,2h-9.95A.9967.9967,0,0,1,20.0576,1Z"/>
    <path d="M31.0342,22H28.0195V10h3.0147a.8555.8555,0,0,0,.6826-1.4726L26.71,2.2524a1.0434,1.0434,0,0,0-1.3614,0L20.3379,8.5308A.8542.8542,0,0,0,21.02,10h3.0186V22H21.02a.8536.8536,0,0,0-.6826,1.4678l5.0107,6.2773a1.0431,1.0431,0,0,0,1.3614,0L31.7168,23.47A.8539.8539,0,0,0,31.0342,22Z"/>
    <path d="M31.001,31.9971H1.1455a1,1,0,0,1,0-2H31.001a1,1,0,0,1,0,2Z"/>
    <path d="M20.5635,30.7,11.2549.6274a1.0343,1.0343,0,0,0-1.9014,0L.0454,30.7a.9957.9957,0,1,0,1.9009.5937L7.084,14.7354l5.7744-2.1436,5.8037,18.7021a.9972.9972,0,0,0,.95.7032.9706.9706,0,0,0,.2959-.045A1.0017,1.0017,0,0,0,20.5635,30.7Z"/>
  </g>
</svg>
