<svg xmlns="http://www.w3.org/2000/svg" width="16" height="16" viewBox="0 0 16 16">
  <g transform="translate(0 1)">
    <path d="M6.82352941,10.6328471 L6.82352941,12.2121412 L2.35294118,11.0356706 L2.35294118,2.32978824 L6.82352941,3.50625882 L6.82352941,7.32649412 C7.04094118,7.18625882 7.28658824,7.08555294 7.55764706,7.04131765 C7.78823529,7.00272941 8.01411765,7.01496471 8.23529412,7.04602353 L8.23529412,3.50625882 L12.7058824,2.32978824 L12.7058824,5.57778824 C12.768,5.61637647 12.8310588,5.65402353 12.8894118,5.6992 C12.8988235,5.6992 12.9072941,5.69637647 12.9167059,5.69637647 C13.5604706,5.69637647 14.1298824,5.98908235 14.5176471,6.44178824 C14.7087059,6.46814118 14.8875294,6.52649412 15.0588235,6.59896471 L15.0588235,3.72272941 C15.0409412,3.05072941 14.6804706,2.58202353 14.1176471,2.41072941 L14.1176471,1.8592 C14.1176471,1.43849412 13.9971765,1.13731765 13.7741176,0.973552941 C13.6122353,0.847435294 13.408,0.786258824 13.1482353,0.786258824 C13.0569412,0.786258824 12.9176471,0.793788235 12.7538824,0.836141176 L7.53788235,2.32978824 L7.52,2.32978824 L2.28611765,0.831435294 C2.14023529,0.793788235 2.00094118,0.786258824 1.90964706,0.786258824 C1.65082353,0.786258824 1.44564706,0.847435294 1.29882353,0.962258824 C1.06164706,1.13731765 0.941176471,1.43849412 0.941176471,1.8592 L0.941176471,2.42014118 C0.363294118,2.59990588 0,3.07331765 0,3.74155294 L0.000941176471,12.2300235 C0.0225882353,13.0770824 0.576,13.6239059 1.41176471,13.6239059 L8.67952941,13.6239059 C8.30211765,13.1712 8.06682353,12.6864941 7.85976471,12.2554353 C7.59623529,11.7057882 7.33835294,11.1872 6.82352941,10.6328471 L6.82352941,10.6328471 Z"/>
    <path d="M15.6972462,8.53129412 C15.6972462,8.07670588 15.328305,7.70776471 14.8737167,7.70776471 C14.6854814,7.70776471 14.5198344,7.78211765 14.3814814,7.88847059 L14.3814814,7.81411765 C14.3814814,7.35858824 14.0125403,6.99058824 13.557952,6.99058824 C13.3527756,6.99058824 13.1711285,7.07247059 13.0271285,7.19670588 C12.9471285,6.82588235 12.6327756,6.54258824 12.2374814,6.54258824 C12.0473638,6.54258824 11.8807756,6.61694118 11.7414814,6.72517647 L11.7414814,5.03576471 C11.7414814,4.58023529 11.3725403,4.21223529 10.917952,4.21223529 C10.4633638,4.21223529 10.0944226,4.58023529 10.0944226,5.03576471 L10.0944226,9.25505882 C10.0266579,9.192 9.95983439,9.12988235 9.90618733,9.08282353 C9.46571674,8.69505882 8.89254027,8.40047059 8.48501086,8.43435294 C8.46712851,8.43529412 8.44454027,8.43152941 8.42759909,8.43435294 C8.42383439,8.43435294 8.42195203,8.43717647 8.41818733,8.43717647 C8.35795203,8.44847059 8.30430498,8.472 8.25442262,8.50023529 C8.24501086,8.50682353 8.23183439,8.50776471 8.22242262,8.51341176 C8.16689321,8.552 8.11795203,8.60282353 8.08030498,8.66870588 C8.04924615,8.72235294 8.02854027,8.77317647 8.01442262,8.82305882 C8.01065792,8.83529412 8.01159909,8.84941176 8.00971674,8.86258824 C7.9993638,8.91247059 7.99748145,8.95952941 8.00312851,9.00470588 C8.00406968,9.01411765 8.00501086,9.02352941 8.00689321,9.03294118 C8.04548145,9.24941176 8.2233638,9.40376471 8.33912851,9.50258824 C8.51795203,9.68423529 8.66195203,9.85741176 8.79842262,10.0296471 C9.36595203,10.7411765 9.64265792,11.3858824 9.91748145,11.9383529 L9.91559909,11.9383529 C9.98524615,12.0776471 10.0558344,12.2103529 10.1311285,12.3364706 C10.1508932,12.3684706 10.1753638,12.3976471 10.1951285,12.4296471 C10.261952,12.5322353 10.3325403,12.632 10.4115991,12.7261176 C10.4501873,12.7722353 10.496305,12.8145882 10.5395991,12.8588235 C10.6130109,12.9322353 10.6920697,13.0037647 10.7795991,13.0715294 C10.8360697,13.1138824 10.8972462,13.1562353 10.9593638,13.1957647 C10.9998344,13.2202353 11.029952,13.2494118 11.072305,13.2738824 L11.088305,13.2635294 C11.1974814,13.3256471 11.2953638,13.3915294 11.4280697,13.4451765 L11.4280697,13.4442353 C11.4280697,13.4442353 11.7810109,13.6230588 12.8398344,13.6230588 C14.4294814,13.6230588 15.6991285,12.7270588 15.6991285,11.1552941 C15.6991285,11.1552941 15.6972462,10.2282353 15.6972462,10.1981176 L15.6972462,8.53129412 Z"/>
  </g>
</svg>
