<svg xmlns="http://www.w3.org/2000/svg" width="32" height="32" viewBox="0 0 32 32">
  <g fill="#252525">
    <g transform="translate(3 3)">
      <path d="M1,1 L25,1 L25,25 L1,25 L1,1 Z M3,3 L3,23 L23,23 L23,3 L3,3 Z"/>
      <circle cx="23.5" cy="2.5" r="2.5"/>
      <circle cx="2.5" cy="2.5" r="2.5"/>
      <circle cx="2.5" cy="23.5" r="2.5"/>
      <circle cx="23.5" cy="23.5" r="2.5"/>
    </g>
    <path d="M16,21.6 C14.7073333,21.6 13.5201333,21.1557333 12.5709333,20.4174667 L20.4174667,12.5709333 C21.1557333,13.5192 21.6,14.7073333 21.6,16 C21.6,19.0884 19.0884,21.6 16,21.6 M10.4,16 C10.4,12.9116 12.9116,10.4 16,10.4 C17.2917333,10.4 18.4789333,10.8442667 19.4281333,11.5816 L11.5816,19.4281333 C10.8442667,18.4798667 10.4,17.2917333 10.4,16 M16,9 C12.1397333,9 9,12.1397333 9,16 C9,19.8602667 12.1397333,23 16,23 C19.8602667,23 23,19.8602667 23,16 C23,12.1397333 19.8602667,9 16,9"/>
  </g>
</svg>
