<svg xmlns="http://www.w3.org/2000/svg" width="64" height="64" viewBox="0 0 64 64">
  <title>icon_wifiOff</title>
  <g>
    <path d="M46.0975,31.7757A27.09,27.09,0,0,1,50.9958,35.66,3.5332,3.5332,0,1,1,46,40.6566a19.83,19.83,0,0,0-5.0906-3.6931Z"/>
    <path d="M26.1144,20.3965A36.53,36.53,0,0,0,6.0307,30.6626a3.5333,3.5333,0,0,1-4.9965-4.9973A43.6922,43.6922,0,0,1,33.6186,12.89Zm25.9142,5.4468a36.8108,36.8108,0,0,1,5.9405,4.8193,3.5333,3.5333,0,0,0,4.9965-4.9973,43.8141,43.8141,0,0,0-5.8475-4.9105Z"/>
    <path d="M27.758,45.9066a5.9949,5.9949,0,1,0,8.478,0,5.9931,5.9931,0,0,0-8.478,0"/>
    <rect x="-1.813" y="27.0367" width="67.6141" height="6.3066" transform="translate(-11.9733 31.5776) rotate(-45.1459)"/>
  </g>
</svg>
