<svg xmlns="http://www.w3.org/2000/svg" width="32" height="32" viewBox="0 0 32 32">
  <path d="M13.228,13.946 C13.228,14.5940032 13.0900014,15.1489977 12.814,15.611 C12.5379986,16.0730023 12.1360026,16.4419986 11.608,16.718 C13.0360071,17.1620022 13.75,18.1099927 13.75,19.562 C13.75,20.1260028 13.6420011,20.6359977 13.426,21.092 C13.2099989,21.5480023 12.898002,21.9349984 12.49,22.253 C12.081998,22.5710016 11.5900029,22.8139992 11.014,22.982 C10.4379971,23.1500008 9.7900036,23.234 9.07,23.234 C8.20599568,23.234 7.42300351,23.1080013 6.721,22.856 C6.01899649,22.6039987 5.41600252,22.2560022 4.912,21.812 L6.01,20.174 C6.46600228,20.4980016 6.92799766,20.7409992 7.396,20.903 C7.86400234,21.0650008 8.3679973,21.146 8.908,21.146 C9.6280036,21.146 10.1769981,20.9930015 10.555,20.687 C10.9330019,20.3809985 11.122,19.9400029 11.122,19.364 C11.122,18.355995 10.426007,17.852 9.034,17.852 L7.216,17.852 L7.216,15.872 L8.872,15.872 C9.472003,15.872 9.90999862,15.7160016 10.186,15.404 C10.4620014,15.0919984 10.6,14.7080023 10.6,14.252 C10.6,13.7479975 10.4500015,13.3580014 10.15,13.082 C9.8499985,12.8059986 9.38800312,12.668 8.764,12.668 C8.3439979,12.668 7.91800216,12.7399993 7.486,12.884 C7.05399784,13.0280007 6.64600192,13.2379986 6.262,13.514 L5.182,11.912 C5.73400276,11.4799978 6.3399967,11.1500011 7,10.922 C7.6600033,10.6939989 8.36199628,10.58 9.106,10.58 C9.71800306,10.58 10.2789975,10.6549993 10.789,10.805 C11.2990026,10.9550008 11.7339982,11.1709986 12.094,11.453 C12.4540018,11.7350014 12.732999,12.0859979 12.931,12.506 C13.129001,12.9260021 13.228,13.4059973 13.228,13.946 Z M26.854,16.79 C26.854,17.7620049 26.7190013,18.6319962 26.449,19.4 C26.1789987,20.1680038 25.7830026,20.8189973 25.261,21.353 C24.7389974,21.8870027 24.0940038,22.2949986 23.326,22.577 C22.5579962,22.8590014 21.670005,23 20.662,23 L16.414,23 L16.414,10.58 L20.662,10.58 C21.670005,10.58 22.5579962,10.7209986 23.326,11.003 C24.0940038,11.2850014 24.7389974,11.6929973 25.261,12.227 C25.7830026,12.7610027 26.1789987,13.4119962 26.449,14.18 C26.7190013,14.9480038 26.854,15.8179951 26.854,16.79 Z M24.118,16.79 C24.118,15.3619929 23.8420028,14.3210033 23.29,13.667 C22.7379972,13.0129967 21.8320063,12.686 20.572,12.686 L19.042,12.686 L19.042,20.894 L20.572,20.894 C21.8320063,20.894 22.7379972,20.5670033 23.29,19.913 C23.8420028,19.2589967 24.118,18.2180071 24.118,16.79 Z"/>
</svg>
