<svg xmlns="http://www.w3.org/2000/svg" width="16" height="16" viewBox="0 0 16 16">
  <path fill="#1A1919" fill-rule="evenodd" d="M11.25,2.00009034 C10.836,2.00009034 10.5,2.35290267 10.5,2.78761786 L10.5,7.53693382 C10.46,7.46133118 10.423,7.38257843 10.362,7.31852619 L5.568,2.28465029 C4.99,1.67667904 4,2.10719408 4,2.9661241 L4,13.0338759 C4,13.8928059 4.99,14.323321 5.568,13.7153497 L10.362,8.68147381 C10.423,8.61742157 10.46,8.53866882 10.5,8.46306618 L10.5,13.2123821 C10.5,13.6470973 10.836,13.9999097 11.25,13.9999097 C11.664,13.9999097 12,13.6470973 12,13.2123821 L12,2.78761786 C12,2.35290267 11.664,2.00009034 11.25,2.00009034"/>
</svg>
