<svg xmlns="http://www.w3.org/2000/svg" width="30" height="18" viewBox="0 0 30 18">
  <title>icon_plan_tool-panorama</title>
  <path d="M3,16a38.9908,38.9908,0,0,0,.4212,5.9182C6.4819,20.6172,10.6672,20,16,20s9.5181.6172,12.5788,1.9182A38.9908,38.9908,0,0,0,29,16a38.9908,38.9908,0,0,0-.4212-5.9182C25.5181,11.3828,21.3328,12,16,12s-9.5181-.6172-12.5788-1.9182A38.9908,38.9908,0,0,0,3,16ZM2,7q4,3,14,3T30,7a37.1775,37.1775,0,0,1,1,9,37.1775,37.1775,0,0,1-1,9q-4-3-14-3T2,25a37.1774,37.1774,0,0,1-1-9A37.1774,37.1774,0,0,1,2,7Z" transform="translate(-1 -7)"/>
</svg>
