<svg xmlns="http://www.w3.org/2000/svg" width="32" height="32" viewBox="0 0 32 32"><path d="M5.3394,6.1948l5.2412,5.2417a.6107.6107,0,0,0,.856-.856L6.1948,5.3394a.61.61,0,0,0-.8555.856"/><path d="M8.9409,15.395H1.5288a.61.61,0,0,0,0,1.21H8.9409a.61.61,0,0,0,0-1.21"/><path d="M10.9514,20.4382a.611.611,0,0,0-.3708.1252L5.3394,25.8047a.6108.6108,0,0,0,.856.8564L11.4365,21.42a.6105.6105,0,0,0-.4851-.9817" fill="#4c4c4c"/><path d="M16.0021,22.53a.613.613,0,0,0-.6071.5282v7.4121a.61.61,0,0,0,1.21,0V23.0586a.61.61,0,0,0-.6029-.5282" fill="#666"/><path d="M21.0495,20.4384a.6109.6109,0,0,0-.486.9815l5.2412,5.2412a.6111.6111,0,0,0,.8564-.8564L21.42,20.5635a.61.61,0,0,0-.37-.1251" fill="#7f7f7f"/><path d="M30.4707,15.395H23.0586a.6106.6106,0,0,0,0,1.21h7.4121a.61.61,0,0,0,0-1.21" fill="#999"/><path d="M26.1753,5.2137a.6087.6087,0,0,0-.3706.1256l-5.2412,5.2412a.6109.6109,0,0,0,.8564.856l5.24-5.2417a.6105.6105,0,0,0-.4849-.9811" fill="#b2b2b2"/><path d="M16.0006,1a.6109.6109,0,0,0-.6055.529V8.9409a.61.61,0,0,0,1.21,0V1.5288A.6108.6108,0,0,0,16.0006,1" fill="#e5e5e5"/></svg>