<svg xmlns="http://www.w3.org/2000/svg" width="32" height="32" viewBox="0 0 32 32">
  <g>
    <path d="M22.7917997,7.15906144 C22.5988942,6.3865063 22.2776273,5.66477647 21.8519678,5.01784058 L27.0110127,5.62597258 C28.1095001,5.75545882 29,6.7501021 29,7.85158315 L29,25.8692732 C29,26.9689577 28.1240766,27.7134201 27.0324077,27.530203 L20.5165706,26.4366364 L11.4845563,28.8604282 L4.88299803,26.5262254 C3.84304693,26.1585157 3,24.9707542 3,23.8692732 L3,5.85158315 C3,4.75189861 3.84608793,4.15904742 4.8864255,4.52622539 L9.5367374,6.16751194 C9.27117765,6.80414564 9.09693835,7.48839291 9.03038382,8.20388944 L5,6.86042815 L5,24.8604282 L11,27.0067462 L11,14.0028659 C11.3175858,14.5327121 11.6554936,15.0614863 12,15.5770314 L12,26.8604282 L20,24.8604282 L20,15.5770314 C20.3445064,15.0614863 20.6824142,14.5327121 21,14.0028659 L21,24.8604282 L27,25.8604282 L27,7.86042815 L22.7917997,7.15906144 Z"/>
    <path d="M16,19.2857143 C16,19.2857143 10,12.3137085 10,9 C10,5.6862915 12.6862915,3 16,3 C19.3137085,3 22,5.6862915 22,9 C22,12.3137085 16,19.2857143 16,19.2857143 Z M16,13 C18.209139,13 20,11.209139 20,9 C20,6.790861 18.209139,5 16,5 C13.790861,5 12,6.790861 12,9 C12,11.209139 13.790861,13 16,13 Z"/>
  </g>
</svg>
