<svg xmlns="http://www.w3.org/2000/svg" width="16" height="16" viewBox="0 0 16 16">
  <g fill="#1C1B19" fill-rule="evenodd" transform="translate(0 2)">
    <path d="M14.9941,10.6549 L14.9891,10.6549 L2.0001,10.6489 L2.0061,1.6549 L2.0071,1.6549 L15.0001,1.6609 L14.9941,10.6549 Z M15.0001,0.1549 L1.9841,0.1549 C1.0831,0.1819 0.5001,0.7709 0.5001,1.6549 L0.5001,10.6749 C0.5231,11.5739 1.1121,12.1549 2.0001,12.1549 L15.0091,12.1549 L15.0171,12.1549 C15.9181,12.1339 16.5001,11.5449 16.5001,10.6549 L16.5001,1.6349 C16.4771,0.7359 15.8881,0.1549 15.0001,0.1549 L15.0001,0.1549 Z"/>
    <path d="M3.5,9.9059 C3.692,9.9059 3.884,9.8329 4.03,9.6859 L7.5,6.2169 L9.5,8.2169 L14.03,3.6859 C14.323,3.3929 14.323,2.9189 14.03,2.6259 C13.737,2.3329 13.263,2.3329 12.97,2.6259 L9.5,6.0949 L7.5,4.0949 L2.97,8.6259 C2.677,8.9189 2.677,9.3929 2.97,9.6859 C3.116,9.8329 3.308,9.9059 3.5,9.9059"/>
  </g>
</svg>
