# Blender3D v249 OBJ File: android.blend
# www.blender3d.org
mtllib android.mtl
o Cube
v -11.500000 1.500000 -6.000000
v -11.500000 1.500001 5.999998
v 11.500000 1.499999 -6.000004
v 11.500000 -1.500001 -5.999996
v 11.500000 -1.499999 6.000001
v 11.500001 1.500000 5.999999
v 10.395000 1.499999 -6.000003
v 10.395000 -1.500001 -5.999997
v 10.395000 -1.499999 6.000001
v 10.395001 1.500000 5.999999
v 8.107075 1.500000 -6.000003
v 8.107075 -1.500000 -5.999997
v 8.107075 -1.499999 6.000001
v 8.107077 1.500000 5.999999
v -11.500000 1.500001 3.899998
v 11.500001 1.500000 3.899998
v 11.500000 -1.500000 3.900002
v 10.395001 1.500000 3.899998
v 8.107075 -1.500000 3.900002
v 8.107077 1.500000 3.899998
v -11.500000 1.500001 1.919999
v 11.500001 1.500000 1.919998
v 11.500000 -1.500000 1.920002
v 10.395000 -1.500000 2.910002
v 10.395001 1.500000 1.919998
v 8.107075 -1.500000 1.920002
v 8.107077 1.500000 1.919998
v 7.126721 1.500000 -6.000003
v 7.126721 -1.500000 -5.999997
v 7.126721 -1.499999 6.000001
v 7.126723 1.500000 5.999999
v 7.126723 1.500000 3.899998
v 7.126721 -1.500000 5.247471
v 7.126723 1.500000 1.919998
v -7.122720 1.500000 -6.000000
v -7.122720 -1.500000 -5.999999
v -7.122720 -1.500000 6.000002
v -7.122720 1.500001 5.999998
v -7.122720 1.500000 3.899998
v -7.122720 -1.500000 5.247471
v -7.122720 1.500000 1.919999
v -11.500000 1.500000 -5.208000
v 11.500000 1.499999 -5.208004
v 11.500000 -1.500001 -5.207996
v 10.395000 -1.500000 -5.108997
v 10.395000 1.499999 -5.208003
v 8.107075 -1.500000 -5.207997
v 8.107075 1.500000 -5.208003
v 7.126721 -1.500000 -5.207997
v 7.126721 1.500000 -5.208003
v -7.122720 -1.500000 -5.207999
v -7.122720 1.500000 -5.208000
v -11.500000 1.500001 5.247468
v 11.500001 1.500000 5.247468
v 11.500000 -1.499999 5.247471
v 10.395001 1.500000 5.247468
v 8.107075 -1.500000 5.247471
v 8.107077 1.500000 5.247468
v 10.395000 -1.500000 4.950471
v 7.126723 1.500000 5.247468
v -7.122720 1.500001 5.247468
v -9.267587 1.500001 5.999998
v -9.267587 1.500001 3.899998
v -9.267587 1.500001 1.919999
v -9.267588 1.500000 -5.208000
v -9.267587 1.500001 5.247468
v -9.267588 -1.500000 3.617011
v -9.267588 -1.500000 5.247471
v -9.267588 -1.500000 -5.999999
v -9.267588 -1.500000 6.000002
v -9.267588 -1.500000 -5.207999
v -9.267588 -0.575477 5.247471
v -9.267588 -0.575477 3.617011
v -9.267588 -0.575477 6.000002
v -9.267588 -0.575477 -5.999999
v -9.267588 -0.575477 -5.207999
v -11.500000 -0.575477 6.000002
v -11.500000 -0.575477 -6.000000
v -11.500000 -0.575477 3.900002
v -11.500000 -0.575477 5.247471
v -11.500000 -0.575477 1.920001
v -11.500000 -0.575477 -5.207999
v -9.267588 1.500000 -6.000000
vt 0.000000 0.000000
vt 1.000000 0.000000
vt 1.000000 1.000000
vt 0.000000 1.000000
vt 0.500000 0.000000
vt 0.500000 1.000000
vt 0.000000 0.500000
vt 1.000000 0.500000
vt 0.250000 0.000000
vt 0.250000 1.000000
vt 1.000000 0.250000
vt 0.000000 0.250000
vt 0.500000 0.500000
vt 0.500000 0.750000
vt 0.000000 0.750000
vt 0.500000 0.250000
vt 1.000000 0.750000
vt 1.000000 0.125000
vt 0.000000 0.125000
vt 0.500000 0.875000
vt 1.000000 0.875000
vt 0.500000 0.125000
vt 0.250000 0.875000
vt 0.000000 0.875000
vn 0.000000 -1.000000 0.000000
vn 0.000000 0.707083 -0.707083
vn 0.577349 0.577349 -0.577349
vn 0.577349 -0.577349 -0.577349
vn 0.000000 -0.707083 -0.707083
vn 0.000000 -0.707083 0.707083
vn 0.577349 -0.577349 0.577349
vn 0.577349 0.577349 0.577349
vn 0.000000 0.707083 0.707083
vn 0.707083 0.707083 0.000000
vn 0.707083 -0.707083 0.000000
vn 0.000000 1.000000 0.000000
vn 0.000000 0.705130 -0.709037
vn 0.000000 0.705130 0.709037
vn -0.707083 0.707083 0.000000
vn -0.707083 -0.707083 0.000000
vn -0.577349 0.577349 -0.577349
vn -0.577349 -0.577349 0.577349
vn -0.577349 0.577349 0.577349
vn -0.705130 -0.709037 0.000000
vn -0.575182 -0.575182 0.581591
vn -0.577349 -0.577349 -0.577349
vn -0.575182 -0.575182 -0.581591
g Cube_Cube_Material
usemtl Material
s 1
f 24/1/1 19/2/1 26/3/1
g Cube_Cube_Material.001
usemtl Material.001
f 7/1/2 3/2/3 4/3/4 8/4/5
f 9/1/6 5/2/7 6/3/8 10/4/9
f 11/1/2 7/2/2 8/3/5 12/4/5
f 13/1/6 9/2/6 10/3/9 14/4/9
f 22/1/10 16/2/10 17/3/11 23/4/11
f 23/1/11 17/2/11 24/3/1
f 25/1/12 18/2/12 16/3/10 22/4/10
f 27/1/12 20/2/12 18/3/12 25/4/12
f 28/5/2 11/2/2 12/3/5 29/6/5
f 30/5/6 13/2/6 14/3/9 31/6/9
f 19/2/1 33/7/1 26/1/1
f 32/8/12 20/3/12 27/4/12 34/7/12
f 35/9/13 28/5/2 29/6/5 36/10/5
f 37/9/6 30/5/6 31/6/9 38/10/14
f 39/11/12 32/8/12 34/7/12 41/12/12
f 3/1/3 43/5/10 44/6/11 4/4/4
f 43/5/10 22/2/10 23/3/11 44/6/11
f 4/1/4 44/5/11 45/6/1 8/4/5
f 44/5/11 23/2/11 24/3/1 45/6/1
f 7/1/2 46/5/12 43/6/10 3/4/3
f 46/5/12 25/2/12 22/3/10 43/6/10
f 8/1/5 45/5/1 47/6/1 12/4/5
f 45/5/1 24/2/1 26/3/1 47/6/1
f 11/1/2 48/5/12 46/6/12 7/4/2
f 48/5/12 27/2/12 25/3/12 46/6/12
f 33/8/1 49/13/1 47/5/1 26/2/1
f 49/13/1 29/7/5 12/1/5 47/5/1
f 27/3/12 48/6/12 50/13/12 34/8/12
f 48/6/12 11/4/2 28/7/2 50/13/12
f 51/14/1 36/15/5 29/7/5 49/13/1
f 34/8/12 50/13/12 52/16/12 41/11/12
f 50/13/12 28/7/2 35/12/13 52/16/12
f 16/1/10 54/5/10 55/6/11 17/4/11
f 54/5/10 6/2/8 5/3/7 55/6/11
f 17/1/11 55/5/11 59/6/1 24/4/1
f 55/5/11 5/2/7 9/3/6 59/6/1
f 18/1/12 56/5/12 54/6/10 16/4/10
f 56/5/12 10/2/9 6/3/8 54/6/10
f 24/1/1 59/5/1 57/6/1 19/4/1
f 59/5/1 9/2/6 13/3/6 57/6/1
f 20/1/12 58/5/12 56/6/12 18/4/12
f 58/5/12 14/2/9 10/3/9 56/6/12
f 30/8/6 33/13/1 57/5/1 13/2/6
f 33/13/1 19/1/1 57/5/1
f 14/3/9 58/6/12 60/13/12 31/8/9
f 58/6/12 20/4/12 32/7/12 60/13/12
f 37/17/6 40/14/1 33/13/1 30/8/6
f 31/8/9 60/13/12 61/16/12 38/11/14
f 60/13/12 32/7/12 39/12/12 61/16/12
f 15/2/15 63/18/12 64/19/12 21/1/15
f 63/18/12 39/11/12 41/12/12 64/19/12
f 71/20/16 51/14/1 40/17/1 67/21/16
f 52/16/12 65/22/12 64/18/12 41/11/12
f 65/22/12 42/5/15 21/2/15 64/18/12
f 35/12/13 83/19/2 65/22/12 52/16/12
f 83/19/2 1/1/17 42/5/15 65/22/12
f 68/20/16 40/14/1 37/17/6 70/21/18
f 61/16/12 66/22/12 62/18/9 38/11/14
f 66/22/12 53/5/15 2/2/19 62/18/9
f 39/12/12 63/19/12 66/22/12 61/16/12
f 63/19/12 15/1/15 53/5/15 66/22/12
f 40/1/1 68/3/16 67/2/16
f 67/1/16 68/2/16 72/3/20 73/4/20
f 71/6/16 67/20/16 73/21/20 76/3/16
f 79/1/20 73/2/20 72/3/20
f 72/23/20 80/6/16 79/4/20
f 80/6/16 72/20/20 74/21/21 77/3/18
f 78/4/22 75/24/23 76/20/16 82/6/16
f 82/6/16 76/20/16 73/21/20 81/3/16
f 81/4/16 73/20/20 79/3/20
f 36/1/5 51/2/1 71/3/16 69/4/22
f 1/1/17 83/2/2 75/3/23 78/4/22
f 1/1/17 78/2/22 82/3/16 42/4/15
f 21/1/15 42/4/15 82/3/16 81/2/16
f 15/1/15 21/4/15 81/3/16 79/2/20
f 15/1/15 79/2/20 80/3/16 53/4/15
f 2/1/19 53/4/15 80/3/16 77/2/18
f 70/1/18 74/4/21 72/3/20 68/2/16
f 38/1/14 74/4/21 70/3/18 37/2/6
f 62/1/9 74/3/21 38/2/14
f 2/1/19 77/4/18 74/3/21 62/2/9
f 69/1/22 71/4/16 76/3/16 75/2/23
f 35/1/13 75/3/23 83/2/2
f 35/1/13 36/2/5 69/3/22 75/4/23
g Cube_Cube_Material.002
usemtl Material.002
f 40/17/1 51/14/1 49/13/1 33/8/1
