<?xml version="1.0" encoding="utf-8"?>
<!-- Generator: Adobe Illustrator 21.0.2, SVG Export Plug-In . SVG Version: 6.00 Build 0)  -->
<svg version="1.0" id="Layer_1" xmlns="http://www.w3.org/2000/svg" xmlns:xlink="http://www.w3.org/1999/xlink" x="0px" y="0px"
	 viewBox="0 0 480 160" enable-background="new 0 0 480 160" width="480px" height="160px" xml:space="preserve">
<path fill="#007100" d="M131.876,133.8707h50.136l-3.711,3.6557c-0.3369,0.33-0.3425,0.8706-0.0125,1.2075
	c0.0041,0.0042,0.0083,0.0083,0.0125,0.0125c0.3443,0.3378,0.8957,0.3378,1.24,0l5.203-5.1241
	c0.1641-0.1611,0.2564-0.3816,0.256-0.6116c0.0047-0.2375-0.0877-0.4666-0.256-0.6342l-5.202-5.1251
	c-0.3457-0.3363-0.8964-0.3354-1.241,0.002c-0.3372,0.3292-0.3437,0.8694-0.0145,1.2067c0.0048,0.0049,0.0096,0.0098,0.0145,0.0145
	l3.727,3.6725h-50.152c-0.4759-0.0089-0.869,0.3696-0.8779,0.8456c-0.0089,0.4759,0.3696,0.869,0.8456,0.8779
	c0.0108,0.0002,0.0216,0.0002,0.0324,0v0.0001H131.876z"/>
<g>
	<g>
		<path fill="#0071C5" d="M70.26,135H68.8v-6.9h1.46V135z"/>
		<path fill="#0071C5" d="M73.24,130.28V135h-1.38v-6.9h1.61l1.87,3.7607l1.88-3.7607h1.55v6.9h-1.38v-4.73l-1.5,2.99h-1.15
			L73.24,130.28z"/>
		<path fill="#0071C5" d="M85.71,134.52c-0.2832,0.2056-0.5995,0.3615-0.9351,0.4609c-0.4007,0.1186-0.817,0.1759-1.2349,0.17
			c-0.5018,0.0093-1.0008-0.0775-1.47-0.2559c-0.4086-0.1576-0.7774-0.4034-1.08-0.72c-0.302-0.3241-0.5305-0.7095-0.67-1.13
			c-0.159-0.4789-0.2367-0.9809-0.23-1.4854c-0.0085-0.5222,0.0762-1.0417,0.25-1.5342c0.1511-0.4258,0.3935-0.8133,0.71-1.1357
			c0.3129-0.3109,0.6901-0.5495,1.105-0.6992c0.4634-0.1657,0.9527-0.247,1.4448-0.24c0.7235-0.0352,1.438,0.1725,2.03,0.59
			l-0.54,1.01c-0.2001-0.1367-0.4213-0.2396-0.6548-0.3047c-0.2363-0.0641-0.4802-0.0959-0.7251-0.0947
			c-0.5883-0.0404-1.1634,0.1871-1.5649,0.6191c-0.3885,0.5125-0.5786,1.1483-0.5352,1.79
			c-0.0441,0.6358,0.1463,1.2656,0.5352,1.7705c0.4046,0.4265,0.9784,0.6502,1.5649,0.61c0.2743,0.0034,0.5475-0.0355,0.81-0.1152
			c0.231-0.0725,0.4501-0.1788,0.65-0.3154L85.71,134.52z"/>
	</g>
</g>
<g>
	<path fill="#1A1919" d="M87,124.012L67.012,124L67,136.988L86.978,137L87,124.012z M75,141h4v-2h-4V141z M86.75,143H62.5
		c-0.8284,0-1.5-0.6716-1.5-1.5s0.6716-1.5,1.5-1.5H64v-16c-0.0843-1.5718,1.1215-2.9142,2.6933-2.9985
		c0.0915-0.0049,0.1832-0.0054,0.2747-0.0015H87c1.5664-0.0894,2.9087,1.1079,2.9981,2.6743
		c0.0054,0.0951,0.0061,0.1905,0.0019,0.2857V137h-6v6H86.75z M87,135v2h3v-4L87,135z"/>
	<g>
		<path fill="#252525" d="M87,141c0.0324-0.6327,0.2816-1.235,0.7058-1.7056L92,135h10l4.2942,4.2942
			c0.4241,0.4707,0.6733,1.073,0.7058,1.7058v1.9953c0.0013,1.1023-0.8885,1.9984-1.9908,2.0047H88.9908
			c-1.1021-0.0026-1.9934-0.8981-1.9908-2.0002c0-0.0016,0-0.0032,0-0.0047V141z"/>
		<path fill="#252525" d="M97,124L97,124c2.7614,0,5,2.2386,5,5l0,0c0,2.7614-2.2386,5-5,5l0,0c-2.7614,0-5-2.2386-5-5l0,0
			C92,126.2386,94.2386,124,97,124z"/>
	</g>
</g>
<g>
	<g>
		<g>
			<path fill="#555555" d="M242.2906,41.4706h-0.94v-6.9h0.94V41.4706z"/>
			<path fill="#555555" d="M244.8206,37.2206c0.1546-0.2747,0.3856-0.4986,0.665-0.6445c0.3231-0.1649,0.6824-0.2459,1.045-0.2355
				c0.4884-0.0329,0.9675,0.1455,1.3154,0.49c0.3296,0.4045,0.4922,0.9196,0.4546,1.44v3.2H247.41v-3.11
				c0.0273-0.3363-0.0666-0.6712-0.2646-0.9443c-0.2194-0.2205-0.5251-0.3324-0.835-0.3057c-0.402-0.0155-0.7908,0.1452-1.0645,0.44
				c-0.2902,0.3494-0.4356,0.7967-0.4062,1.25v2.67h-0.89v-5h0.46c0.2729,0,0.4096,0.12,0.41,0.36L244.8206,37.2206z"/>
			<path fill="#555555" d="M252.1206,41.4606c-0.0879,0.0127-0.1738,0.0244-0.26,0.0352c-0.0966,0.0102-0.1938,0.0151-0.291,0.0146
				c-0.4429,0.0411-0.883-0.1038-1.2148-0.4c-0.2852-0.3776-0.419-0.8482-0.375-1.3193v-2.6005h-0.85v-0.72h0.85v-1.26h0.8908v1.26
				h1.25v0.72h-1.25v2.7c-0.0312,0.2535,0.0509,0.5079,0.2246,0.6953c0.2312,0.145,0.5037,0.2099,0.7754,0.1847h0.25V41.4606z"/>
			<path fill="#555555" d="M253.7706,39.1806c-0.0009,0.4569,0.1727,0.8969,0.4854,1.23c0.3429,0.2989,0.7902,0.4499,1.2441,0.42
				c0.4574,0.0203,0.9072-0.1214,1.2705-0.4l0.38,0.59c-0.225,0.1991-0.4891,0.349-0.7754,0.44
				c-0.3091,0.0961-0.6314,0.1433-0.9551,0.14c-0.3572,0.0048-0.7124-0.0544-1.0488-0.1748
				c-0.3023-0.1091-0.5761-0.2853-0.8007-0.5152c-0.2287-0.2402-0.4026-0.527-0.51-0.8408c-0.126-0.3698-0.1869-0.7587-0.18-1.1494
				c-0.0062-0.3712,0.0548-0.7405,0.18-1.09c0.1086-0.3031,0.2807-0.5794,0.5049-0.8105c0.2156-0.2192,0.4744-0.3911,0.76-0.5049
				c0.3009-0.1183,0.6218-0.1775,0.9451-0.1744c0.3066-0.0064,0.6113,0.0498,0.8955,0.165
				c0.2476,0.1036,0.4681,0.2626,0.6445,0.4648c0.1781,0.2087,0.3109,0.4521,0.39,0.7148c0.0892,0.2934,0.1331,0.5987,0.13,0.9053
				c0.0007,0.1978-0.016,0.3952-0.05,0.59L253.7706,39.1806z M255.2911,37.0806c-0.3772-0.0141-0.7444,0.1226-1.0205,0.38
				c-0.2789,0.2783-0.449,0.6472-0.4795,1.04h2.6995v-0.08c0.0228-0.3571-0.0879-0.7099-0.3105-0.99
				c-0.2296-0.2433-0.5557-0.3716-0.8895-0.35H255.2911z"/>
			<path fill="#555555" d="M258.5706,36.4706h0.4609c0.2725,0,0.4089,0.12,0.4092,0.36v0.48
				c0.1293-0.2822,0.3423-0.5177,0.61-0.6748c0.3677-0.1947,0.7863-0.2715,1.1992-0.22c0.061,0.0072,0.1214,0.019,0.1807,0.0352
				v0.7396h-0.33c-0.4557-0.0364-0.9053,0.1237-1.2354,0.44c-0.3065,0.4105-0.4505,0.9198-0.4043,1.43v2.41h-0.8903V36.4706z"/>
			<path fill="#555555" d="M263.1601,37.2206c0.1546-0.2747,0.3856-0.4986,0.665-0.6445c0.323-0.1649,0.6824-0.2458,1.0449-0.2354
				c0.4885-0.0329,0.9675,0.1455,1.3154,0.49c0.3297,0.4044,0.4926,0.9195,0.4552,1.4399v3.2H265.75v-3.11
				c0.0273-0.3363-0.0666-0.6712-0.2646-0.9443c-0.2194-0.2205-0.5251-0.3324-0.835-0.3057c-0.402-0.0155-0.7908,0.1452-1.0645,0.44
				c-0.2902,0.3494-0.4356,0.7967-0.4062,1.25v2.67h-0.89v-5h0.46c0.2733,0,0.41,0.12,0.41,0.36L263.1601,37.2206z"/>
			<path fill="#555555" d="M271.8506,41.5006c-0.2154,0.0191-0.4286-0.0557-0.585-0.2051c-0.1337-0.1656-0.2061-0.3722-0.2051-0.585
				c-0.1405,0.2737-0.3622,0.4972-0.6348,0.64c-0.3075,0.1591-0.65,0.2382-0.9961,0.23c-0.2365,0.0036-0.4717-0.0354-0.6943-0.1152
				c-0.192-0.0696-0.3673-0.1786-0.5146-0.32c-0.1399-0.136-0.2477-0.3015-0.3154-0.4844
				c-0.0705-0.1923-0.1059-0.3958-0.1045-0.6006c-0.0071-0.2507,0.0515-0.4989,0.17-0.72c0.1099-0.1965,0.2661-0.3631,0.4551-0.4854
				c0.201-0.1279,0.4222-0.2207,0.6543-0.2744c0.2523-0.0612,0.511-0.0916,0.7705-0.0908h1.1v-0.3
				c0.0738-0.5454-0.3086-1.0474-0.854-1.1212c-0.1118-0.0151-0.2255-0.0111-0.336,0.0118c-0.2593-0.0011-0.5172,0.0394-0.7637,0.12
				c-0.2479,0.0815-0.4822,0.1994-0.6953,0.35l-0.36-0.6c0.2629-0.2016,0.559-0.3556,0.875-0.4551
				c0.3313-0.1047,0.6769-0.1571,1.0244-0.1553c0.2547-0.0013,0.5086,0.0289,0.7559,0.09c0.2272,0.0551,0.4389,0.1611,0.6191,0.31
				c0.1834,0.1559,0.3274,0.353,0.42,0.5752c0.1126,0.2847,0.1658,0.5895,0.1563,0.8955v2.23
				c-0.0475,0.1635,0.0466,0.3346,0.2101,0.382c0.0584,0.017,0.1205,0.0163,0.1786-0.002h0.1113v0.62
				c-0.0547,0.0137-0.1211,0.0273-0.2012,0.04C272.0118,41.4941,271.9313,41.5008,271.8506,41.5006z M269.8706,39.1406
				c-0.3147-0.02-0.6282,0.0549-0.9,0.2148c-0.2118,0.1529-0.3292,0.4045-0.3105,0.665c-0.0122,0.2238,0.0714,0.4422,0.23,0.6006
				c0.1993,0.1624,0.4538,0.2412,0.71,0.22c0.1986,0.0041,0.3958-0.0334,0.5791-0.11c0.1614-0.069,0.3065-0.1712,0.4258-0.3
				c0.1192-0.1307,0.208-0.2861,0.26-0.4551c0.0575-0.1826,0.0862-0.3731,0.085-0.5645v-0.2708H269.8706z"/>
			<path fill="#555555" d="M274.2406,34.3006v5.81c-0.0254,0.1921,0.0227,0.3868,0.1348,0.5449
				c0.1448,0.0994,0.3204,0.1438,0.4951,0.125h0.07v0.7c-0.0627,0.0138-0.1261,0.0239-0.19,0.03
				c-0.0695,0.0069-0.1392,0.0102-0.209,0.01c-0.3315,0.0263-0.6581-0.0923-0.8955-0.3252
				c-0.2214-0.2934-0.3268-0.6581-0.2959-1.0244v-5.8703H274.2406z"/>
		</g>
		<g>
			<path fill="#555555" d="M242.1406,44.3006v2.94c0.1546-0.2807,0.3898-0.5087,0.6753-0.6543
				c0.3222-0.168,0.6814-0.2525,1.0447-0.2457c0.3174-0.0058,0.6323,0.0555,0.9243,0.18c0.2645,0.1156,0.4977,0.2923,0.6807,0.5156
				c0.1905,0.2369,0.3332,0.5086,0.42,0.8c0.1006,0.3357,0.1497,0.6848,0.1455,1.0352c0.0032,0.3687-0.0474,0.7359-0.15,1.09
				c-0.0903,0.3137-0.2395,0.6073-0.4395,0.8652c-0.1933,0.2426-0.4399,0.4374-0.7207,0.5693
				c-0.3104,0.1418-0.6488,0.2119-0.99,0.2051c-0.3342,0.0075-0.6653-0.0662-0.9648-0.2148c-0.2664-0.134-0.4899-0.34-0.645-0.5947
				v0.3191c0,0.24-0.1367,0.36-0.41,0.36h-0.46v-7.17H242.1406z M242.1206,49.0206c-0.0282,0.4759,0.1116,0.9466,0.395,1.33
				c0.2727,0.3245,0.6818,0.5022,1.105,0.48c0.4266,0.0244,0.8379-0.1625,1.1-0.5c0.2773-0.4158,0.4108-0.9111,0.38-1.41
				c0.0314-0.4749-0.093-0.947-0.3545-1.3447c-0.2512-0.3171-0.6418-0.4909-1.0455-0.4653
				c-0.4482-0.0232-0.8808,0.1683-1.165,0.5156C242.2401,48.029,242.0934,48.5218,242.1206,49.0206z"/>
			<path fill="#555555" d="M250.9606,51.5006c-0.2155,0.0193-0.4287-0.0555-0.585-0.2051c-0.1345-0.1651-0.2071-0.372-0.2051-0.585
				c-0.1406,0.274-0.3627,0.4976-0.6357,0.64c-0.3068,0.159-0.6487,0.2381-0.9941,0.23c-0.2368,0.0036-0.4723-0.0354-0.6953-0.1152
				c-0.1921-0.07-0.3676-0.179-0.5156-0.32c-0.139-0.1365-0.2464-0.3019-0.3145-0.4844c-0.0713-0.1921-0.1071-0.3957-0.1055-0.6006
				c-0.0071-0.2507,0.0515-0.4989,0.17-0.72c0.1102-0.1962,0.2664-0.3628,0.4551-0.4854c0.2016-0.1281,0.4235-0.2209,0.6563-0.2744
				c0.252-0.0613,0.5106-0.0918,0.77-0.0908h1.1v-0.3c0.0176-0.2944-0.0751-0.5848-0.26-0.8145
				c-0.2541-0.2258-0.5922-0.333-0.93-0.2949c-0.26-0.0011-0.5184,0.0394-0.7656,0.12c-0.2477,0.0819-0.482,0.1998-0.6953,0.35
				l-0.3594-0.6c0.2629-0.2016,0.559-0.3556,0.875-0.4551c0.3314-0.1045,0.6771-0.1567,1.0247-0.1546
				c0.2541-0.0012,0.5073,0.029,0.7539,0.09c0.4701,0.1084,0.8582,0.4383,1.041,0.8848c0.1119,0.2849,0.1644,0.5896,0.1543,0.8955
				v2.2297c-0.0468,0.1644,0.0485,0.3356,0.2129,0.3824c0.0582,0.0166,0.12,0.0157,0.1777-0.0024h0.1094v0.62
				c-0.0527,0.0137-0.1191,0.0273-0.1992,0.04C251.1213,51.494,251.041,51.5007,250.9606,51.5006z M248.9806,49.1406
				c-0.3147-0.0196-0.6281,0.0552-0.9,0.2148c-0.2113,0.1532-0.3285,0.4047-0.31,0.665c-0.0118,0.2237,0.0718,0.442,0.23,0.6006
				c0.1994,0.1622,0.4538,0.2411,0.71,0.22c0.1989,0.004,0.3964-0.0335,0.58-0.11c0.161-0.0692,0.3057-0.1714,0.4248-0.3
				c0.1188-0.1309,0.2076-0.2862,0.26-0.4551c0.0575-0.1826,0.0862-0.3731,0.085-0.5645v-0.2708H248.9806z"/>
			<path fill="#555555" d="M254.08,47.0806c-0.2398-0.0082-0.4776,0.0467-0.6895,0.1592c-0.1871,0.1084-0.2956,0.3144-0.2793,0.53
				c0.0028,0.1237,0.0426,0.2438,0.1143,0.3447c0.1344,0.1525,0.3152,0.2564,0.5146,0.2959l0.92,0.2793
				c0.3606,0.0885,0.6918,0.2696,0.9609,0.5254c0.2042,0.2291,0.3118,0.5283,0.3,0.835c0.0135,0.4291-0.1686,0.8412-0.4951,1.12
				c-0.4073,0.3116-0.9141,0.4644-1.4258,0.43c-0.3687,0.005-0.7355-0.0542-1.084-0.1748c-0.3136-0.1101-0.6038-0.278-0.8555-0.4951
				l0.41-0.62c0.2134,0.1672,0.4512,0.3006,0.7051,0.3955c0.2673,0.0984,0.5502,0.1474,0.835,0.1445
				c0.2616,0.0118,0.5209-0.0541,0.7451-0.1895c0.1926-0.1325,0.3009-0.3569,0.2848-0.5901
				c0.007-0.1473-0.0454-0.2911-0.1455-0.3994c-0.1418-0.1251-0.3116-0.2143-0.4951-0.26l-0.9492-0.28
				c-0.3477-0.0823-0.666-0.2587-0.92-0.51c-0.2049-0.231-0.3127-0.5322-0.3008-0.8408c-0.0048-0.2183,0.0434-0.4345,0.1406-0.63
				c0.0919-0.179,0.2257-0.3331,0.39-0.4492c0.1768-0.1252,0.3751-0.2169,0.585-0.2705c0.2366-0.0615,0.4802-0.0918,0.7246-0.09
				c0.316,0.0005,0.6305,0.0425,0.9355,0.125c0.2884,0.0729,0.5589,0.2038,0.7949,0.3848l-0.33,0.6201
				c-0.1964-0.1179-0.4063-0.2119-0.625-0.28C254.5976,47.1147,254.3393,47.0775,254.08,47.0806z"/>
			<path fill="#555555" d="M257.7306,49.1806c-0.0004,0.4566,0.1728,0.8963,0.4844,1.23c0.3437,0.2989,0.7916,0.4498,1.2461,0.42
				c0.4572,0.0204,0.907-0.1213,1.27-0.4l0.38,0.59c-0.2249,0.1987-0.4886,0.3485-0.7744,0.44
				c-0.3092,0.0958-0.6314,0.143-0.9551,0.14c-0.3579,0.0048-0.7137-0.0544-1.0508-0.1748c-0.302-0.1092-0.5754-0.2851-0.8-0.5146
				c-0.2283-0.2405-0.4023-0.5272-0.51-0.8408c-0.1263-0.3698-0.1874-0.7587-0.1807-1.1494c-0.006-0.3713,0.0553-0.7405,0.1807-1.09
				c0.109-0.3029,0.2811-0.5792,0.5049-0.8105c0.2158-0.219,0.4745-0.3909,0.76-0.5049c0.301-0.1184,0.6219-0.1777,0.9453-0.1748
				c0.3063-0.0066,0.6107,0.0496,0.8945,0.165c0.2479,0.1033,0.4686,0.2624,0.6451,0.4648c0.1781,0.2087,0.3109,0.4521,0.39,0.7148
				c0.0895,0.2933,0.1337,0.5986,0.1309,0.9053c0.0005,0.1978-0.0165,0.3952-0.0508,0.59L257.7306,49.1806z M259.2506,47.0806
				c-0.377-0.0141-0.7441,0.1227-1.02,0.38c-0.2786,0.2785-0.4488,0.6473-0.48,1.04h2.7v-0.08c0.0225-0.357-0.0879-0.7096-0.31-0.99
				c-0.2302-0.2431-0.5566-0.3714-0.8907-0.35H259.2506z"/>
			<path fill="#555555" d="M266.5706,47.0806c-0.2398-0.0083-0.4776,0.0466-0.6895,0.1592c-0.1875,0.1081-0.2964,0.3142-0.28,0.53
				c0.0033,0.1237,0.0431,0.2436,0.1143,0.3447c0.1346,0.1527,0.3159,0.2567,0.5156,0.2959l0.92,0.2793
				c0.3602,0.0887,0.6911,0.2698,0.96,0.5254c0.2046,0.2288,0.3122,0.5283,0.3,0.835c0.0139,0.429-0.1679,0.8411-0.4941,1.12
				c-0.4074,0.3114-0.9141,0.4643-1.4258,0.43c-0.369,0.005-0.7362-0.0542-1.085-0.1748c-0.3132-0.1103-0.603-0.2782-0.8545-0.4951
				l0.41-0.62c0.2133,0.1674,0.4511,0.3008,0.7051,0.3955c0.2669,0.0984,0.5495,0.1474,0.834,0.1445
				c0.2619,0.0117,0.5215-0.0542,0.7461-0.1895c0.1924-0.1326,0.3003-0.357,0.2838-0.5901
				c0.0074-0.1473-0.0451-0.2914-0.1455-0.3994c-0.1414-0.1251-0.3109-0.2143-0.4941-0.26l-0.95-0.28
				c-0.3475-0.0828-0.6657-0.2591-0.92-0.51c-0.2043-0.2313-0.3117-0.5324-0.3-0.8408c-0.0045-0.2182,0.0435-0.4343,0.14-0.63
				c0.0923-0.1787,0.226-0.3328,0.39-0.4492c0.1771-0.1254,0.3757-0.217,0.5859-0.2705c0.2366-0.0615,0.4802-0.0918,0.7246-0.09
				c0.3159,0.0006,0.6305,0.0426,0.9355,0.125c0.2883,0.0731,0.5587,0.204,0.7949,0.3848l-0.33,0.62
				c-0.1966-0.1175-0.4064-0.2115-0.625-0.28C267.0887,47.1146,266.8302,47.0775,266.5706,47.0806z"/>
			<path fill="#555555" d="M272.0606,51.4606c-0.0879,0.0127-0.1738,0.0244-0.26,0.0352c-0.0966,0.0102-0.1938,0.0151-0.291,0.0146
				c-0.4429,0.0411-0.883-0.1038-1.2148-0.4c-0.2852-0.3776-0.4189-0.8482-0.375-1.3193v-2.6005h-0.85v-0.72h0.85v-1.26h0.8906v1.26
				h1.25v0.72h-1.25v2.7c-0.0312,0.2535,0.051,0.5079,0.2246,0.6953c0.2312,0.145,0.5037,0.2098,0.7754,0.1846h0.25
				L272.0606,51.4606z"/>
			<path fill="#555555" d="M276.8397,51.5006c-0.2151,0.0191-0.428-0.0557-0.584-0.2051c-0.1345-0.1651-0.2071-0.372-0.2051-0.585
				c-0.1409,0.2738-0.3629,0.4973-0.6357,0.64c-0.3071,0.1591-0.6493,0.2382-0.9951,0.23
				c-0.2368,0.0036-0.4723-0.0354-0.6953-0.1152c-0.1919-0.0698-0.3671-0.1788-0.5146-0.32
				c-0.1396-0.1362-0.2473-0.3016-0.3154-0.4844c-0.0705-0.1923-0.1059-0.3958-0.1045-0.6006
				c-0.0071-0.2507,0.0515-0.4989,0.17-0.72c0.1099-0.1965,0.2661-0.3631,0.4551-0.4854c0.2014-0.1279,0.423-0.2207,0.6555-0.2743
				c0.252-0.0612,0.5106-0.0917,0.77-0.0908h1.1v-0.3c0.0739-0.5453-0.3082-1.0472-0.8534-1.1211
				c-0.1119-0.0152-0.2255-0.0112-0.3361,0.0117c-0.2596-0.0011-0.5178,0.0394-0.7646,0.12
				c-0.2478,0.0817-0.4821,0.1996-0.6953,0.35l-0.36-0.6c0.263-0.2014,0.5591-0.3554,0.875-0.4551
				c0.3317-0.1047,0.6776-0.1571,1.0254-0.1553c0.2544-0.0013,0.508,0.0289,0.7549,0.09c0.4696,0.1089,0.8573,0.4387,1.04,0.8848
				c0.1123,0.2848,0.1651,0.5895,0.1553,0.8955v2.2303c-0.047,0.1642,0.0481,0.3354,0.2122,0.3823
				c0.0582,0.0167,0.12,0.0158,0.1778-0.0023h0.11v0.62c-0.0537,0.0137-0.12,0.0273-0.2,0.04
				C277.0018,51.4941,276.9208,51.5008,276.8397,51.5006z M274.8606,49.1406c-0.3147-0.0198-0.6281,0.055-0.9,0.2148
				c-0.2113,0.1532-0.3286,0.4047-0.31,0.665c-0.0122,0.2238,0.0714,0.4422,0.23,0.6006c0.1989,0.1624,0.4531,0.2413,0.709,0.22
				c0.1989,0.0042,0.3965-0.0333,0.58-0.11c0.1613-0.0692,0.3063-0.1714,0.4258-0.3c0.1188-0.1309,0.2076-0.2862,0.26-0.4551
				c0.0572-0.1827,0.0855-0.3731,0.084-0.5645v-0.2708H274.8606z"/>
			<path fill="#555555" d="M280.7899,51.4606c-0.0869,0.0127-0.1729,0.0244-0.26,0.0352c-0.0963,0.0102-0.1931,0.0151-0.29,0.0146
				c-0.4429,0.0413-0.8831-0.1036-1.2148-0.4c-0.2852-0.3776-0.4189-0.8482-0.375-1.3193v-2.6005h-0.85v-0.72h0.85v-1.26h0.89v1.26
				h1.25v0.72h-1.25v2.7c-0.0309,0.2537,0.0516,0.5081,0.2256,0.6953c0.2308,0.145,0.503,0.2099,0.7744,0.1846h0.25
				L280.7899,51.4606z"/>
			<path fill="#555555" d="M281.83,44.4706h0.93v1h-0.93V44.4706z M282.74,51.4706h-0.8906v-5h0.8906V51.4706z"/>
			<path fill="#555555" d="M288.9394,48.9706c0.0047,0.3663-0.0562,0.7304-0.18,1.0752c-0.1101,0.307-0.2801,0.5891-0.5,0.83
				c-0.2177,0.233-0.4837,0.4157-0.7793,0.5352c-0.6515,0.2526-1.3739,0.2526-2.0254,0c-0.2941-0.1203-0.5586-0.3029-0.7754-0.5352
				c-0.2196-0.2411-0.3895-0.5232-0.5-0.83c-0.2395-0.6967-0.2395-1.4533,0-2.15c0.1105-0.3068,0.2804-0.5889,0.5-0.83
				c0.2168-0.2323,0.4813-0.4149,0.7754-0.5352c0.6515-0.2526,1.3739-0.2526,2.0254,0c0.2956,0.1195,0.5616,0.3022,0.7793,0.5352
				c0.2199,0.2409,0.3899,0.523,0.5,0.83C288.8831,48.2404,288.9441,48.6045,288.9394,48.9706z M288.0094,48.9706
				c0.0319-0.491-0.1097-0.9777-0.4-1.375c-0.6049-0.6294-1.6056-0.6492-2.235-0.0443c-0.015,0.0145-0.0298,0.0292-0.0443,0.0443
				c-0.5338,0.8389-0.5338,1.9111,0,2.75c0.6049,0.6294,1.6056,0.6492,2.235,0.0443c0.015-0.0145,0.0298-0.0292,0.0443-0.0443
				c0.2904-0.3973,0.4321-0.8839,0.4003-1.375H288.0094z"/>
			<path fill="#555555" d="M291.0706,47.2206c0.1542-0.2746,0.3849-0.4986,0.6641-0.6445c0.3231-0.1646,0.6824-0.2456,1.0449-0.2354
				c0.4885-0.0331,0.9676,0.1454,1.3154,0.49c0.33,0.4041,0.4929,0.9191,0.4551,1.4395v3.2004h-0.89v-3.11
				c0.027-0.3364-0.0672-0.6713-0.2656-0.9443c-0.219-0.2205-0.5244-0.3324-0.834-0.3057c-0.4023-0.0155-0.7913,0.1451-1.0654,0.44
				c-0.2899,0.3495-0.435,0.7968-0.4053,1.25v2.67h-0.8906v-5h0.4609c0.2733,0,0.41,0.12,0.41,0.36L291.0706,47.2206z"/>
		</g>
	</g>
	<g>
		<path fill="#252525" d="M223.4706,31.0106c1.7253,0.005,3.12,1.4077,3.115,3.133c-0.005,1.7253-1.4077,3.12-3.133,3.115
			c-1.7218-0.005-3.115-1.4022-3.115-3.124c0.0006-1.7259,1.4002-3.1246,3.1262-3.124
			C223.4661,31.0106,223.4683,31.0106,223.4706,31.0106z M216.8537,27.7113c1.7191-1.8812,4.1566-2.9432,6.7048-2.9213
			c2.5432,0.0026,4.9713,1.0605,6.7048,2.9213l-2.22,2.1166c-1.2198-1.2082-2.8563-1.9028-4.5727-1.9408
			c-1.6598,0.0155-3.239,0.7182-4.3616,1.9408L216.8537,27.7113z"/>
		<path fill="#252525" d="M212.1251,23.4465c2.8882-3.2146,7.0433-4.9975,11.3631-4.8759c4.3302-0.1048,8.4929,1.6741,11.41,4.876
			l-2.25,2.0644c-2.4633-2.3661-5.7167-3.7344-9.1307-3.84c-3.4739-0.1068-6.8243,1.2933-9.1893,3.84L212.1251,23.4465z"/>
		<polygon fill="#252525" points="224.3896,33.8646 222.5516,33.0766 215.1686,50.3026 228.0436,41.2896 226.8976,39.6516 
			219.7726,44.6386 		"/>
		<polygon fill="#252525" points="222.8236,33.8646 224.6616,33.0766 232.0446,50.3026 219.1696,41.2896 220.3156,39.6516 
			227.4406,44.6386 		"/>
	</g>
</g>
<path fill="none" stroke="#0071C5" stroke-width="2" d="M206.4706,13.4706h90c2.2091,0,4,1.7909,4,4v35c0,2.2091-1.7909,4-4,4h-90
	c-2.2091,0-4-1.7909-4-4v-35C202.4706,15.2615,204.2615,13.4706,206.4706,13.4706z"/>
<path fill="none" stroke="#1A1919" stroke-width="2" stroke-linecap="square" d="M251.4706,60.9706v40.611"/>
<polyline fill="none" stroke="#007314" stroke-width="2" stroke-linecap="round" stroke-linejoin="round" points="386.311,103.697 
	393.182,103.697 393.182,111.123 "/>
<polyline fill="none" stroke="#007314" stroke-width="2" stroke-linecap="round" stroke-linejoin="round" points="319.202,133.102 
	363.94,133.102 392.802,104.24 "/>
<path fill="#1A1919" d="M443.8253,48.3793l-0.2036-0.2037c0,0-2.6432-2.6452-5.2864,0L426.9621,59.56l-22.3228-3.9224
	c-0.7076-0.0991-1.4221,0.1264-1.9446,0.6138l-1.0176,1.0186c0,0-1.8291,1.83,0.5253,2.9039l16.58,7.57l-7.6243,7.6328
	l-8.114-2.0267c-0.2595-0.0554-0.5296,0.0196-0.7234,0.2009l-0.6986,0.6992c-0.4373,0.3687-0.493,1.0221-0.1244,1.4594
	c0.0946,0.1122,0.212,0.2031,0.3444,0.2665l8.9033,5.2354c0.0105,0.0046,0.0205,0.0101,0.03,0.0165l0.055,0.0523
	c0.011,0.022,0.0193,0.0413,0.0193,0.0413l5.1351,8.8054c0.2431,0.5143,0.8571,0.7341,1.3714,0.491
	c0.1351-0.0639,0.2546-0.1563,0.3504-0.271l0.6986-0.6992c0.1812-0.194,0.2561-0.4643,0.2008-0.7239l-1.9969-8.0182l7.641-7.6456
	l7.5226,16.507c1.0727,2.3562,2.9045,0.5257,2.9045,0.5257l1.0149-1.0184c0.4874-0.5231,0.7137-1.2378,0.6161-1.9461l-3.9-22.2324
	L443.8253,53.67c0,0,2.6432-2.6452,0-5.29"/>
<g>
	<path fill="#1A1919" d="M242.4583,130.7428c0.5086,0.001,0.9967-0.2008,1.3561-0.5608c4.2419-4.2449,11.1218-4.2474,15.3668-0.0054
		c0.0018,0.0018,0.0036,0.0036,0.0054,0.0054c0.7524,0.7449,1.9662,0.7388,2.711-0.0135c0.7401-0.7475,0.7396-1.9517-0.0011-2.6986
		c-5.7418-5.7419-15.0512-5.7421-20.7931-0.0003c-0.0001,0.0001-0.0002,0.0002-0.0003,0.0003
		c-0.7489,0.7482-0.7495,1.9619-0.0013,2.7109c0.3598,0.3602,0.8482,0.5624,1.3574,0.5621"/>
	<path fill="#1A1919" d="M268.4438,122.0067c-9.3644-9.3423-24.5236-9.3423-33.8879,0c-0.7454,0.7513-0.7406,1.9646,0.0106,2.71
		c0.7471,0.7413,1.9522,0.7413,2.6993,0c7.8675-7.8463,20.6007-7.8463,28.4682,0c0.7513,0.7454,1.9646,0.7406,2.71-0.0106
		c0.7413-0.7471,0.7413-1.9522,0-2.6993 M259.7151,145.0824c-0.9074,0-1.643-0.7356-1.643-1.643c0-0.9074,0.7356-1.643,1.643-1.643
		c0.9074,0,1.643,0.7356,1.643,1.643C261.3578,144.3467,260.6224,145.0821,259.7151,145.0824 M262.4535,139.0579h-9.3105v-7.1197
		c-0.0006-0.9074-0.7367-1.6425-1.6441-1.6419c-0.9065,0.0006-1.6413,0.7353-1.6419,1.6419v7.1197h-9.3105
		c-2.4198,0-4.3814,1.9616-4.3814,4.3814s1.9616,4.3814,4.3814,4.3814h21.9069c2.4198,0,4.3814-1.9616,4.3814-4.3814
		S264.8733,139.0579,262.4535,139.0579L262.4535,139.0579"/>
</g>
</svg>
