<svg xmlns="http://www.w3.org/2000/svg" width="64" height="64" viewBox="0 0 64 64">
  <title>map_location</title>
  <g>
    <path d="M32.3445,0C12.3636,0,8,12.1687,8,24.1076a25.2268,25.2268,0,0,0,2.756,11.0207c.6889,1.148,13.55,20.2045,15.6172,23.4188A14.3108,14.3108,0,0,0,28.44,61.3022l.6889,1.148a3.4338,3.4338,0,0,0,5.7416,0c0-.4592,0-.4592.6889-1.148a28.68,28.68,0,0,1,2.0669-2.7552C39.6937,55.3326,56,34.8986,56,24.1076,56,11.9391,52.3253,0,32.3445,0Z" fill="#fff"/>
    <g>
      <path d="M52.7846,23.878c-.23-10.1023-5.7416-20.4341-20.44-20.4341-14.01,0-20.67,10.3319-20.67,20.6637a18.7262,18.7262,0,0,0,2.0669,9.1839C14.89,35.3578,32.3445,60.3838,32.3445,60.3838S49.5693,35.817,50.488,33.7506A22.5778,22.5778,0,0,0,52.7846,23.878Z" fill="#00aeef"/>
      <path d="M32.3438,61.0381l-.3066-.4395c-.7129-1.0225-17.479-25.0664-18.623-27.126A19.118,19.118,0,0,1,11.3,24.1074c0-10.1328,6.5854-21.0386,21.0449-21.0386,14.998,0,20.5859,10.7451,20.8145,20.8008v.0083a22.87,22.87,0,0,1-2.335,10.041c-.916,2.0605-17.4687,25.6758-18.1724,26.68Zm.001-57.2192C18.4009,3.8188,12.05,14.3359,12.05,24.1074a18.3983,18.3983,0,0,0,2.021,9.0039c1.041,1.874,15.9346,23.26,18.2749,26.6182,2.3223-3.3174,16.9727-24.2715,17.8-26.1309a22.1168,22.1168,0,0,0,2.2637-9.7163C52.3008,19.17,50.5342,3.8188,32.3447,3.8188Z"/>
    </g>
    <path d="M32.3445,40.1793A15.7811,15.7811,0,0,1,16.7273,24.5668,15.7811,15.7811,0,0,1,32.3445,8.9543,15.7811,15.7811,0,0,1,47.9617,24.5668,15.7811,15.7811,0,0,1,32.3445,40.1793" fill="#fff"/>
  </g>
</svg>
