<svg xmlns="http://www.w3.org/2000/svg" width="200" height="200" viewBox="0 0 200 200">
  <title>point-move</title>
  <rect width="200" height="200" fill="#fff" opacity="0.01" style="isolation: isolate"/>
  <path d="M142.832,70.529l-.121-.173.012,23.232H131.3565A32.0363,32.0363,0,0,0,106.392,68.64V57.244l23.17-.026-.102-.045L100.01,25,69.767,57.161l-.1671.128,23.228-.026V68.817A32.0341,32.0341,0,0,0,68.6425,93.594H57.328l.032-23.231-.077.083v-.032L25,99.99l32.283,30.345.032-23.174H68.8145A32.0322,32.0322,0,0,0,92.828,131.183v11.496L69.6,142.654l.09.057h-.032L99.229,175l30.339-32.289-23.17-.019V131.3589a32.0338,32.0338,0,0,0,24.7875-24.1979H142.742l.026,23.174.064-.103L175,100.777Z" fill="#fff"/>
</svg>
