<?xml version="1.0" encoding="utf-8"?>
<!-- Generator: Adobe Illustrator 21.0.2, SVG Export Plug-In . SVG Version: 6.00 Build 0)  -->
<svg version="1.1" id="Layer_1" xmlns="http://www.w3.org/2000/svg" xmlns:xlink="http://www.w3.org/1999/xlink" x="0px" y="0px"
	 viewBox="0 0 200 200" style="enable-background:new 0 0 200 200;" xml:space="preserve">
<style type="text/css">
	.st0{opacity:0.5;fill:#FFFFFF;stroke:#777777;stroke-miterlimit:10;enable-background:new    ;}
	.st1{fill:#777777;}
</style>
<title>point-virtual</title>
<circle class="st0" cx="100" cy="100" r="25"/>
<path class="st1" d="M101.8,98.3V87.8c0-1-0.8-1.8-1.8-1.8s-1.8,0.8-1.8,1.8l0,0l0,0v10.5H87.8c-1,0-1.8,0.8-1.8,1.8
	s0.8,1.8,1.8,1.8l0,0h10.5v10.5c0,1,0.8,1.8,1.8,1.8s1.8-0.8,1.8-1.8l0,0v-10.5h10.5c1,0,1.8-0.8,1.8-1.8s-0.8-1.8-1.8-1.8H101.8z"
	/>
</svg>
