<?xml version="1.0" encoding="utf-8"?>
<!-- Generator: Adobe Illustrator 21.0.2, SVG Export Plug-In . SVG Version: 6.00 Build 0)  -->
<svg version="1.1" id="Layer_1" xmlns="http://www.w3.org/2000/svg" xmlns:xlink="http://www.w3.org/1999/xlink" x="0px" y="0px"
	 viewBox="0 0 200 200" style="enable-background:new 0 0 200 200;" xml:space="preserve">
<style type="text/css">
	.st0{fill:#FFFFFF;}
</style>
<g>
	<path d="M100,195.5c-52.7,0-95.5-42.8-95.5-95.5S47.3,4.5,100,4.5c52.6,0.1,95.4,42.9,95.5,95.5C195.5,152.7,152.7,195.5,100,195.5
		z"/>
	<path class="st0" d="M100,8c50.8,0.1,91.9,41.2,92,92c0,50.8-41.2,92-92,92S8,150.8,8,100S49.2,8,100,8 M100,1L100,1L100,1
		C45.4,1,1,45.4,1,100s44.4,99,99,99s99-44.4,99-99c0-26.4-10.3-51.3-29-70S126.4,1,100,1L100,1z"/>
</g>
<path class="st0" d="M100,174.2c-41,0-74.2-33.2-74.2-74.2S59,25.8,100,25.8S174.2,59,174.2,100C174.1,141,141,174.1,100,174.2z"/>
<path d="M90.8,43.5c-3.7-3.7-9.8-3.7-13.5,0c-1.8,1.8-2.8,4.2-2.8,6.7v99.6c0,5.3,4.3,9.5,9.5,9.5c2.5,0,5-1,6.7-2.8l49.8-49.8
	c3.7-3.7,3.7-9.8,0-13.5c0,0,0,0,0,0L90.8,43.5z"/>
</svg>
