<?xml version="1.0" encoding="utf-8"?>
<!-- Generator: Adobe Illustrator 21.0.2, SVG Export Plug-In . SVG Version: 6.00 Build 0)  -->
<svg version="1.1" id="Layer_1" xmlns="http://www.w3.org/2000/svg" xmlns:xlink="http://www.w3.org/1999/xlink" x="0px" y="0px"
	 viewBox="0 0 200 200" style="enable-background:new 0 0 200 200;" xml:space="preserve">
<style type="text/css">
	.st0{fill:#FFFFFF;}
</style>
<g>
	<path d="M100,195c-52.4,0-95-42.6-95-95S47.6,5,100,5c52.3,0.1,94.9,42.7,95,95C195,152.4,152.4,195,100,195z"/>
	<path class="st0" d="M100,8c50.8,0.1,91.9,41.2,92,92c0,50.8-41.2,92-92,92S8,150.8,8,100S49.2,8,100,8 M100,2L100,2L100,2
		C46,2,2,46,2,100s44,98,98,98s98-44,98-98c0-26.2-10.2-50.8-28.7-69.3S126.2,2,100,2L100,2z"/>
</g>
<rect x="52" y="52" class="st0" width="96" height="96"/>
</svg>
