# Blender v2.74 (sub 0) OBJ File: ''
# www.blender.org
mtllib arrow.mtl
o icon_positionArrow.001_icon_positionArrow
v 5.053950 -0.000000 6.367840
v 5.053950 -0.000000 6.471270
v 5.015800 -0.000000 6.605130
v 4.514440 -0.000000 6.891090
v 4.912260 -0.000000 6.757240
v 4.367300 -0.000000 6.836330
v 4.165670 -0.000000 6.745070
v 3.511720 -0.000000 6.386090
v 4.476290 -0.000000 4.645980
v -4.679020 -0.000000 5.467360
v -2.831610 -0.000000 0.204433
v -2.891550 -0.000000 6.075790
v -0.264850 0.000000 -6.968970
v 0.291008 0.000000 -6.920300
v -0.330245 0.000000 -6.902040
v 0.045777 0.000000 -7.096740
v 0.138420 0.000000 -7.054150
v -0.046866 0.000000 -7.084570
v -0.406540 0.000000 -6.774270
v 0.416349 0.000000 -6.713430
v -0.510082 0.000000 -6.543070
v 0.519891 0.000000 -6.488310
v 0.645232 0.000000 -6.184090
v -0.842507 0.000000 -5.618250
v 0.988556 0.000000 -5.283620
v 2.923160 -0.000000 0.167927
v -4.820710 -0.000000 5.899350
v -3.610900 -0.000000 6.489530
v -4.946050 -0.000000 6.367840
v -4.139510 -0.000000 6.769400
v -4.373840 -0.000000 6.878920
v -4.946050 -0.000000 6.465190
v -4.629970 -0.000000 6.878920
v -4.907900 -0.000000 6.635550
v -4.798910 -0.000000 6.793740
v -4.466490 -0.000000 6.897180
v 0.029428 -0.000000 4.299170
v 4.770570 -0.000000 6.860670
v 4.650680 -0.000000 6.903260
v 5.015800 3.000000 6.605130
v 5.053950 3.000000 6.471270
v 5.053950 3.000000 6.367840
v 4.912260 3.000000 6.757240
v 4.514440 3.000000 6.891090
v 4.367300 3.000000 6.836330
v 4.476290 3.000000 4.645980
v 3.511720 3.000000 6.386090
v 4.165670 3.000000 6.745070
v -2.891550 3.000000 6.075790
v -2.831610 3.000000 0.204433
v -4.679020 3.000000 5.467360
v -0.330245 3.000000 -6.902040
v 0.291008 3.000000 -6.920300
v -0.264850 3.000000 -6.968970
v -0.046866 3.000000 -7.084570
v 0.138420 3.000000 -7.054150
v 0.045777 3.000000 -7.096740
v -0.406540 3.000000 -6.774270
v 0.416349 3.000000 -6.713430
v -0.510082 3.000000 -6.543070
v 0.519891 3.000000 -6.488310
v 0.645232 3.000000 -6.184090
v -0.842507 3.000000 -5.618250
v 0.988556 3.000000 -5.283620
v 2.923160 3.000000 0.167927
v -3.610900 3.000000 6.489530
v -4.820710 3.000000 5.899350
v -4.373840 3.000000 6.878920
v -4.139510 3.000000 6.769400
v -4.946050 3.000000 6.367840
v -4.907900 3.000000 6.635550
v -4.629970 3.000000 6.878920
v -4.946050 3.000000 6.465190
v -4.798910 3.000000 6.793740
v -4.466490 3.000000 6.897180
v 0.029428 3.000000 4.299170
v 4.770570 3.000000 6.860670
v 4.650680 3.000000 6.903260
vn -0.000000 -1.000000 -0.000000
vn 0.000000 1.000000 0.000000
vn 0.589600 0.000000 0.807700
vn 0.826700 0.000000 0.562700
vn 0.961700 0.000000 0.274100
vn 1.000000 0.000000 0.000000
vn 0.948100 0.000000 -0.318100
vn 0.944800 0.000000 -0.327700
vn 0.942400 0.000000 -0.334400
vn 0.934400 0.000000 -0.356300
vn 0.924600 0.000000 -0.380900
vn 0.908500 0.000000 -0.417900
vn 0.855300 0.000000 -0.518200
vn 0.659400 0.000000 -0.751800
vn 0.417700 0.000000 -0.908600
vn -0.130200 0.000000 -0.991500
vn -0.468500 0.000000 -0.883500
vn -0.715300 0.000000 -0.698900
vn -0.858600 0.000000 -0.512700
vn -0.912700 0.000000 -0.408700
vn -0.941100 0.000000 -0.338300
vn -0.946300 0.000000 -0.323300
vn -0.943600 0.000000 -0.331200
vn -0.950200 0.000000 -0.311700
vn -0.966000 0.000000 -0.258500
vn -1.000000 0.000000 0.000000
vn -0.975800 0.000000 0.218500
vn -0.823500 0.000000 0.567400
vn -0.450200 0.000000 0.892900
vn -0.111000 0.000000 0.993800
vn 0.193400 0.000000 0.981100
vn 0.423400 0.000000 0.905900
vn 0.467900 0.000000 0.883800
vn 0.498600 0.000000 0.866800
vn 0.519700 0.000000 0.854400
vn -0.514100 0.000000 0.857800
vn -0.481200 0.000000 0.876600
vn -0.412300 0.000000 0.911000
vn -0.348800 0.000000 0.937200
vn -0.089000 0.000000 0.996000
vn 0.334800 0.000000 0.942300
vn 0.334700 0.000000 0.942300
usemtl dfff00
s 1
f 1//1 2//1 3//1
f 4//1 1//1 5//1
f 1//1 3//1 5//1
f 4//1 6//1 1//1
f 7//1 8//1 9//1
f 10//1 11//1 12//1
f 13//1 14//1 15//1
f 16//1 17//1 18//1
f 18//1 17//1 13//1
f 13//1 17//1 14//1
f 15//1 14//1 19//1
f 19//1 14//1 20//1
f 21//1 19//1 20//1
f 22//1 21//1 20//1
f 22//1 23//1 21//1
f 21//1 23//1 24//1
f 24//1 23//1 25//1
f 11//1 24//1 25//1
f 26//1 11//1 25//1
f 27//1 10//1 28//1
f 29//1 30//1 31//1
f 32//1 33//1 34//1
f 34//1 33//1 35//1
f 32//1 29//1 33//1
f 33//1 29//1 36//1
f 36//1 29//1 31//1
f 29//1 27//1 30//1
f 9//1 8//1 37//1
f 30//1 27//1 28//1
f 28//1 10//1 12//1
f 12//1 11//1 37//1
f 9//1 37//1 26//1
f 37//1 11//1 26//1
f 7//1 9//1 1//1
f 6//1 7//1 1//1
f 4//1 5//1 38//1
f 39//1 4//1 38//1
f 40//2 41//2 42//2
f 43//2 42//2 44//2
f 43//2 40//2 42//2
f 42//2 45//2 44//2
f 46//2 47//2 48//2
f 49//2 50//2 51//2
f 52//2 53//2 54//2
f 55//2 56//2 57//2
f 54//2 56//2 55//2
f 53//2 56//2 54//2
f 58//2 53//2 52//2
f 59//2 53//2 58//2
f 59//2 58//2 60//2
f 59//2 60//2 61//2
f 60//2 62//2 61//2
f 63//2 62//2 60//2
f 64//2 62//2 63//2
f 64//2 63//2 50//2
f 64//2 50//2 65//2
f 66//2 51//2 67//2
f 68//2 69//2 70//2
f 71//2 72//2 73//2
f 74//2 72//2 71//2
f 72//2 70//2 73//2
f 75//2 70//2 72//2
f 68//2 70//2 75//2
f 69//2 67//2 70//2
f 76//2 47//2 46//2
f 66//2 67//2 69//2
f 49//2 51//2 66//2
f 76//2 50//2 49//2
f 65//2 76//2 46//2
f 65//2 50//2 76//2
f 42//2 46//2 48//2
f 42//2 48//2 45//2
f 77//2 43//2 44//2
f 77//2 44//2 78//2
f 5//3 77//3 38//3
f 5//3 43//3 77//3
f 3//4 43//4 5//4
f 3//4 40//4 43//4
f 2//5 40//5 3//5
f 2//5 41//5 40//5
f 1//6 41//6 2//6
f 1//6 42//6 41//6
f 9//7 42//7 1//7
f 9//7 46//7 42//7
f 26//8 46//8 9//8
f 26//8 65//8 46//8
f 25//9 65//9 26//9
f 25//9 64//9 65//9
f 23//10 64//10 25//10
f 23//10 62//10 64//10
f 22//11 62//11 23//11
f 22//11 61//11 62//11
f 20//12 61//12 22//12
f 20//12 59//12 61//12
f 14//13 59//13 20//13
f 14//13 53//13 59//13
f 17//14 53//14 14//14
f 17//14 56//14 53//14
f 16//15 56//15 17//15
f 16//15 57//15 56//15
f 18//16 57//16 16//16
f 18//16 55//16 57//16
f 13//17 55//17 18//17
f 13//17 54//17 55//17
f 15//18 54//18 13//18
f 15//18 52//18 54//18
f 19//19 52//19 15//19
f 19//19 58//19 52//19
f 21//20 58//20 19//20
f 21//20 60//20 58//20
f 24//21 60//21 21//21
f 24//21 63//21 60//21
f 11//22 63//22 24//22
f 11//22 50//22 63//22
f 10//23 50//23 11//23
f 10//23 51//23 50//23
f 27//24 51//24 10//24
f 27//24 67//24 51//24
f 29//25 67//25 27//25
f 29//25 70//25 67//25
f 32//26 70//26 29//26
f 32//26 73//26 70//26
f 34//27 73//27 32//27
f 34//27 71//27 73//27
f 35//28 71//28 34//28
f 35//28 74//28 71//28
f 33//29 74//29 35//29
f 33//29 72//29 74//29
f 36//30 72//30 33//30
f 36//30 75//30 72//30
f 31//31 75//31 36//31
f 31//31 68//31 75//31
f 30//32 68//32 31//32
f 30//32 69//32 68//32
f 28//33 69//33 30//33
f 28//33 66//33 69//33
f 12//34 66//34 28//34
f 12//34 49//34 66//34
f 37//35 49//35 12//35
f 37//35 76//35 49//35
f 8//36 76//36 37//36
f 8//36 47//36 76//36
f 7//37 47//37 8//37
f 7//37 48//37 47//37
f 6//38 48//38 7//38
f 6//38 45//38 48//38
f 4//39 45//39 6//39
f 4//39 44//39 45//39
f 39//40 44//40 4//40
f 39//40 78//40 44//40
f 38//41 78//42 39//41
f 38//41 77//42 78//42
