<svg xmlns="http://www.w3.org/2000/svg" width="16" height="16" viewBox="0 0 16 16">
  <g transform="translate(3)">
    <path d="M8.5,14.5 L8.5,3.5 L7,3.5 L3,3.5 L1.5,3.5 L1.5,14.5 L8.5,14.5 Z M8.5,2 C10,2 10,3.5 10,3.5 L10,14.5 C10,16 8.5,16 8.5,16 L1.5,16 C0,16 0,14.5 0,14.5 L0,3.5 C0,2 1.5,2 1.5,2 L3,2 L3,0.839 C3,0 3.839,0 3.839,0 L6.16,0 C7,0 7,0.839 7,0.839 L7,2 L8.5,2 Z"/>
    <polygon points="2.5 13.5 7.5 13.5 7.5 12 2.5 12"/>
    <polygon points="2.5 11 7.5 11 7.5 9.5 2.5 9.5"/>
    <polygon points="2.5 8.5 7.5 8.5 7.5 7 2.5 7"/>
  </g>
</svg>
