<svg xmlns="http://www.w3.org/2000/svg" width="16" height="16" viewBox="0 0 16 16">
  <title>icon_fm_manual</title>
  <path d="M13.75,1A2.2444,2.2444,0,0,0,13,5.3618V7.5H8.75V5.3618a2.25,2.25,0,1,0-1.5,0V7.5H3V5.3618a2.25,2.25,0,1,0-1.5,0v5.2764a2.25,2.25,0,1,0,1.5,0V9H7.25v1.6382a2.25,2.25,0,1,0,1.5,0V9h5a.75.75,0,0,0,.75-.75V5.3618A2.2444,2.2444,0,0,0,13.75,1ZM2.25,2.5a.75.75,0,1,1-.75.75A.7508.7508,0,0,1,2.25,2.5Zm0,11A.75.75,0,1,1,3,12.75.7508.7508,0,0,1,2.25,13.5ZM8,2.5a.75.75,0,1,1-.75.75A.7508.7508,0,0,1,8,2.5Zm0,11a.75.75,0,1,1,.75-.75A.7508.7508,0,0,1,8,13.5ZM13.75,4a.75.75,0,1,1,.75-.75A.7508.7508,0,0,1,13.75,4Z"/>
</svg>
