<svg xmlns="http://www.w3.org/2000/svg" width="32" height="32" viewBox="0 0 32 32"><title>icon_box</title><polygon points="26.063 20.276 22.208 21.239 22.208 25.576 26.063 24.612 26.063 20.276"/><path d="M31.8469,6.9225,17.8713,1,15.9439,8.1709,12.5983,9.2315,1,3.9994l3.8772,8.0438c-.01,1.6817-.0158,10.6713-.0158,10.6713a4.8993,4.8993,0,0,0,2.5852,4.1532L14.69,30.49a5.6723,5.6723,0,0,0,2.32.51,4.6046,4.6046,0,0,0,1.2687-.1731l8.88-2.5372a3.8673,3.8673,0,0,0,2.7585-3.6769V14.9521a3.6321,3.6321,0,0,0-.1918-.9464ZM6.0463,8.92l7.944,3.5828.9122,2.6437c-.0641-.0284-.1384-.0394-.2008-.0706,0,0-7.4107-3.6832-7.4764-3.7085Zm9.1748,19.1418L8.5242,24.7124a2.4736,2.4736,0,0,1-1.2536-2.0272V14.0524L13.6231,17.23a6.8978,6.8978,0,0,0,1.598.5626Zm12.2872-3.4487a1.4382,1.4382,0,0,1-1.0315,1.3665L17.63,28.5063V17.9453a7.5288,7.5288,0,0,0,1.312-.2189l8.5659-2.4478Zm.3071-12.6254-9.283-4.1665L19.48,4.2986l9.4395,4.0007Z"/></svg>