<svg xmlns="http://www.w3.org/2000/svg" width="32" height="32" viewBox="0 0 32 32"><title>icon_rtk-0</title><path d="M20.8513,6.8779,22.5269,4.835A17.4224,17.4224,0,0,0,18.48,2.8364l-.31,2.779A11.2105,11.2105,0,0,1,20.8513,6.8779Z"/><path d="M15.6774,2.1792a18.5773,18.5773,0,0,0-3.39-.1613,1.379,1.379,0,0,0,.169,2.7527,10.974,10.974,0,0,1,2.9847.1256Z"/><path d="M20.6174,10.3481A11.4183,11.4183,0,0,0,17.91,8.6041l-.2483,2.8529a6.5421,6.5421,0,0,1,2.02,1.82l2.7355-.923A8.452,8.452,0,0,0,20.6174,10.3481Z"/><path d="M24.8293,6.5433,23.1537,8.5862A13.9471,13.9471,0,0,1,25.3,11.3075l2.5269-.8729A16.57,16.57,0,0,0,24.8293,6.5433Z"/><path d="M26.5616,14.0194a11.5012,11.5012,0,0,1,.712,3.5533l-.0118.1359A1.4858,1.4858,0,0,0,28.7153,19,1.4534,1.4534,0,0,0,30,17.5387a19.538,19.538,0,0,0-.9113-4.3922Z"/><path d="M24.08,17.4972a7.3167,7.3167,0,0,0-.4629-2.5048l-2.527.8729a10.5933,10.5933,0,0,1,.3371,1.6039l-.0119.1359a1.4858,1.4858,0,0,0,1.4536,1.2914,1.2751,1.2751,0,0,0,1.2158-1.331C24.084,17.5427,24.0825,17.52,24.08,17.4972Z"/><path d="M15.0457,7.8731a5.0229,5.0229,0,0,0-1.7685-.0187,1.4882,1.4882,0,0,0-1.2846,1.4613,1.3339,1.3339,0,0,0,1.3184,1.28l.0734-.062a5.005,5.005,0,0,1,1.4248.0569Z"/><path d="M9.4981,18.7746A16.5425,16.5425,0,0,1,3,17.5321V20.329a13.1344,13.1344,0,0,0,6.4981,1.4341,12.5567,12.5567,0,0,0,6.4982-1.4711V17.521A16.8348,16.8348,0,0,1,9.4981,18.7746Zm3.52,1.9688A.8127.8127,0,1,1,13.83,19.93v.0005h0a.8128.8128,0,0,1-.8122.8124Z"/><path d="M15.8222,16.8855C15.16,15.8074,12.5805,15,9.4981,15,6.399,15,3.81,15.8164,3.165,16.9035a13.8738,13.8738,0,0,0,6.3331,1.3293A13.5976,13.5976,0,0,0,15.8222,16.8855Z"/><path d="M8.2835,23.29,4.9664,26.607a.6817.6817,0,0,0,.9638.9644l2.3533-2.3536Z"/><path d="M14.029,26.6077l-3.3035-3.3051v1.9261l2.3416,2.3427a.6809.6809,0,1,0,.9622-.9636h0Z"/><path d="M10.184,22.7607l-.195-.1949a.6777.6777,0,0,0-.4814-.1987l-.0091.0015-.01-.0015a.68.68,0,0,0-.4816.1987l-.1822.1822v1.9292l.0009-.0009v4.6362a.6793.6793,0,0,0,1.3585.0164V29.32Z"/></svg>