<svg xmlns="http://www.w3.org/2000/svg" width="32" height="32" viewBox="0 0 32 32"><title>icon_hotspot-off</title><path d="M22.9609,15.4342a15.4779,15.4779,0,0,1,2.4037,1.903,1.7705,1.7705,0,1,1-2.5039,2.5039h0a8.86,8.86,0,0,0-2.5039-1.8028Z"/><path d="M13.0454,9.7253A18.1927,18.1927,0,0,0,3.03,14.8333a1.7533,1.7533,0,0,1-2.5039,0,1.7533,1.7533,0,0,1,0-2.5039h0a22.034,22.034,0,0,1,16.3255-6.41Zm12.92,2.7042A17.5828,17.5828,0,0,1,28.97,14.8333a1.7705,1.7705,0,1,0,2.5039-2.5039h0A34.7149,34.7149,0,0,0,28.57,9.8255Z"/><path d="M13.8466,22.5453a2.9745,2.9745,0,1,0,4.2066,4.2066,2.904,2.904,0,0,0,0-4.2066h0a2.9047,2.9047,0,0,0-4.2066,0h0"/><rect x="-0.9737" y="13.0269" width="33.8527" height="3.205" transform="translate(-5.6697 15.6201) rotate(-45.1459)"/></svg>