<?xml version="1.0" encoding="utf-8"?>
<!-- Generator: Adobe Illustrator 18.1.1, SVG Export Plug-In . SVG Version: 6.00 Build 0)  -->
<svg version="1.1" id="Layer_1" xmlns="http://www.w3.org/2000/svg" xmlns:xlink="http://www.w3.org/1999/xlink" x="0px" y="0px"
	 viewBox="0 0 18 18"  width="18" height="18"  enable-background="new 0 0 18 18" xml:space="preserve">
<g>
	<path d="M6.4762,3.9749v-3l-4,4h3C6.4762,4.9749,6.4762,3.9749,6.4762,3.9749z"/>
	<path d="M9.4761,11.8752h1.1436v-0.6426c0-0.7124,0.4248-1.3496,1.083-1.623c0.5993-0.2471,1.2811-0.1233,1.7739,0.2777v-8.912
		H7.4762v3.9996c0,0,0,1-1,1H2.4756v7.5004c0,0.8887,0.5815,1.4775,1.5,1.5h3.8323c-0.2087-0.3158-0.3318-0.6932-0.3318-1.1001
		C7.4761,12.7707,8.3716,11.8752,9.4761,11.8752z"/>
	<path d="M15.3766,13.5168l-2.643-2.642c-0.319-0.319-0.864-0.093-0.864,0.358v1.8925H9.4761c-0.4141,0-0.75,0.3359-0.75,0.75
		s0.3359,0.75,0.75,0.75h2.3935v1.8926c0,0.451,0.545,0.677,0.864,0.358l2.643-2.643
		C15.5736,14.0358,15.5736,13.7148,15.3766,13.5168z"/>
</g>
</svg>
