<svg xmlns="http://www.w3.org/2000/svg" width="32" height="32" viewBox="0 0 32 32"><title>icon_battery_charge</title><path d="M23,4H20V1.7A1.665,1.665,0,0,0,18.3,0H13.7A1.665,1.665,0,0,0,12,1.7V4H9A2.9382,2.9382,0,0,0,6,7V29a2.9382,2.9382,0,0,0,3,3H23a2.9382,2.9382,0,0,0,3-3V7A2.9382,2.9382,0,0,0,23,4Zm0,25H9V7H23Z"/><path d="M10.6,19.1a.6613.6613,0,0,0,.1.6.6047.6047,0,0,0,.6.3h3.1L12,27.8l9.2-10.6a.7549.7549,0,0,0,.1-.8.8222.8222,0,0,0-.6-.4h-3l3.1-6c.1-.2.1-.5-.1-.6A1.0122,1.0122,0,0,0,20,9H14Z"/></svg>