<svg xmlns="http://www.w3.org/2000/svg" width="32" height="32" viewBox="0 0 32 32">
  <title>icon_plan_tool-corridor</title>
  <path d="M27.589,6.74a2.5158,2.5158,0,1,0-3.5057-1.6323L21.014,3.6785l-2.8774,6.18L5.6885,12.829,1.7531,25.351l3.3776,1.0615a2.504,2.504,0,1,0,3.686,1.1585l3.43,1.0781,2.0645-6.569,11.552-2.7567L30.986,8.3215ZM26.5,3A1.5,1.5,0,1,1,25,4.5,1.5016,1.5016,0,0,1,26.5,3ZM6.5,30A1.5,1.5,0,1,1,8,28.5,1.5016,1.5016,0,0,1,6.5,30Zm4.2839-11.7045L8.16,26.6446A2.48,2.48,0,0,0,6.5,26c-.0827,0-.1609.0165-.2416.0244l2.9576-9.4109L21.2975,13.73l3.4641-7.44A2.4885,2.4885,0,0,0,26.5,7c.0494,0,.0956-.0117.1443-.0146l-3.9418,8.4659Z"/>
</svg>
