<svg xmlns="http://www.w3.org/2000/svg" width="32" height="32" viewBox="0 0 32 32">
  <title>icon_remove</title>
  <g>
    <path d="M29.3123,3.8506H20.5412V3.553A1.52,1.52,0,0,0,19.0556,2Q19.0229,2,18.99,2H14.7047a1.5188,1.5188,0,0,0-1.5492,1.488q-.0007.0323,0,.0647v.2976H4.3849A1.3877,1.3877,0,0,0,3,5.2384c0,.7663.6911.7827,1.4556.7827H5.5839L5.37,28.2245S5.6644,31,7.687,31l17.4353-.32a2.7151,2.7151,0,0,0,2.77-2.66q.0012-.0578,0-.1155V5.7012h.4618c.7647,0,1.7753.3748,1.7753-.3915S30.0768,3.8506,29.3123,3.8506Zm-3.1607,24.374H7.687V6.0213H26.1515Z"/>
    <path d="M16.9194,26.3742a1.1552,1.1552,0,0,0,1.154-1.1564h0V9.0278a1.154,1.154,0,1,0-2.308,0h0v16.19a1.1552,1.1552,0,0,0,1.1538,1.1566Z"/>
    <path d="M22.69,26.3742a1.1552,1.1552,0,0,0,1.154-1.1564h0V9.0278a1.154,1.154,0,1,0-2.308,0h0v16.19a1.1552,1.1552,0,0,0,1.1538,1.1566Z"/>
    <path d="M11.1493,26.3742a1.1552,1.1552,0,0,0,1.154-1.1564h0V9.0278a1.154,1.154,0,1,0-2.308,0h0v16.19a1.1552,1.1552,0,0,0,1.1538,1.1566Z"/>
  </g>
</svg>
