<svg xmlns="http://www.w3.org/2000/svg" width="32" height="32" viewBox="0 0 32 32">
  <title>icon_gps_2</title>
  <g>
    <path d="M7,28.1V24a1.9853,1.9853,0,0,1,1.9-2H9a1.9226,1.9226,0,0,1,2,1.9v4.2a1.9853,1.9853,0,0,1-1.9,2H9a2.0059,2.0059,0,0,1-2-2H7"/>
    <path d="M0,28.1H0a1.9226,1.9226,0,0,1,1.9-2H2a2.0059,2.0059,0,0,1,2,2v.1a1.9853,1.9853,0,0,1-1.9,2H2a2.1648,2.1648,0,0,1-2-2.1H0"/>
    <path d="M14,28.1h0a1.8881,1.8881,0,0,1,2-2,2.0738,2.0738,0,0,1,2,2v.1a2.0059,2.0059,0,0,1-2,2,2.3285,2.3285,0,0,1-2-2.1"/>
    <path d="M21,28.1V28a1.9475,1.9475,0,0,1,2.1-1.9A1.8987,1.8987,0,0,1,25,28v.1a2.0025,2.0025,0,0,1-4,0"/>
    <path d="M28,28.1h0a1.9442,1.9442,0,0,1,2-2,2.0059,2.0059,0,0,1,2,2h0a2.0059,2.0059,0,0,1-2,2,2.0738,2.0738,0,0,1-2-2"/>
  </g>
</svg>
