<svg xmlns="http://www.w3.org/2000/svg" width="32" height="32" viewBox="0 0 32 32">
  <title>icon_RTK</title>
  <g>
    <path d="M16,8.5514A33.0955,33.0955,0,0,1,3,6.0656v5.5955A26.275,26.275,0,0,0,16,14.53a25.1211,25.1211,0,0,0,13-2.9429V6.0434A33.6784,33.6784,0,0,1,16,8.5514ZM23.0416,12.49a1.6258,1.6258,0,1,1,1.6249-1.6258h0a1.626,1.626,0,0,1-1.625,1.6252Z"/>
    <path d="M28.6517,4.7721C27.3273,2.6152,22.1665,1,16,1c-6.2,0-11.38,1.6332-12.67,3.8081A27.7561,27.7561,0,0,0,16,7.4675,27.2041,27.2041,0,0,0,28.6517,4.7721Z"/>
  </g>
  <g>
    <path d="M13.57,17.5837,6.934,24.2207A1.3637,1.3637,0,0,0,8.8621,26.15L13.57,21.4415Z"/>
    <path d="M25.0644,24.2221,18.4555,17.61v3.8533L23.14,26.15a1.3621,1.3621,0,0,0,1.9249-1.9277h0Z"/>
    <path d="M17.3721,16.5259l-.39-.39a1.3564,1.3564,0,0,0-.9631-.3975l-.0182.003-.02-.003a1.36,1.36,0,0,0-.9635.3975l-.3645.3645V20.36l.0018-.0018v9.275a1.359,1.359,0,1,0,2.7179.0142Z"/>
  </g>
</svg>
