<svg xmlns="http://www.w3.org/2000/svg" width="32" height="32" viewBox="0 0 32 32">
  <title>icon_spread</title>
  <g>
    <g>
      <circle cx="10" cy="24" r="2"/>
      <circle cx="16" cy="24" r="2"/>
      <circle cx="22" cy="24" r="2"/>
    </g>
    <path d="M9.0918,32H.9082A.957.957,0,0,1,0,31V1A.957.957,0,0,1,.9082,0H9.0918A.9569.9569,0,0,1,10,1a.9569.9569,0,0,1-.9082,1H2V30H9.0918a1.0046,1.0046,0,0,1,0,2Z"/>
    <path d="M22.9082,32h8.1836A.9569.9569,0,0,0,32,31V1a.9569.9569,0,0,0-.9082-1H22.9082A.957.957,0,0,0,22,1a.957.957,0,0,0,.9082,1H30V30H22.9082a1.0046,1.0046,0,0,0,0,2Z"/>
  </g>
</svg>
