<svg xmlns="http://www.w3.org/2000/svg" width="16" height="16" viewBox="0 0 16 16">
  <g fill="#252525" fill-rule="evenodd">
    <path d="M2 6L4 6 4 13 2 13 2 13C.8954305 13 1.3527075e-16 12.1045695 0 11L0 8 0 8C-1.3527075e-16 6.8954305.8954305 6 2 6zM12 6L14 6 14 6C15.1045695 6 16 6.8954305 16 8L16 11 16 11C16 12.1045695 15.1045695 13 14 13L12 13 12 6z"/>
    <path d="M13 7L14 7 14 5 14 5C14 2.23857625 11.7614237-5.07265313e-16 9 0L7 0 7 0C4.23857625 5.07265313e-16 2 2.23857625 2 5L2 7 3 7 3 6 3 6C3 3.790861 4.790861 2 7 2L9 2 9 2C11.209139 2 13 3.790861 13 6L13 7zM8 11C8.71523445 10.9475139 9.38190111 10.9475139 10 11 11.3333333 11.1132205 12.6666667 10.4465538 14 9 14.5086443 9.82468901 14.5086443 10.4913557 14 11 13.2370335 11.7629665 12 13.1693444 10 13 9.38750546 12.9481387 8.72083879 12.9481387 8 13L8 11z"/>
  </g>
</svg>
