<svg xmlns="http://www.w3.org/2000/svg" width="32" height="32" viewBox="0 0 32 32"><title>icon_gnss-1</title><path d="M21.4,25.1l.5,2.7a18.2054,18.2054,0,0,0,4.3-1.9l-2-2.1A11.7146,11.7146,0,0,1,21.4,25.1Z"/><path d="M28.6,24.1A19.4669,19.4669,0,0,0,31,21.5a1.43,1.43,0,0,0-2.3-1.7,11.4962,11.4962,0,0,1-2.1,2.3Z"/><path d="M18.8,22.6a11.9094,11.9094,0,0,0,3.2-1l-2.1-2.1a6.8071,6.8071,0,0,1-2.8.4L16,22.7A8.7839,8.7839,0,0,0,18.8,22.6Z"/><path d="M19,28.5l-.5-2.7a14.4729,14.4729,0,0,1-3.6-.1l-1,2.6A17.1949,17.1949,0,0,0,19,28.5Z"/><path d="M11.9,24.9a11.8731,11.8731,0,0,1-3.3-1.8L8.5,23a1.5461,1.5461,0,0,0-2,.3,1.51,1.51,0,0,0,.3,2,20.1738,20.1738,0,0,0,4.1,2.2Z"/><path d="M10.8,20.6a7.5523,7.5523,0,0,0,2.3,1.3l1-2.6a10.93,10.93,0,0,1-1.5-.8l-.1-.1a1.5461,1.5461,0,0,0-2,.3,1.3251,1.3251,0,0,0,.3,1.9Z"/><path d="M24.5,19.8a5.2626,5.2626,0,0,0,1.2-1.4,1.5461,1.5461,0,0,0-.3-2,1.3874,1.3874,0,0,0-1.9.2v.1a5.2413,5.2413,0,0,1-1,1.1Z"/><polygon points="20.5 13.2 32 11.1 30.6 3 19.1 5.1 19.4 7.1 17.5 7.4 16.8 3.4 13 4 13.7 8 11.9 8.3 11.5 6.2 0 8.3 1.4 16.5 12.9 14.3 12.6 12.3 14.4 12 15.1 16 18.9 15.4 18.2 11.4 20.1 11.1 20.5 13.2"/></svg>