<?xml version="1.0" encoding="utf-8"?>
<!-- Generator: Adobe Illustrator 19.2.0, SVG Export Plug-In . SVG Version: 6.00 Build 0)  -->
<svg version="1.1" id="Layer_1" xmlns="http://www.w3.org/2000/svg" xmlns:xlink="http://www.w3.org/1999/xlink" x="0px" y="0px"
	 viewBox="0 0 18 18"  width="18" height="18" enable-background="new 0 0 18 18" xml:space="preserve">
<path d="M12.5,1.5h-7C4,1.5,4,3,4,3v12c0,1.5,1.5,1.5,1.5,1.5h7C14,16.5,14,15,14,15V3C14,1.5,12.5,1.5,12.5,1.5z M8.186,2.25h1.627
	v1H8.186V2.25z M9,15.5c-0.552,0-1-0.448-1-1s0.448-1,1-1s1,0.448,1,1S9.552,15.5,9,15.5z M12.5,12.5h-7V4h7V12.5z"/>
</svg>
