<svg xmlns="http://www.w3.org/2000/svg" width="32" height="32" viewBox="0 0 32 32"><title>icon_linkbox</title><path d="M7.7362,15.3888a1.7471,1.7471,0,0,0,1.24-.5132,9.931,9.931,0,0,1,14.05,0,1.7518,1.7518,0,1,0,2.4774-2.4774,13.4357,13.4357,0,0,0-19.0067,0,1.7519,1.7519,0,0,0,1.24,2.9906Z"/><path d="M31.4867,7.4041a21.9274,21.9274,0,0,0-30.9734,0A1.7518,1.7518,0,1,0,2.9907,9.8815a18.4227,18.4227,0,0,1,26.0186,0,1.7518,1.7518,0,1,0,2.4774-2.4774Z"/><path d="M26.0117,22.9888h-8.51v-6.507a1.5017,1.5017,0,0,0-3.0034,0v6.507h-8.51a4.0045,4.0045,0,1,0,0,8.009H26.0117a4.0045,4.0045,0,0,0,0-8.009Zm-2.503,5.5062A1.5017,1.5017,0,1,1,25.01,26.9933,1.5022,1.5022,0,0,1,23.5087,28.495Z"/></svg>