<svg xmlns="http://www.w3.org/2000/svg" width="32" height="32" viewBox="0 0 32 32"><title>icon_rc-link-lost</title><path d="M5.9394,11.8787a.75.75,0,1,0-1.0607,1.0606l3.7122,3.7122,1.0607-1.0607Z"/><path d="M27.1213,12.9393a.75.75,0,0,0-1.0607-1.0606l-3.7122,3.7121,1.0607,1.0607Z"/><circle cx="7" cy="26" r="2"/><circle cx="25" cy="26" r="2"/><path d="M29.3005,15H3.2A1.7,1.7,0,0,0,1.5,16.7v12.601A1.7,1.7,0,0,0,3.2,31h26.101a1.7,1.7,0,0,0,1.7-1.7V16.7A1.7,1.7,0,0,0,29.3005,15ZM7,30a4,4,0,1,1,4-4A3.9989,3.9989,0,0,1,7,30Zm12.5-9h-7A1.5,1.5,0,0,1,11,19.5v-1A1.5,1.5,0,0,1,12.5,17h7A1.5,1.5,0,0,1,21,18.5v1A1.5,1.5,0,0,1,19.5,21ZM25,30a4,4,0,1,1,4-4A3.9989,3.9989,0,0,1,25,30Z"/><path d="M19.512,10.1064A.8741.8741,0,0,0,20.7483,8.87a6.6961,6.6961,0,0,0-1.9392-1.3461L16.97,8.7473A4.9242,4.9242,0,0,1,19.512,10.1064Z"/><path d="M8.2783,6.3782A.8741.8741,0,0,0,9.5145,7.6144h0a9.14,9.14,0,0,1,6.23-2.6713L18.091,3.3819A10.9254,10.9254,0,0,0,8.2783,6.3782Z"/><path d="M22.4977,7.6144a.8741.8741,0,1,0,1.2362-1.2362,10.9157,10.9157,0,0,0-1.4221-1.1846L20.73,6.2464A9.1371,9.1371,0,0,1,22.4977,7.6144Z"/><path d="M22.388,2.0427,9.8605,10.4285a.2525.2525,0,0,0-.07.35l.4422.6647a.2523.2523,0,0,0,.3505.07L23.1114,3.1273a.2524.2524,0,0,0,.07-.35l-.4426-.6651A.2523.2523,0,0,0,22.388,2.0427Z"/></svg>