<svg xmlns="http://www.w3.org/2000/svg" width="32" height="32" viewBox="0 0 32 32"><title>icon_width</title><path d="M1,16.9976a.9994.9994,0,0,1,1,1v10a1,1,0,0,1-2,0v-10A.9994.9994,0,0,1,1,16.9976Z"/><path d="M31,16.9976a.9994.9994,0,0,1,1,1v10a1,1,0,1,1-2,0v-10A.9994.9994,0,0,1,31,16.9976Z"/><path d="M10,28.0293V25H22v3.0293a.8552.8552,0,0,0,1.4717.6865l6.2754-5.0327a1.0511,1.0511,0,0,0,0-1.3672L23.47,17.2808a.8545.8545,0,0,0-1.47.6855V21H10V17.9663a.8545.8545,0,0,0-1.47-.6855L2.252,22.3159a1.0509,1.0509,0,0,0,0,1.3672l6.2763,5.0327A.855.855,0,0,0,10,28.0293Z"/><path d="M30,13H2V5H30v8m2-.0132V5.0083A2.0057,2.0057,0,0,0,29.9951,3H2.0039A2.0061,2.0061,0,0,0,0,5.0083v7.9785A2.01,2.01,0,0,0,2.0039,15H29.9951A2.0087,2.0087,0,0,0,32,12.9883Z"/></svg>