<svg xmlns="http://www.w3.org/2000/svg" width="16" height="16" viewBox="0 0 16 16">
  <path d="M8,13.6 C6.70733333,13.6 5.52013333,13.1557333 4.57093333,12.4174667 L12.4174667,4.57093333 C13.1557333,5.5192 13.6,6.70733333 13.6,8 C13.6,11.0884 11.0884,13.6 8,13.6 M2.4,8 C2.4,4.9116 4.9116,2.4 8,2.4 C9.29173333,2.4 10.4789333,2.84426667 11.4281333,3.5816 L3.5816,11.4281333 C2.84426667,10.4798667 2.4,9.29173333 2.4,8 M8,1 C4.13973333,1 1,4.13973333 1,8 C1,11.8602667 4.13973333,15 8,15 C11.8602667,15 15,11.8602667 15,8 C15,4.13973333 11.8602667,1 8,1"/>
</svg>
