<svg xmlns="http://www.w3.org/2000/svg" width="32" height="32" viewBox="0 0 32 32">
  <title>icon_resolution</title>
  <path d="M17.6016,10A4.4008,4.4008,0,0,1,22,14.4V27.6016a4.3679,4.3679,0,0,1-.7189,2.3974h4.32A4.4028,4.4028,0,0,0,30,25.6006V6.3984a4.4044,4.4044,0,0,0-4.3984-4.4H6.3994A4.4051,4.4051,0,0,0,2,6.3984v4.32A4.3679,4.3679,0,0,1,4.3984,10Z" fill="none"/>
  <path d="M2.4,20H9.6A2.4,2.4,0,0,1,12,22.4023v7.1993a2.3889,2.3889,0,0,1-.04.3974h5.6513A2.4009,2.4009,0,0,0,20,27.6016V14.4A2.4036,2.4036,0,0,0,17.6016,12H4.3984A2.4035,2.4035,0,0,0,2,14.4v5.64A2.3912,2.3912,0,0,1,2.4,20Z" fill="none"/>
  <path d="M25.6016-.001H6.3994A6.4,6.4,0,0,0,0,6.3984V27.6016A4.4016,4.4016,0,0,0,4.3984,32H17.6016l.01-.001h7.99A6.4,6.4,0,0,0,32,25.6006V6.3984A6.4,6.4,0,0,0,25.6016-.001Zm-8,30.001L11.96,29.999a2.3889,2.3889,0,0,0,.04-.3974V22.4023A2.4,2.4,0,0,0,9.6,20H2.4a2.3912,2.3912,0,0,0-.4.04V14.4A2.4035,2.4035,0,0,1,4.3984,12H17.6016A2.4036,2.4036,0,0,1,20,14.4V27.6016a2.4009,2.4009,0,0,1-2.3888,2.3974ZM30,25.6006a4.4028,4.4028,0,0,1-4.3984,4.3984h-4.32A4.3679,4.3679,0,0,0,22,27.6016V14.4A4.4008,4.4008,0,0,0,17.6016,10H4.3984A4.3679,4.3679,0,0,0,2,10.7186v-4.32a4.4051,4.4051,0,0,1,4.3994-4.4H25.6016A4.4044,4.4044,0,0,1,30,6.3984Z"/>
</svg>
