<svg xmlns="http://www.w3.org/2000/svg" width="32" height="32" viewBox="0 0 32 32"><title>icon_oa-off</title><path d="M7.5313,3.6176q-.56.3836-1.0814.8148h0l-.0083.0068-.0006,0-.0164.0136-.0013.0011-.0161.0134-.0013.0011-.0078.0064,0,0-.008.0067-.0015.0012-.0069.0059L6.38,4.49l-.0078.0066-.0015.0012-.0065.0055-.0017.0014-.0077.0065-.0012.001-.0066.0055L6.3452,4.52l-.0073.0061,0,0L6.33,4.5325l-.0027.0023-.0052.0043L6.32,4.5413l-.0069.0059L6.31,4.55l-.0046.0039-.0031.0027-.0067.0056-.003.0026-.0045.0038-.0035.003L6.28,4.575,6.2748,4.58l-.004.0033-.0037.0032-.0039.0034-.0058.0049-.0039.0033-.0041.0035-.0033.0029-.0038.0032-.0062.0054L6.232,4.616l-.0032.0028-.0042.0036-.0024.0021-.0079.0068-.0027.0023-.0045.0039-.0022.0019-.0086.0074-.0019.0017-.0051.0043-.0012.0011-.0162.0141L6.17,4.6693l-.0161.014-.0014.0011-.0053.0047h0l-.0112.01L6.1356,4.7,6.13,4.7044v0L6.1124,4.72h0l-.0173.0153,0,0-.0171.0151,0,0q-.5268.465-1.0084.9774l-.0007.0007-.0369.0394,0,0-.0154.0166-.0006.0006-.0152.0163-.0008.0009-.0146.0157-.0014.0016-.0045.0049-.0012.0012-.0094.01,0,.0005-.0046.005-.0016.0016L4.9467,5.86l-.0014.0016-.0141.0154L4.93,5.8783l-.0045.005-.0011.0011-.0082.009-.0019.0021L4.91,5.9l-.002.0022L4.9,5.9106l-.0017.002-.0042.0046-.002.0022-.0133.0146-.0024.0027-.0039.0043-.0021.0022-.007.0078-.0025.0027-.0037.0042-.0026.0029-.0066.0073-.0025.0028-.0037.0041-.0026.0029-.0062.0069L4.83,5.988l-.0035.0039-.003.0033L4.82,5.9991l-.0056.0062-.003.0034-.0033.0037-.0034.0038L4.8012,6.02l-.0046.0052-.0035.004L4.79,6.0332l-.0035.0039-.0047.0054-.0037.0041L4.7747,6.05l-.0037.0041-.0027.0031-.0058.0065L4.76,6.0671l-.0041.0046-.0024.0028-.006.0067-.0025.0028-.0041.0047-.0026.003-.0059.0067L4.7306,6.1l-.005.0057-.0026.0029-.0043.005-.0026.0029-.0056.0064-.0024.0027-.0044.0051-.0022.0025-.0061.007-.0021.0024-.0046.0052-.0023.0026-.006.007L4.6785,6.16l-.0047.0055-.0023.0026-.0053.0062-.0022.0024-.005.0059-.0025.0029-.005.0057L4.65,6.1924,4.6437,6.2l-.0017.002-.0053.0061L4.6352,6.21l-.0064.0075-.0014.0016-.0054.0063L4.62,6.2269l-.0066.0077-.0006.0007-.006.0071-.0016.0018-.0064.0075,0,0L4.5924,6.26l-.0015.0018-.0058.0068-.0009.001-.0066.0078-.0012.0014-.0059.0069-.001.0012-.0067.0079-.0009.001-.0059.0069-.0013.0016-.0131.0155-.0017.002-.0063.0074,0,0-.0067.0081-.0012.0013-.0061.0073-.0006.0007-.0067.008-.0011.0012-.006.0072-.0009.001-.0068.0082,0,0L4.4905,6.38l-.0008.001-.0136.0162-.0012.0014-.0064.0078,0,0-.0067.0081-.0011.0012-.0059.0072-.0009.001-.0068.0083,0,0L4.44,6.4406l-.0009.0011-.0134.0161-.0012.0015-.0134.0162-.0008.001-.0136.0166-.0007.0008-.0065.008,0,0-.0071.0086h0l-.0067.0082L4.375,6.52l-.0137.0169,0,.0005-.0139.0171,0,0-.021.0259,0,0-.0137.017-.0006.0007-.0136.017,0,.0006-.0137.017,0,.0005-.0488.0613v0L4.22,6.7126v0L4.2,6.7388,4.1991,6.74l-.0135.0172,0,0-.0137.0175h0L4.137,6.819v0l-.0136.0175,0,0L4.11,6.8546l0,0-.02.0264,0,0-.0134.0175,0,0-.0132.0174-.0006.0007L4.048,6.935l0,.0007-.0064.0084,0,0-.0066.0087,0,0-.0062.0082-.0005.0007L4.0141,6.98l-.0006.0008-.0129.0172L4,6.9988l-.006.008,0,.0006-.0064.0085-.0007.0009-.0057.0076-.001.0014-.0063.0083,0,.0006-.0058.0078-.0011.0014-.0124.0167-.0012.0016q-.3012.4053-.5756.8316l1.58,1.172.5958-.8031A13.0857,13.0857,0,0,1,7.9628,5.7814l.7855-.6188-1.217-1.545ZM1.6855,11.5039a14.8657,14.8657,0,0,0-.3946,1.5416v0l-.0045.0227h0l-.0022.0111v0l-.0067.034v0l-.0021.0111v.0005l-.0043.0222,0,.0008-.002.0105,0,.0015-.002.0106v0l-.002.0107v.0008l-.002.0105,0,.0015-.0019.01,0,.0016-.002.01h0l-.002.01,0,.0019-.0019.01,0,.002-.0019.01,0,.001-.0017.0094,0,.0021-.0018.01,0,.0024-.0018.01,0,.0017-.0016.0089,0,.002-.0017.01,0,.0025-.0017.01,0,.0021-.0017.0092,0,.0016-.0017.0092,0,.003-.0017.0091,0,.0028-.0016.0095,0,.0018-.0015.0086,0,.0024-.0016.0092-.0006.0032-.0016.009,0,.0028-.0013.0076,0,.0029-.0015.0089-.0006.0034-.0015.0088-.0006.0033-.0013.0075-.0006.0039-.0013.0074-.0006.0036-.0015.0086-.0006.0037-.0013.0074L1.21,13.486l-.0012.0068-.0006.0034-.0014.0085-.0006.0039-.0015.0085-.0006.0038-.001.006-.0009.0053-.0011.007L1.2,13.5431l-.0013.0083-.0007.0041-.001.0062-.001.0059-.0009.0059-.0008.0044-.0012.0079-.0008.0044-.0011.0068-.0008.0055-.0009.0054-.001.0061-.0009.006-.0008.005-.0012.0072-.0008.0051-.0008.0052-.001.0065-.001.006-.0007.0044-.0012.0078L1.18,13.672l-.0009.0058-.001.006-.0008.0057-.0007.0045-.0012.0078-.0008.0047-.0008.0058-.0011.0068-.0007.0049-.001.0065-.0009.0059-.0008.0049-.0011.0076-.0007.0048-.0008.0052-.001.0066-.0008.0056-.0007.0047-.0012.0076-.0007.0051-.0007.005-.0011.0073-.0007.0048-.0009.006-.001.0066-.0007.0049-.0008.0058-.001.0068-.0007.0047-.001.0067-.0008.0056-.0007.0052-.0011.0075L1.15,13.87l-.0008.0054-.001.0069-.0007.0052-.0007.005L1.1458,13.9l-.0007.0054-.0006.0045-.0011.0076-.0007.0048-.0008.0057-.0009.0069L1.14,13.94l-.0008.0061-.0009.0065-.0007.0049-.0009.0071-.0007.0053-.0007.0051-.0011.0077-.0006.0047-.0007.005L1.1322,14l-.0006.0047-.0007.0051-.001.0074-.0007.0054-.0006.0046-.001.0079-.0006.0043-.0011.0084,0,.0042-.0007.0056-.0006.0045L1.123,14.07l0,.0039-.0011.0087,0,.0039-.0007.0056-.0009.0073-.0007.0052,0,.0046-.001.0077-.0006.0049-.0007.0055-.0009.007-.0006.0053-.0007.0052-.0009.0072,0,.0046-.0009.0073-.0007.0053-.0006.0052-.0007.006-.0008.0067-.0006.0046-.0009.0074-.0006.0053-.0006.0049-.0009.0076-.0006.005-.0006.0051-.0009.0074,0,.0048-.0007.0057-.0008.0069L1.1,14.2567,1.1,14.262l-.0009.0076,0,.004-.001.0085,0,.0044-.0006.0053-.0009.0076,0,.005-.0006.005-.0008.0072,0,.005-.0006.0052-.0009.0075,0,.0051-.0006.005-.0008.0077,0,.0045-.0008.007-.0006.0057-.0006.0054,0,.0052-.0008.0073-.0005.0046-.0008.0076,0,.0049-.0006.0054-.0007.0067-.0006.0059-.0005.0048-.0008.0078,0,.0045-.0006.0055-.0007.0073-.0006.0055,0,.0041L1.077,14.47l0,.0045-.0006.0061-.0007.0066,0,.0051-.0006.0062-.0006.0065-.0005.0048-.0008.0075,0,.0051-.0005.0051-.0007.0078,0,.0048,0,.0054-.0007.007,0,.0051,0,.0051-.0008.0076,0,.0051-.0006.0056-.0006.0067-.0005.0056,0,.0054-.0007.007,0,.0048-.0008.008,0,.0044,0,.0058-.0005.006-.0006.0065,0,.0043-.0007.0082,0,.0047-.0006.006,0,.0059,0,.0062,0,.0044-.0007.0082,0,.0044-.0006.0075-.0005.005,0,.0061,0,.0046-.0006.0078,0,.0043-.0007.0084,0,.0042,0,.0061-.0005.0059,0,.0065,0,.0043-.0007.0083,0,.0044,0,.0068,0,.0054,0,.0061,0,.0044-.0006.0083,0,.0043-.0006.0082,0,.0042-.0005.0065,0,.0047-.0006.0075,0,.0044-.0007.0084,0,.004-.0006.0072,0,.0042-.0006.0077,0,.0037-.0007.0087,0,.0039-.0006.0082,0,.0038-.0006.0074,0,.0034-.0006.009,0,.0037-.0006.0089,0,.0036,0,.0071,0,.0034-.0006.0088,0,.0037-.0006.009,0,.0033,0,.008,0,.0039-.0005.0079,0,.0034-.0006.0091,0,.0034-.0006.0093v.0026l0,.008,0,.003L1.03,15.047l0,.0032L1.029,15.06l0,.0028,0,.0087v.0019l-.0006.01,0,.0029-.0006.01v.0026l-.0006.0094V15.11l0,.0088,0,.0029-.0005.0093,0,.0035-.0006.0093v.0027l0,.0082v.0027l-.0005.01,0,.0029,0,.01,0,.0029,0,.0083,0,.0028-.0005.0091v.0031l0,.0094,0,.0033,0,.0085,0,.0034,0,.0083v.0028l0,.01,0,.0031,0,.01v.0022l0,.0087v.0025l0,.01,0,.0027,0,.01v.0024l0,.01v.0011l-.0005.01v.0026l0,.01v.0025l0,.01v.0015l0,.0092v.0025l0,.01,0,.0028,0,.01v.0023l0,.0089v.0021l0,.01v.0027l0,.01v.0028l0,.01v.0011l0,.01v.0023l0,.01v.0023l0,.01v.0014l0,.01v.0018l0,.01v.0023l0,.01v.0017l0,.01v.0015l0,.01V15.53l0,.01v.0022l0,.01v.0009l0,.01v.0021l0,.01v.0022l0,.01V15.59l0,.01v.0018l0,.01v.0028l0,.01v.0022l0,.01v.0014l0,.0105V15.65l0,.01v.0023l0,.0105v.0008l0,.01v.0022l0,.01v.0028l0,.01v.0132l0,.01v.0024l0,.01v.002l0,.01v.0011l0,.0106v.0261l0,.01V15.82l0,.01V16H1v.13q.0012.1532.0056.3055l0,.006q.0144.5008.0613.9926l1.9662-.056-.0285-1Q3,16.19,3,16a13.0661,13.0661,0,0,1,.3624-3.0627l.2346-.9721-1.9115-.4613Zm2.072,8.9944-1.7878.819q.1781.4692.3861.9233l.0328.0711,0,.0005.01.02,0,.0011.0091.02.0011.0022.0028.0061,0,0,.006.0128.0008.0017.0029.0062.0009.0019.0053.0112.0009.0019.0028.006.0011.0024.0055.0116.0005.001.0028.0058.0013.0029.0056.0117,0,.0009.0024.005.0018.0038.0023.0049.002.004.0038.008.002.0041.0022.0047.002.0041.004.0083.0016.0035.0025.0051.0018.0037.004.0083.0019.0039.0023.0048.002.0042.0022.0044.0036.0076.0021.0044.0022.0044.0022.0045.0037.0077.0018.0037.0025.0051.002.0041.003.0062.0023.0047.0029.0058.0019.004.0028.0056.002.0042.0034.0069.0019.0038.0027.0055.0017.0036.0039.0078.0019.0038.0026.0054.0017.0035.0041.0082.0015.003.003.0061.0016.0033.0042.0084.0011.0022.0034.0068.0015.003.0039.0079.0005.001.0045.009.0012.0024.0038.0076.0008.0016.0045.0089.0011.0022.0037.0074.001.0021.0046.009.0008.0017.0038.0075.0012.0023.0045.009.0006.0011.0041.0081.0011.0022.0092.0182.0012.0022.0041.0081,0,.0011.0047.0091.001.002.0039.0076.0009.0018.0045.0089.0011.0021.0038.0074.0011.0021.0046.009.0006.0012.0042.0082.001.0017.01.0186.001.0018.0047.0091h0l.0049.0094.0008.0017.0043.0083.0006.0011.005.01,0,0,.0048.0091,0,.0011.005.01,0,0,.0047.009.0008.0015.01.0188.0007.0013.005.0094h0l.0048.0092.001.0019L2.73,23,2.73,23l.0051.0095.0005.001.0048.0091,0,0,.0052.01h0l.0051.0095,0,.0009.01.0191.0006.0011.01.0191,0,.0007.01.0194,0,.0005.005.0093,0,.0006.0053.01h0l.0052.0095,0,.0007.01.019.0008.0013.01.0188.0006.0011.01.0189,0,.001.005.0091,0,0,.0054.01v0l.0051.0093,0,.0007.0106.0192,0,.0006.0106.0193,0,.0007.0106.0192,0,.0006.0052.0094v0l.0054.01,0,0,.005.009,0,.0008.0107.019,0,.0008.0107.0191,0,.0007.0108.0191,0,.0006.0108.0191,0,.0008.0051.0089,0,.0006.0055.01v0l.0053.0091.0006.0011.0106.0185.0007.0013.0106.0185.0007.0013.0052.0089v0l.0054.0094.0006.001.0048.0084.0007.0012.0053.0093,0,0,.0051.0087.0008.0014.0107.0185.0006.0011.0107.0184.0009.0014.0052.009h0l.0055.0094.0006.0009.0053.0092h0l.0056.01,0,0,.0054.009,0,.0007.0109.0186.0007.0012.0109.0184.0007.0012.0053.0089v0l.0055.0092.0007.0012.005.0084,0,.0009.0055.0092.0005.0008.005.0085.0007.001.0055.0093,0,0,.005.0084.0012.0019.0106.0178.001.0016.0108.0179.0009.0016.005.0082,0,.0007.0054.0089.001.0017.0046.0075.001.0017.0053.0086.0008.0015.0047.0076.001.0017.0054.0089,0,0,.0052.0085.0011.0019.0052.0085,0,0,.0054.0088.0011.0018.0048.0078.0006.0011.0055.0089.0008.0014.0046.0075.0012.0018.0053.0086.0009.0014.0046.0075.0012.0019.0054.0088,0,0,.005.0081.0012.002.0108.0173.0013.0022.0048.0077.0006.0009.0053.0085.0015.0023.0042.0068.0012.0019.0054.0086.0009.0015.0046.0074.0012.0018L3.29,23.97l.0007.0012.0048.0075.0013.0021.0108.0172L3.3092,24l.0047.0074.0009.0015.0053.0083.0014.0022.0044.007.0011.0017.0053.0084.0013.002.0041.0065.0017.0027.0052.0081.0011.0018.0042.0065.0018.0028.0049.0077.0013.002.0043.0067.0019.003.0042.0066.0011.0017.0051.0079.0019.0029.0039.0061.0016.0025.005.0077.0019.003.0037.0057.0018.0027.0051.0079.0016.0026.0039.006.0019.0028.0051.0079.0011.0018.0043.0066.0018.0028.0046.0069.0009.0015.0053.0081.0017.0025.0041.0063.0015.0023.0052.008.0016.0024.004.0061.0018.0028.005.0077.0019.0028.0035.0053.0022.0034.005.0076.0017.0025.0037.0056.0023.0035.0042.0063.0016.0024.0045.007.0022.0033.0038.0056.0017.0026.0051.0076.002.0031.0037.0055.0019.0029.005.0075.002.003.0037.0056.002.0029.0051.0076.0018.0027.0037.0056.0021.0032.004.006.0028.004.0038.0057.0023.0034.0035.0052.0022.0032.0047.0071.0024.0036.003.0044.0027.004.0047.007.0024.0035.0032.0046.0024.0036.005.0073.0019.0029.0036.0054.0023.0033.0042.0061.0027.004.0036.0053.0024.0036.0036.0052.0027.0039.0042.0062.0025.0037.0033.0047.0022.0032.005.0073.0024.0036.0031.0045.0026.0037.0048.0071.0025.0035.0031.0045.0026.0038.0038.0055.0032.0046.0035.0051.0025.0036.0031.0045.0041.0059.0031.0046.0028.0039.0031.0044.0024.0036.0049.007.0025.0036.0033.0046.0024.0035.0049.0071.0025.0035.0032.0046.0026.0037.0048.0068.0022.0032.0035.0049.0026.0038.0036.0051.0029.0041.0043.0061L3.73,24.63l.0037.0052.002.0029.005.0071.0026.0037.0032.0045.0025.0035.005.0071.0025.0035.0032.0045.0026.0036.0039.0055.0037.0052.003.0042.0027.0039.0035.0049.0035.0048.0037.0052.0025.0035.0036.005.0023.0032.005.0071.0023.0032.0035.0049.0023.0032.0052.0071.0024.0034.0033.0046.0026.0036.0051.0071.0022.003.0035.0049.0024.0034.0045.0062.0026.0036.0039.0053.0026.0036.0037.0051.002.0028.0052.0071.0024.0033.0037.0052.0021.0027.0053.0073.0023.0032.0036.0049L3.88,24.84l.0052.0072.0022.0029.0038.0052.0023.0032.0044.006.0029.004.0038.0051.0024.0032.0039.0053.003.0042.0042.0057.0025.0034.0035.0047.0024.0032.0052.0071.0024.0032.0036.0049.0024.0031.0054.0073.002.0028.0037.0049.0026.0035.0048.0064.0024.0034.0039.0051.0026.0035.0037.005.0033.0044.0039.0053.0027.0036.0037.0049.0021.0029.0054.0071.0024.0032L3.9987,25l.0022.0029.0054.0072.0022.0029.004.0053.0021.0028.0057.0075.0014.0019.0045.006.0022.0028.0046.0061.0024.0032.0045.0059.0023.0031.0041.0053.0019.0026.0055.0072.0022.0029.0041.0053.0021.0028.0055.0073.002.0026.0042.0054.0021.0028.0056.0073.0019.0025.0041.0054L4.09,25.12l.0058.0076,0,.0007.0054.007.0021.0027.0046.0061.0015.0018.0058.0075.002.0026.0044.0058.0017.0022.0059.0076.0015.002.0049.0063.0016.002.0059.0077.0015.0019.0049.0063.0016.002.0062.008,0,.0006.0058.0074.0015.0019.0125.016.0015.0019.0054.0069.0009.0012.0062.0079.0015.0019.0048.0061.0018.0022.006.0077.0011.0014.0054.0069.0014.0017.0063.008,0,.0005.0059.0075.0014.0018.0128.0161.0013.0016.0062.0079h0l.0065.0082.0012.0014.0057.0073.0008.001.0066.0083L4.27,25.35l.006.0075.001.0012.0066.0083v0l.0065.0081.0009.0011.0133.0165.0009.0011.0066.0082h0l.0068.0085.0005.0006.0207.0256,0,.0005.0139.0171,0,0,.0138.017.0005.0006.0139.017,0,0q.3679.45.7688.8695l1.5092-1.2612L6.0193,24.33a13.012,13.012,0,0,1-1.8453-2.923l-.4165-.9091Zm5.4057,6.6065L8.262,28.8527a14.9068,14.9068,0,0,0,5.6161,1.9984l.4054-1.9243-.9786-.2061A12.9019,12.9019,0,0,1,10.052,27.563l-.8888-.4582Zm13.4812.1164-.8966.4428a12.9037,12.9037,0,0,1-3.2724,1.101l-.982.1891.3719,1.931a14.8948,14.8948,0,0,0,3.7622-.9765h0l.0211-.0086h0l.021-.0086h0l.0209-.0086h0l.0736-.03,0,0,.0206-.0086,0,0,.02-.0086.001,0,.02-.0084.001-.0005.02-.0085.0007,0,.02-.0086.0008,0,.0095-.004.0007,0,.01-.0043.0009,0,.0095-.004.0006,0,.01-.0043.0009,0,.009-.0038.0014-.0006.01-.0043h0l.01-.0041.0012-.0005.01-.0044h0l.01-.0042.0014-.0006.0194-.0084.0016-.0007.0192-.0084.002-.0009.019-.0083.0019-.0008.009-.004.0006,0,.0095-.0042.0019-.0009.0087-.0038.0008,0,.0095-.0042.0018-.0008.0083-.0037.0015-.0006.0093-.0041.002-.0009.008-.0036.0016-.0007.0094-.0042.0015-.0007.0083-.0037.0017-.0008.0094-.0042.0014-.0006.008-.0036.0023-.001.009-.0041.0017-.0007.0078-.0036.0024-.001.009-.0041.0015-.0007.008-.0036.0022-.001.0093-.0042,0,0,.0088-.004.0025-.0012.0083-.0038.0009,0,.009-.0041.0026-.0012.0078-.0035.0015-.0007.009-.0041.0026-.0012.0069-.0032.0025-.0012.0086-.0039.0029-.0013.0067-.0031.0027-.0012.0086-.004.0026-.0012.0068-.0032.0028-.0013.0085-.0039.0028-.0013.0063-.0029.0034-.0016.0082-.0038.0032-.0015.0056-.0026.0039-.0019.0081-.0037.0027-.0013.0063-.003.0035-.0016.008-.0037.0028-.0014.0063-.0029.0037-.0018.0068-.0032.0036-.0017.0067-.0031.0037-.0018.0062-.0029.0036-.0017.007-.0033.0041-.002.0052-.0025.0046-.0022.0068-.0032.004-.0019.0052-.0025.0037-.0017.0077-.0037.0042-.002.0049-.0024.004-.0019.0075-.0036.0046-.0022.004-.0019.0048-.0023.0048-.0023.0073-.0036.0037-.0017.0048-.0024.0062-.0029.0056-.0028.0042-.002.0047-.0022.0042-.0021.0077-.0038.004-.0019.0047-.0023.0042-.002.0077-.0038.0039-.0019.0049-.0023.0035-.0018.009-.0044.003-.0015.0052-.0025.0034-.0017.0088-.0043.0032-.0016.0053-.0025.0032-.0016.0092-.0046.0034-.0017.0022-.001q.4484-.2216.8787-.4713l-.8708-1.7633Zm5.5187-6.5126-.4322.9018a13.0215,13.0215,0,0,1-1.8956,2.891l-.6543.7562,1.4873,1.2869a15.0149,15.0149,0,0,0,3.2681-4.986l-1.7733-.85Zm2.2268-8.957-1.9193.428.2177.9761A13.0873,13.0873,0,0,1,29,16q0,.3032-.0137.603l-.0455.999,1.9649.0894q.0555-.4949.0786-.9984l0-.0087v-.003l0-.0079v-.0043l0-.0066,0-.0067,0-.0044.001-.0234v0l0-.0114v-.0008l0-.0111v-.0008l0-.0114v0l.0005-.0118h0c.005-.1323.0083-.2646.01-.3977v-.001l0-.0107v-.0493l0-.0239V16h0v-.17l0-.0107V15.805l0-.0105v-.0013l0-.0111V15.77l0-.0108v-.0017l0-.01v-.0018l0-.0106v-.0016l0-.0106v-.0016l0-.0108v-.001l0-.0113h0l0-.0115V15.685l0-.0109v-.0016l0-.01V15.66l0-.0106v-.0013l0-.011v-.0009l-.0006-.0228v-.0011l0-.011V15.6l0-.011v-.0012l0-.0111v-.0008l0-.0114v-.0006l-.0007-.0233V15.54l0-.0113v-.0009l0-.011v-.0013l0-.011v-.0009l0-.0115v0l-.0013-.0358v0l0-.0115v-.0007l0-.0113v-.0009l0-.0113V15.42l-.0014-.0356h0l0-.0118v0l-.0005-.0117v0l0-.0118h0L30.984,15.3h0l-.0035-.0717v0l-.0006-.0118v0a14.9711,14.9711,0,0,0-.59-3.4644ZM24.681,3.7657,23.4375,5.29l.7748.6322A13.0875,13.0875,0,0,1,26.58,8.444l.582.8132,1.5994-1.1445q-.262-.4229-.5509-.8269l-.004-.0057a15.09,15.09,0,0,0-2.73-2.9079l-.0077-.0063q-.3835-.3124-.788-.6ZM16,1q-.3754,0-.747.0183h-.0013l-.0109.0006H15.239l-.01.0005h-.0015l-.0106.0006h-.0024l-.01,0h-.0011l-.0107.0005-.0023,0-.01,0H15.18l-.0108.0006h-.0021l-.0106.0006h0l-.0108.0006-.0023,0-.0106.0006h0l-.0108.0006h-.0024l-.0216.0013h-.0021l-.0219.0013-.0019,0L15.05,1.03h-.002l-.0108.0007H15.036l-.01.0006-.0021,0-.0109.0007h-.0005l-.0105.0007H15l-.011.0007h-.0007l-.0105.0007h-.0015l-.0111.0007h-.0009l-.01.0007h-.0016l-.0108.0008H14.94l-.01.0006-.0018,0-.0109.0007h-.0012l-.01.0007-.0016,0-.0107.0007-.0019,0-.01.0007h-.0016l-.0107.0008h-.002l-.01.0008h-.0014l-.0107.0008h-.0022l-.0094.0008h-.0016l-.0106.0008-.0021,0-.01.0007H14.81l-.01.0009H14.797l-.01.0008h-.0011l-.0107.0009h-.0021l-.01.0009h-.0006l-.0108.0009-.0021,0-.0106.0009h0l-.011.0009H14.726l-.0216.0019-.0023,0-.0215.0018-.0023,0-.0212.0019-.0026,0-.0105.001h0l-.01.0009-.0024,0-.0107.001h0l-.0107.001-.0021,0-.0107.001H14.596l-.01.001-.0022,0-.0107.001h-.0007l-.01.0009-.0024,0-.0106.001h-.0011l-.01.001-.0018,0-.0108.001h-.0012l-.01.001-.002,0-.0106.001-.0015,0-.01.0009-.0019,0-.0108.0011h-.0012l-.01.001-.0021,0-.01.0011-.0019,0-.01.001h-.0016l-.0107.0011-.0018,0-.01.001-.0015,0-.0107.0011-.0017,0-.01.001h-.001l-.0109.0012-.0016,0-.01.0011h-.001l-.0109.0012h-.0015l-.0107.0012h0l-.011.0012-.0017,0-.0106.0012h0l-.0109.0012-.0019,0-.0218.0025-.0017,0-.0108.0012h0l-.0108.0013-.002,0-.0218.0025-.0015,0-.0221.0026h-.0013l-.022.0027h-.0016l-.022.0027-.0014,0-.022.0027-.0015,0-.0111.0013h0l-.0109.0014h-.0013l-.0112.0014h0l-.0109.0013-.0012,0-.011.0014h-.001l-.01.0013-.0014,0-.011.0014h-.0007l-.0105.0013-.0011,0-.0112.0014h-.0005l-.0109.0014h-.0007l-.0113.0015h-.0006l-.011.0014h0l-.0113.0015h-.0008l-.0227.0031h-.0005l-.0229.0031h-.0006l-.0227.0031h-.0007l-.0225.0032h-.0012l-.0223.0032h-.0008l-.0225.0032h-.0008l-.0225.0032-.0009,0-.0222.0032-.0013,0-.0222.0033h-.0009l-.0225.0033h-.0007l-.0228.0035h0l-.0226.0035h-.0009l-.0226.0035h-.0005l-.0229.0036h0l-.023.0036h0l-.023.0036h0a14.9075,14.9075,0,0,0-2.532.6344l.517,1.8972.9648-.2629A13.0406,13.0406,0,0,1,16,3h.1129l.1122.0019a13.0128,13.0128,0,0,1,3.4181.515l.96.28.55-1.888q-.4773-.1744-.9685-.3171l-.0012,0-.0208-.006-.0015,0-.0206-.0059-.0018,0-.02-.0058-.002-.0006-.01-.0028-.0011,0-.009-.0025-.0024-.0007-.01-.0028-.0009,0L20.0744,1.56l-.0024-.0007-.01-.0027-.0019,0-.0082-.0023L20.05,1.553,20.04,1.55,20.038,1.55,20.03,1.5476l-.0029-.0008-.0093-.0026-.0024-.0007-.0077-.0021-.0029-.0008-.0093-.0026-.0024-.0006-.0077-.0021-.0028-.0008-.0094-.0026-.0024-.0006-.0078-.0022-.0027-.0007-.0094-.0026-.0027-.0007-.0071-.0019-.0033-.0009L19.9292,1.52l-.0036-.001-.0065-.0018-.0035-.0009-.009-.0024-.0031-.0008-.0067-.0019L19.8932,1.51l-.0086-.0023-.0038-.001-.0063-.0017-.0036-.001-.0087-.0023-.0039-.001-.0061-.0016-.0036-.001L19.84,1.496l-.0041-.0011L19.83,1.4934l-.0041-.0011L19.8176,1.49l-.0043-.0011-.0054-.0014-.0043-.0011-.0083-.0022-.0042-.0011-.0059-.0015-.0039-.001-.0084-.0022-.0045-.0012-.0053-.0013-.0045-.0012-.0079-.0021-.0048-.0012L19.7407,1.47l-.0048-.0013-.0078-.002-.0045-.0011-.0054-.0014-.0053-.0013-.0071-.0018L19.7012,1.46l-.0055-.0014-.006-.0015-.0063-.0016-.0049-.0013-.0051-.0012-.0065-.0017L19.6611,1.45l-.0052-.0013-.0047-.0012-.0071-.0018-.0056-.0014-.005-.0012-.0049-.0012-.007-.0018-.0056-.0014-.0048-.0012-.0053-.0012-.0071-.0018-.0052-.0013-.0052-.0013-.0044-.001-.0088-.0022-.0037-.0009-.0058-.0014-.0039-.001-.0086-.0021-.0045-.0011-.0052-.0012L19.5386,1.42l-.0078-.0019-.0047-.0011-.0051-.0012-.0053-.0013-.0073-.0018-.0048-.0011L19.4983,1.41l-.0051-.0012-.0074-.0018L19.481,1.406l-.0052-.0013-.0046-.001-.0084-.002-.0043-.001-.0054-.0013-.0042-.001-.009-.0021-.0038-.0009-.0055-.0013-.004-.0009-.0094-.0022L19.4136,1.39l-.0057-.0013-.0042-.001-.0092-.0021-.0034-.0008-.0059-.0013-.0033-.0008-.01-.0022-.0042-.001-.0054-.0012-.0041-.0009-.0092-.0021-.0037-.0009L19.34,1.3732l-.0035-.0008-.01-.0022-.0037-.0008-.0058-.0013-.0061-.0014-.007-.0016-.0037-.0008-.0057-.0013L19.29,1.3618,19.2817,1.36l-.0042-.001-.0054-.0012-.0078-.0017-.0052-.0012-.0043-.0009L19.25,1.3529l-.0079-.0017L19.2364,1.35l-.0043-.0009-.0075-.0016-.0056-.0013-.0057-.0012L19.21,1.3442,19.2,1.342l-.0031-.0007L19.1909,1.34l-.0041-.0009-.0091-.0019-.0041-.0009-.0056-.0012-.0038-.0008-.0094-.0021-.0038-.0008L19.1453,1.33l-.004-.0009-.0082-.0017-.0051-.0011-.0055-.0011-.0037-.0008-.01-.0021-.0038-.0008L19.1,1.3207l-.004-.0009-.009-.0019-.0043-.0009-.0055-.0011-.004-.0008-.0089-.0019L19.06,1.3123l-.0055-.0011L19.05,1.31l-.0091-.0019-.004-.0008-.0057-.0012-.0035-.0007-.01-.002-.0036-.0008-.0055-.0011-.0042-.0008-.0091-.0019-.0041-.0008-.0055-.0011-.0041-.0008-.009-.0019-.0042-.0008-.0055-.0011-.0042-.0009L18.95,1.29l-.0046-.0009L18.94,1.288l-.0041-.0008-.0092-.0018-.0041-.0008-.0053-.0011-.0049-.0009-.0081-.0016L18.9,1.28l-.0051-.001-.0054-.001-.0072-.0014-.0052-.001-.005-.001-.0056-.0011-.0072-.0014-.0051-.001-.0052-.001-.0046-.0008-.0085-.0017-.0046-.0009-.005-.0009-.006-.0011-.007-.0014-.0051-.0009-.0049-.001L18.7968,1.26,18.79,1.259l-.005-.001L18.78,1.2571l-.0074-.0013-.0053-.001-.0058-.0011-.0045-.0009L18.75,1.2515,18.744,1.25,18.7389,1.25l-.0048-.0009-.0078-.0015-.0051-.0009-.0054-.001-.0046-.0008-.0085-.0016-.0045-.0008-.0054-.001L18.6882,1.24,18.68,1.2387l-.0044-.0008-.0056-.001-.0046-.0008-.0084-.0015-.0046-.0009-.0055-.001-.0043-.0007L18.6336,1.23,18.6292,1.23l-.0057-.001-.0043-.0008-.0086-.0015-.0045-.0008-.0056-.001-.0043-.0007-.0087-.0016-.0042-.0007-.0062-.0011-.004-.0007-.0087-.0015L18.56,1.2176l-.0062-.0011L18.55,1.2159l-.009-.0015-.004-.0007-.0065-.0011-.0036-.0006L18.518,1.21,18.5142,1.21l-.0068-.0012-.0033,0-.0092-.0016-.0038-.0006-.0067-.0011-.0036-.0006-.0089-.0015-.0041-.0007-.0068-.0011L18.4579,1.2l-.0093-.0015-.0037-.0006-.0073-.0012-.0029,0-.0093-.0015-.0037-.0006-.0074-.0012-.0027,0-.0094-.0015-.0035,0L18.3908,1.19l-.0026,0-.0091-.0015-.0038-.0006-.0078-.0012-.0026,0-.0091-.0015-.0035,0-.0086-.0014-.0018,0L18.3324,1.18l-.0032,0L18.32,1.1783l-.0009,0-.01-.0015-.0029,0-.01-.0015-.0013,0-.0092-.0014-.0032,0-.01-.0015h-.0006l-.01-.0015-.0028,0-.01-.0015-.001,0-.0093-.0014-.0029,0-.01-.0015-.0012,0-.0092-.0013-.0028-.0005-.01-.0014-.0016,0-.0088-.0013-.0029,0-.01-.0015-.0013,0-.0091-.0013-.0027,0-.01-.0014-.001,0-.01-.0014-.0023,0-.01-.0015H18.132l-.01-.0014-.0021,0L18.11,1.1472l-.0013,0-.0093-.0013-.0024,0-.01-.0015h-.0011l-.01-.0014-.0019,0-.0107-.0015h-.0011l-.01-.0014-.0017,0L18.04,1.1375h-.0011l-.01-.0014-.0012,0-.0109-.0015h-.0012l-.01-.0013-.0017,0-.0107-.0015h-.0012l-.01-.0014H17.98L17.97,1.1281h-.0015l-.01-.0013-.0013,0-.0107-.0014-.0016,0-.01-.0013h-.001l-.0109-.0014-.0014,0-.01-.0013H17.91l-.0109-.0014-.0012,0-.0107-.0013h0l-.0112-.0014h-.0012l-.0107-.0013h0l-.0111-.0014H17.851L17.8287,1.11l-.001,0-.0225-.0027h-.001l-.0227-.0027H17.781l-.0229-.0027h-.0008l-.0226-.0026h-.001l-.0228-.0026H17.71l-.0229-.0025h-.0006l-.023-.0026h-.0006L17.64,1.0886h0l-.0231-.0025h0l-.0231-.0024h0l-.0231-.0024h-.0005l-.0232-.0024h0A15.1731,15.1731,0,0,0,16,1Z" fill="#bbb"/><path d="M15.9665,20.6544a1.0786,1.0786,0,1,1,1.0754-1.0816v.0031A1.158,1.158,0,0,1,15.9665,20.6544Zm-.86-9.8143a.85.85,0,0,1,.8357-.8625h.0246a.7935.7935,0,0,1,.86.8628v5.5a.86.86,0,0,1-1.7207,0Zm7.9583,7.4414L18.1173,9.4379a2.7837,2.7837,0,0,0-2.1508-1.4021,2.4326,2.4326,0,0,0-2.1509,1.4021l-4.947,8.8438A2.84,2.84,0,0,0,8.761,20.87a2.3516,2.3516,0,0,0,2.2584,1.0783h9.8941a2.8819,2.8819,0,0,0,2.3659-1.1863,2.5841,2.5841,0,0,0-.215-2.48Z" fill="#b70000"/></svg>