<svg xmlns="http://www.w3.org/2000/svg" width="32" height="32" viewBox="0 0 32 32"><title>icon_rtk-03</title><path d="M4.75,2.7672A12.0624,12.0624,0,0,1,0,1.8563V3.9068A9.5773,9.5773,0,0,0,4.75,4.9581,9.1571,9.1571,0,0,0,9.5,3.88V1.8481A12.2725,12.2725,0,0,1,4.75,2.7672Z"/><path d="M9.3724,1.3823C8.8888.5919,7.0032,0,4.75,0,2.4846,0,.5919.5985.1206,1.3955A10.1161,10.1161,0,0,0,4.75,2.37,9.9145,9.9145,0,0,0,9.3724,1.3823Z"/><path d="M3.8621,6.0772,1.4374,8.5092a.4991.4991,0,0,0,.7045.7071l1.72-1.7254Z"/><path d="M8.062,8.51,5.6472,6.0867V7.4988L7.3588,9.2163A.4985.4985,0,0,0,8.0622,8.51h0Z"/><path d="M5.2513,5.69l-.1424-.1434a.4953.4953,0,0,0-.3519-.1457L4.75,5.4017l-.0074-.0012a.4957.4957,0,0,0-.352.1457L4.2574,5.68V7.0944l.0007-.0007v3.3989a.4966.4966,0,1,0,.993.0188v-.0136Z"/></svg>