<svg xmlns="http://www.w3.org/2000/svg" width="32" height="32" viewBox="0 0 32 32"><title>icon_uavlink</title><path d="M9.2991,9.147a9.3867,9.3867,0,0,1,6.6274-2.9708A10.3487,10.3487,0,0,1,22.7824,9.147l-2.2853,2.2853a6.4653,6.4653,0,0,0-4.5706-2.0567,5.6282,5.6282,0,0,0-4.3421,2.0567Z"/><path d="M4.5,4.805A15.0107,15.0107,0,0,1,15.9265.0059,15.0109,15.0109,0,0,1,27.353,4.805L25.0677,6.8617a14.0387,14.0387,0,0,0-9.1412-3.6564A11.21,11.21,0,0,0,6.7853,7.09Z"/><path d="M15.9265,25.6012,25.0677,32,18.6688,17.1456a2.8994,2.8994,0,0,0,.2286-1.3712,3.1995,3.1995,0,0,0-6.3989,0,3.3029,3.3029,0,0,0,.4571,1.6L6.7853,32Zm-4.3421.457,1.1427-2.7423,1.3711.9141Zm4.3421-7.3129a1.7131,1.7131,0,0,0,1.1426-.2285l1.1427,2.9708-2.2853,1.6-2.2853-1.6,1.1426-2.7423ZM17.7547,24.23l1.3712-.9141,1.1426,2.7423Z"/></svg>