<svg xmlns="http://www.w3.org/2000/svg" width="16" height="16" viewBox="0 0 16 16">
  <g >
    <path d="M14.0091613,2.19316129 C14.2620645,1.93935484 14.0823226,1.50670968 13.7246452,1.50670968 L10.7584516,1.50670968 C10.5362581,1.50670968 10.3565161,1.68645161 10.3565161,1.90864516 L10.3565161,4.87483871 C10.3565161,5.23251613 10.7891613,5.41225806 11.0420645,5.15935484 L12.088,4.11432258 C13.0797419,5.15935484 13.6451613,6.54851613 13.6451613,8 C13.6451613,11.1143226 11.1125161,13.6460645 8,13.6460645 C4.88658065,13.6460645 2.35483871,11.1143226 2.35483871,8 C2.35483871,4.88748387 4.88658065,2.35483871 8,2.35483871 C8.37393548,2.35483871 8.67741935,2.05135484 8.67741935,1.67741935 C8.67741935,1.30348387 8.37393548,1 8,1 C4.1396129,1 1,4.14051613 1,8 C1,11.8603871 4.1396129,15.0009032 8,15.0009032 C11.8594839,15.0009032 15,11.8603871 15,8 C15,6.18722581 14.2900645,4.45574194 13.0445161,3.15780645 L14.0091613,2.19316129 Z"/>
    <circle cx="8" cy="8" r="2" fill="#252525"/>
  </g>
</svg>
