<svg xmlns="http://www.w3.org/2000/svg" width="32" height="32" viewBox="0 0 32 32"><title>icon_video</title><path d="M18.8822,23.53h-6a1.2353,1.2353,0,0,0,0,2.4705h6a1.2353,1.2353,0,0,0,0-2.4705Z"/><path d="M18,8.0005H8.118A2.0739,2.0739,0,0,0,6.0005,10.03c-.0006.0293-.0006.0587,0,.088V20A2.0738,2.0738,0,0,0,8.03,22.1174q.0441.0009.0882,0H18a2.0738,2.0738,0,0,0,2.1175-2.0293q.0009-.0441,0-.0882V10.118a2.0738,2.0738,0,0,0-2.0293-2.1175Q18.0442,8,18,8.0005Z"/><path d="M25.5073,9.2646l-5.1032,5.1033a.9781.9781,0,0,0,0,1.3821l5.1032,5.1033a.9776.9776,0,0,0,1.6686-.6911V9.9566a.9776.9776,0,0,0-1.6686-.692Z"/></svg>