<svg xmlns="http://www.w3.org/2000/svg" width="32" height="32" viewBox="0 0 32 32">
  <title>icon_plan_tool-point-of-interest</title>
  <g>
    <path d="M28.0183,5.3863a.8047.8047,0,0,0-.569-1.3729H21.5169a.8033.8033,0,0,0-.8039.8039V10.75a.8036.8036,0,0,0,1.3711.569l2.0919-2.09A11.28,11.28,0,1,1,16,5.71,1.3548,1.3548,0,1,0,16,3,14.0368,14.0368,0,1,0,26.089,7.3156Z"/>
    <path d="M16,24.1667s-5-6.8364-5-9.4444A4.8671,4.8671,0,0,1,16,10a4.8671,4.8671,0,0,1,5,4.7222C21,17.33,16,24.1667,16,24.1667Zm0-6.0714A3.0359,3.0359,0,1,0,13,15.06,3.018,3.018,0,0,0,16,18.0952Z"/>
  </g>
</svg>
