<svg xmlns="http://www.w3.org/2000/svg" width="18" height="18" viewBox="0 0 18 18">
  <title>icon_connection_ok</title>
  <path d="M12.094,11.2578,9.9228,13.429,7.8407,11.3469l2.1711-2.1711L9.2,8.3634l-2.1711,2.17L4.9464,8.4516l2.1711-2.17-.4062-.4063L4.6169,7.97l0,0L2.9288,9.6581a1.3362,1.3362,0,0,0,0,1.9295l1.206,1.206L2.6857,14.2421,4.131,15.6883,5.58,14.2391l1.2075,1.2075a1.3361,1.3361,0,0,0,1.9294,0l1.9295-1.9294,0,0L12.5,11.6639Z"/>
  <path d="M15.4322,6.9281,14.1855,5.6813,15.68,4.1868,14.1875,2.6942,12.6929,4.1887,11.447,2.9428a1.38,1.38,0,0,0-1.9927,0L7.0419,5.3552,8.1173,6.4305,5.8751,8.6718,6.714,9.51,8.9562,7.269l2.15,2.1507L8.8643,11.6619l.8384.8384,2.2422-2.2422L13.02,11.3332l2.412-2.4115A1.3808,1.3808,0,0,0,15.4322,6.9281Z"/>
</svg>
