<svg xmlns="http://www.w3.org/2000/svg" width="32" height="32" viewBox="0 0 32 32">
  <title>icon_select</title>
  <g>
    <path d="M5.4859,0h-3.99A1.4965,1.4965,0,0,0,0,1.4962l0,.002L0,1.5V5.49a1.4962,1.4962,0,1,0,2.9923,0V2.9923H5.4859A1.4962,1.4962,0,0,0,5.4859,0Z"/>
    <path d="M5.4859,24.936H2.9923v-2.49a1.4962,1.4962,0,1,0-2.9923,0v3.99a1.4965,1.4965,0,0,0,1.4962,1.4962c.0068,0,.0124-.0038.0192-.004H5.4859a1.4962,1.4962,0,0,0,0-2.9923Z"/>
    <path d="M10.4731,2.9923h6.9821a1.4962,1.4962,0,1,0,0-2.9923H10.4731a1.4962,1.4962,0,1,0,0,2.9923Z"/>
    <path d="M22.4424,2.9923H24.936V5.49a1.4962,1.4962,0,1,0,2.9923,0V1.5l0-.0012,0-.002A1.4968,1.4968,0,0,0,26.4322,0h-3.99a1.4962,1.4962,0,0,0,0,2.9923Z"/>
    <path d="M1.4962,18.9554a1.4965,1.4965,0,0,0,1.4962-1.4962V10.4771a1.4962,1.4962,0,1,0-2.9923,0v6.9821A1.4966,1.4966,0,0,0,1.4962,18.9554Z"/>
    <path d="M26.4322,8.981a1.4965,1.4965,0,0,0-1.4962,1.4962v5.8951c1.17.4473,2.1525.8251,2.9806,1.1455.0008-.0205.0118-.0377.0118-.0584V10.4771A1.4965,1.4965,0,0,0,26.4322,8.981Z"/>
    <path d="M31.5616,29.4478,27.2228,25.11l3.9132-2.0583a.8766.8766,0,0,0,.4832-.7373.8855.8855,0,0,0-.4082-.7842c-.3264-.1841-3-1.2644-13.9115-5.3914a.7866.7866,0,0,0-.943.216.8731.8731,0,0,0-.221.947C20.26,28.21,21.3408,30.8848,21.522,31.2081a.8829.8829,0,0,0,.7461.4139l.0409-.001a.8776.8776,0,0,0,.7393-.4822l2.0587-3.9138,4.3389,4.3385a1.4961,1.4961,0,0,0,2.1158-2.1158Z"/>
    <path d="M10.4731,24.936a1.4962,1.4962,0,1,0,0,2.9923h6.9821c.0205,0,.0375-.0108.0579-.0118-.32-.8281-.698-1.8106-1.1453-2.9806Z"/>
  </g>
</svg>
