<svg xmlns="http://www.w3.org/2000/svg" width="32" height="32" viewBox="0 0 32 32">
  <g>
    <path d="M27.999,29h-1.5a2.3588,2.3588,0,0,1-2.5-2.5V6.5a2.3588,2.3588,0,0,1,2.5-2.5h1.5a1.5,1.5,0,0,0,0-3h-1.5a5.7749,5.7749,0,0,0-4.25,1.8954A5.7757,5.7757,0,0,0,17.999,1h-2a1.5,1.5,0,1,0,0,3h1.9874A2.362,2.362,0,0,1,20.499,6.5V26.4874A2.362,2.362,0,0,1,17.999,29h-2a1.5,1.5,0,1,0,0,3h2a5.1836,5.1836,0,0,0,4.25-1.9074A5.1836,5.1836,0,0,0,26.499,32h1.5a1.5,1.5,0,1,0,0-3Z"/>
    <rect x="4.9994" y="15.5" width="13.5" height="4"/>
    <path d="M18.4994,21.4948,3,21.4874,3.0118,13.5l15.4876.0076V10.5H2.9776A2.8436,2.8436,0,0,0,0,13.5v8.0352A2.8387,2.8387,0,0,0,3,24.5H18.4994Z"/>
    <path d="M31.999,13.459A2.8427,2.8427,0,0,0,29.28,10.4981q-.14-.0059-.28.0019H25.9994v3.0112L29,13.5126,28.9882,21.5h-.0088l-2.98-.0014V24.5H29.035a2.8686,2.8686,0,0,0,2.9664-2.7674q.004-.1163-.0014-.2326Z"/>
  </g>
</svg>
