<svg xmlns="http://www.w3.org/2000/svg" width="32" height="32" viewBox="0 0 32 32"><title>icon</title><path d="M31,22.6228V19.0077a.9216.9216,0,0,0-1.5949-.6886l-5.1393,4.9923a1.0249,1.0249,0,0,0,0,1.3772l5.1393,4.9923A.9216.9216,0,0,0,31,28.9923V22.6228Z"/><path d="M12,4V28H4V4h8m0-2H4A2.0059,2.0059,0,0,0,2,4H2V28a2.0059,2.0059,0,0,0,2,2h8a2.0059,2.0059,0,0,0,2-2V4a2.0059,2.0059,0,0,0-2-2Z"/><polyline points="12 4 12 8 4 8 4 4 12 4"/><polyline points="12 24 12 28 4 28 4 24 12 24"/><path d="M15.5,24a.7473.7473,0,0,0,.7446.75h.298a.75.75,0,0,0,0-1.5h-.2979A.7473.7473,0,0,0,15.5,24Z"/><path d="M18.1809,24a.7473.7473,0,0,0,.7447.75h.2979a.75.75,0,0,0,0-1.5h-.2979a.7473.7473,0,0,0-.7447.75Z"/><path d="M20.7129,24a.7474.7474,0,0,0,.7445.75h.2979a.75.75,0,0,0,0-1.5h-.2979a.7473.7473,0,0,0-.7445.75Z"/></svg>