<svg xmlns="http://www.w3.org/2000/svg" width="32" height="32" viewBox="0 0 32 32">
  <title>icon_menu-generalsettings</title>
  <path d="M29.4329,13.429h-1.116A12.4962,12.4962,0,0,0,26.54,9.1321l.8266-.8264a2.5867,2.5867,0,1,0-3.659-3.6572h0l-.8266.8264A12.5055,12.5055,0,0,0,18.5825,3.698V2.5818A2.5831,2.5831,0,0,0,13.4163,2.58V3.6973A12.5033,12.5033,0,0,0,9.118,5.4739l-.8675-.805A2.582,2.582,0,0,0,4.6549,8.2635l.8265.8264a12.4959,12.4959,0,0,0-1.798,4.3391H2.567a2.5823,2.5823,0,0,0,0,5.1646H3.6829A12.3934,12.3934,0,0,0,5.46,22.8907l-.8266.8263a2.5821,2.5821,0,1,0,3.6171,3.6355l.8266-.8264a12.5037,12.5037,0,0,0,4.2984,1.7766v1.1155a2.5831,2.5831,0,0,0,5.1662.0023V28.3027A12.4031,12.4031,0,0,0,22.84,26.5261l.8265.8264a2.5861,2.5861,0,1,0,3.6579-3.6566L26.498,22.87a12.3933,12.3933,0,0,0,1.8186-4.2771H29.433a2.5823,2.5823,0,0,0,0-5.1646h0ZM16,22.87a6.8589,6.8589,0,1,1,6.8608-6.8634v.0046h0A6.86,6.86,0,0,1,16,22.87Z"/>
</svg>
