<svg xmlns="http://www.w3.org/2000/svg" width="32" height="32" viewBox="0 0 32 32">
  <title>icon_menu-planning</title>
  <path d="M22.2,7.9186c0-1.41-.8-1.9525-2.1-2.6033C19,4.7729,17.8,4.122,17.8,2.3864,17.8.1085,16.4,0,16,0c-.9,0-1.8.6508-1.8,2.3864,0,1.8441-1.2,2.3865-2.3,3.0373-1.3.6509-2.1,1.1932-2.1,2.6034H22.2Z"/>
  <path d="M24.2,3.9051H21.7a4.3689,4.3689,0,0,1,2.4,4.0135V9.8712H8.1V7.9186a4.3689,4.3689,0,0,1,2.4-4.0135H8A2.95,2.95,0,0,0,5,6.9424v22.02A2.9634,2.9634,0,0,0,8,32H24.1a2.95,2.95,0,0,0,3-3.0373V6.9424A2.7775,2.7775,0,0,0,24.2,3.9051ZM8.7,28.2034A1.306,1.306,0,0,1,8.7,25.6a1.2691,1.2691,0,0,1,1.2,1.3017A1.2072,1.2072,0,0,1,8.7,28.2034Zm0-6.0746a1.306,1.306,0,0,1,0-2.6034,1.2691,1.2691,0,0,1,1.2,1.3017A1.2072,1.2072,0,0,1,8.7,22.1288Zm0-5.9661a1.306,1.306,0,0,1,0-2.6034A1.2691,1.2691,0,0,1,9.9,14.861,1.2072,1.2072,0,0,1,8.7,16.1627ZM24,28.2034H11.5V25.7085H24Zm0-6.0746H11.5V19.6339H24Zm0-5.9661H11.5V13.6678H24Z"/>
</svg>
