<svg xmlns="http://www.w3.org/2000/svg" width="32" height="32" viewBox="0 0 32 32"><title>icon_fullscreen</title><path d="M12.4679,17.0845l-5.784,5.7949L3.1831,19.3786A1.2793,1.2793,0,0,0,1,20.283v9.4385A1.2784,1.2784,0,0,0,2.2785,31H11.717a1.2793,1.2793,0,0,0,.9046-2.1831L9.1324,25.3276l5.7854-5.796a1.7314,1.7314,0,1,0-2.45-2.4471Z" fill="#231f20"/><path d="M29.7218,1H20.2832a1.2786,1.2786,0,0,0-.9023,2.1831L22.8748,6.677l-5.79,5.7921a1.7306,1.7306,0,1,0,2.4476,2.4473l5.79-5.7921,3.4948,3.495A1.2787,1.2787,0,0,0,31,11.717V2.2785A1.2783,1.2783,0,0,0,29.7218,1Z" fill="#231f20"/></svg>