<svg xmlns="http://www.w3.org/2000/svg" width="16" height="16" viewBox="0 0 16 16">
  <g>
    <path d="M5.5 16C4.30039891 16 3.16666667 14.9553311 3.16666667 13.6666667 3.16666667 12.3780023 4.21133558 11.3333333 5.5 11.3333333 5.96335584 11.3333333 6.39516662 11.4683938 6.75821203 11.7012945 7.11957038 10.1531606 8.50845098 9 10.1666667 9 11.6936285 9 12.9922055 9.9778317 13.4703756 11.341473 13.5350918 11.3360826 13.6005582 11.3333333 13.6666667 11.3333333 14.9553311 11.3333333 16 12.3780023 16 13.6666667 16 14.9553311 14.9553311 16 13.6666667 16 13.0705253 16 10.1666667 16 5.5 16zM2.65565347e-12 5L2.17337259e-12 1 1 1 2 3 6 3 3-1.0230039e-11 5.54395885-1.02318154e-11 10 3 14 3C15 3 16.024108 3.62442554 16 4.5 15.9760589 5.36951238 15 6 14 6L10.0842645 6 5.57184391 9 3 9 6.21547543 6 2 6 2.65565347e-12 5z"/>
  </g>
</svg>
