<svg xmlns="http://www.w3.org/2000/svg" width="32" height="32" viewBox="0 0 32 32"><title>icon_uavlink-broken</title><path d="M16.4792,26.6533,24.1783,32l-5.1327-12.617a3.0917,3.0917,0,0,0,.4278-1.4971,2.78,2.78,0,0,0-5.5605,0,5.0332,5.0332,0,0,0,.4286,1.71L8.78,32Zm-3.4219.2138.8556-2.1378,1.0688.6415Zm3.4219-5.9881a1.9274,1.9274,0,0,0,1.0689-.2138L18.617,22.803l-1.9248,1.2831L14.7673,22.803l.8556-2.1378C15.8377,20.879,16.0515,20.879,16.4792,20.879ZM18.19,25.37l1.0688-.6415.8556,2.1377Z"/><path d="M18.8316,10.6138a8.9484,8.9484,0,0,1,3.8494,2.3524L20.7562,14.891a5.9712,5.9712,0,0,0-4.277-1.7109h0Zm4.4912-4.2772a14.9527,14.9527,0,0,1,3.6357,2.78l-2.1378,1.9249a12.1344,12.1344,0,0,0-3.8494-2.5664Zm-6.202-1.7111h-.6416A13.591,13.591,0,0,0,6,9.1169l1.9248,1.9249A12.1928,12.1928,0,0,1,13.9129,7.62Zm-9.8778,12.2L23.9884,0l1.516,1.509L8.759,18.3345Z"/></svg>