<svg xmlns="http://www.w3.org/2000/svg" width="32" height="32" viewBox="0 0 32 32"><title>icon_battery-undefined</title><path d="M19.1007,24.1729a1.0945,1.0945,0,1,1,1.2268-1.086A1.1625,1.1625,0,0,1,19.1007,24.1729ZM17.875,14.7607c0-.4514.504-.8177,1.125-.8177s1.125.3663,1.125.8177v5.4907c0,.4523-.504.8178-1.125.8178s-1.125-.3655-1.125-.8178Zm9.6128,6.99L21.549,11.6491A3.1548,3.1548,0,0,0,18.9441,10a2.8788,2.8788,0,0,0-2.522,1.6481l-5.941,10.1041a3.0157,3.0157,0,0,0-.13,2.9714A2.9756,2.9756,0,0,0,13.0962,26H24.8739a3.369,3.369,0,0,0,2.7888-1.3447,2.6951,2.6951,0,0,0-.1749-2.9042ZM24,7a2.9382,2.9382,0,0,0-2.8751-3h0Q21.0625,3.9986,21,4H18V1.678A1.6439,1.6439,0,0,0,16.3909,0h0q-.0354-.0007-.0708,0H11.678A1.6434,1.6434,0,0,0,10,1.6081h0q-.0008.0349,0,.07V4H7A2.9382,2.9382,0,0,0,4,6.8751H4Q3.9986,6.9375,4,7V29a2.9382,2.9382,0,0,0,2.8751,3h0q.0624.0014.1249,0H21a2.9382,2.9382,0,0,0,3-2.8751h0q.0014-.0624,0-.1249V27.7128H21V29H7V7H21V8l3,2Z"/></svg>