<svg xmlns="http://www.w3.org/2000/svg" width="32" height="32" viewBox="0 0 32 32">
  <g fill="#252525" transform="translate(4 4)">
    <path fill-rule="nonzero" d="M11.1441794,11.5660764 C11.1042055,10.9776058 11.5778761,10.5765673 13.2038985,10.5765673 C14.2720859,10.5765673 15.2670972,11.4256076 15.2670972,13.2161296 C15.2670972,15.1412816 12.9933276,16.7837352 11.1098005,16.6454134 C8.74625545,16.4718402 6.76261096,14.7271531 6.76261096,11.564633 C6.76261096,10.4304203 7.3337872,9.16497372 8.43345699,8.09014747 C9.91428816,6.64277097 12.0382304,6.07223191 14.8564479,6.73409415 C17.532888,7.36265975 20.5122262,11.4994702 19.9212086,14.120009 C18.799761,19.0924453 14.8300655,21.9978148 9.90792138,21.1215328 C5.21601254,20.2862393 1.61699341,15.7190867 2.03295552,11.0790503 C2.49005715,5.98010465 6.40945944,2.34666003 12.250689,2.01512817 C13.9354223,1.91950742 15.5596176,2.27494975 17.0501888,2.92873117 C17.5143586,3.13232133 17.9293549,3.34986224 18.2878071,3.56586215 C18.4958785,3.69124404 18.6338327,3.78431554 18.6945346,3.82930352 L19.8853935,2.22248834 C19.4872562,1.92741684 18.7939778,1.50965381 17.8535346,1.09716476 C16.0936934,0.32527843 14.1652153,-0.0967537815 12.137357,0.0183417851 C5.32338007,0.405084074 0.588304758,4.7946906 0.0409438659,10.9004738 C-0.468811484,16.586769 3.8565625,22.0756654 9.55737616,23.0905727 C15.5734288,24.1616016 20.5238779,20.5384311 21.8722053,14.5600228 C22.7183669,10.8081893 19.0065535,5.6543372 15.3137097,4.78706779 C11.8360605,3.97033714 9.01068925,4.72929597 7.03549201,6.65986991 C5.5252113,8.13603063 4.73646197,9.71306359 4.73646197,11.564633 C4.73646197,15.6920105 7.60297658,18.3932663 10.9633197,18.6400421 C13.9089606,18.856363 17.2670972,16.4306187 17.2670972,13.2161296 C17.2670972,10.2444255 15.3124929,8.57656727 13.2038985,8.57656727 C10.5124795,8.57656727 9.01190633,9.83920829 9.14955623,11.7126315 C9.26797677,13.3243418 10.5473506,15.2554505 11.6568895,14.23579 C12.7664284,13.2161296 11.2773707,13.5268331 11.1441794,11.5660764 Z"/>
    <circle cx="20.5" cy="3.5" r="2.5"/>
  </g>
</svg>
