<svg id="Layer_1" data-name="Layer 1" xmlns="http://www.w3.org/2000/svg" width="32" height="32" viewBox="0 0 32 32">
  <title>icon_calendar</title>
  <g>
    <path d="M23,8a1.5016,1.5016,0,0,0,1.5-1.5v-5a1.5,1.5,0,0,0-3,0v5A1.5016,1.5016,0,0,0,23,8Z"/>
    <path d="M30.999,4.961A2.8411,2.8411,0,0,0,28,2H26.5V6.5a3.5,3.5,0,0,1-7,0V2h-7V6.5a3.5,3.5,0,0,1-7,0V2H3.9736A2.8471,2.8471,0,0,0,1,5V29.0352A2.8387,2.8387,0,0,0,4,32H28.0206l.0206-.001A2.8427,2.8427,0,0,0,31,29ZM11.0732,28.03c-4.2872,0-5.6738-2.6368-5.6738-3.914a1.4131,1.4131,0,0,1,1.4882-1.4648c.8212,0,1.0722.4922,1.3906,1.1162a2.7645,2.7645,0,0,0,2.8672,1.8116A2.6769,2.6769,0,0,0,14.08,22.8068c0-1.415-.7588-2.1806-2.3516-2.3438-.8526-.09-1.7626-.2548-1.7626-1.082,0-.9874.4218-1.295,1.8818-1.373a1.9144,1.9144,0,0,0,1.9942-2.0546,2.294,2.294,0,0,0-2.5782-2.295A2.8282,2.8282,0,0,0,8.54,15.3264c-.3574.5848-.64,1.0456-1.3662,1.0456-.5206,0-1.3936-.1592-1.3936-1.2276,0-2.7158,3.249-3.9376,5.5556-3.9376,5.04,0,5.4316,3.379,5.4316,4.414a3.3381,3.3381,0,0,1-1.913,3.1562l-.4364.2348.4776.1338a3.3076,3.3076,0,0,1,2.3956,3.52C17.291,26.621,14.0792,28.03,11.0732,28.03ZM26.6,26.1368c0,1.292-.5108,1.8936-1.6064,1.8936s-1.6054-.6016-1.6054-1.8936v-9.24H20.12c-.6416,0-1.0126-.1728-1.0126-1.06,0-.7.29-.917,1.5556-1.1612l.879-.1914a3.3194,3.3194,0,0,0,2.37-2.038c.3672-.6924.6562-1.2392,1.51-1.2392.582,0,1.1778.168,1.1778,1.418V26.1368Z"/>
    <path d="M9,8a1.5016,1.5016,0,0,0,1.5-1.5v-5a1.5,1.5,0,0,0-3,0v5A1.5016,1.5016,0,0,0,9,8Z"/>
  </g>
</svg>
