<svg xmlns="http://www.w3.org/2000/svg" width="32" height="32" viewBox="0 0 32 32"><title>icon_cloud-up</title><path d="M27,10.3V10a8.0235,8.0235,0,0,0-8-8,7.9363,7.9363,0,0,0-7.3,4.8A5.0293,5.0293,0,0,0,9,6a4.9514,4.9514,0,0,0-5,5,5.0666,5.0666,0,0,0,.2,1.3A5.9864,5.9864,0,0,0,6,24h6.9V21.5H11.1a3.51,3.51,0,0,1-3.3-2.2,3.3536,3.3536,0,0,1,.8-3.9l5.8-5.8a3.6214,3.6214,0,0,1,5.1,0l5.8,5.8a3.7407,3.7407,0,0,1,.8,3.9,3.56,3.56,0,0,1-3.3,2.2H21V24h4a6.9953,6.9953,0,0,0,2-13.7Z"/><path d="M23.5,17.1l-5.8-5.8a1.2149,1.2149,0,0,0-1.6,0l-5.8,5.8a1.1153,1.1153,0,0,0,.8,1.9h4.3v7.7a1.5,1.5,0,0,0,3,0V19h4.3A1.1153,1.1153,0,0,0,23.5,17.1Z"/></svg>