<svg xmlns="http://www.w3.org/2000/svg" width="32" height="32" viewBox="0 0 32 32">
  <title>icon_longitude</title>
  <path d="M16,2A14,14,0,1,1,2,16,14,14,0,0,1,16,2m0-2A16,16,0,1,0,32,16,16,16,0,0,0,16,0Z"/>
  <path d="M15.999,31.5C10.3926,31.5,6,24.6914,6,16S10.3926.5,15.999.5C21.6074.5,26,7.3086,26,16S21.6074,31.5,15.999,31.5Zm0-29C11.5879,2.5,8,8.5557,8,16s3.5879,13.5,7.999,13.5S24,23.4443,24,16,20.4111,2.5,15.999,2.5Z"/>
  <path d="M15.5166,10.9473A38.9613,38.9613,0,0,1,2.8535,9.084L3.5518,7.21c.1045.039,10.6865,3.8545,24.92-.0274l.5254,1.93A51.22,51.22,0,0,1,15.5166,10.9473Z"/>
  <path d="M3.4658,25.9,2.94,23.97c14.8877-4.0586,25.69-.1416,26.1436.0283l-.6983,1.874C28.2813,25.834,17.6992,22.0186,3.4658,25.9Z"/>
  <rect x="14" y="1" width="4" height="30"/>
</svg>
