<svg xmlns="http://www.w3.org/2000/svg" width="32" height="32" viewBox="0 0 32 32">
  <title>icon_distance</title>
  <path d="M1,29a.999.999,0,0,1-1-1V4A1,1,0,1,1,2,4V28A.9991.9991,0,0,1,1,29Z"/>
  <path d="M31,29a.9993.9993,0,0,1-1-1V4a1,1,0,1,1,2,0V28A.9994.9994,0,0,1,31,29Z"/>
  <path d="M29.75,15.3169l-6.2754-5.0307a.8542.8542,0,0,0-1.4707.686V14H10V10.9712a.854.854,0,0,0-1.4712-.685L2.2529,15.3169a1.05,1.05,0,0,0,0,1.3667l6.2778,5.0352A.8542.8542,0,0,0,10,21.0332V18H22.0039v3.0332a.8539.8539,0,0,0,1.4687.6856L29.75,16.6836A1.05,1.05,0,0,0,29.75,15.3169Z"/>
</svg>
