<svg xmlns="http://www.w3.org/2000/svg" width="32" height="32" viewBox="0 0 32 32"><title>icon_uav-link-lost</title><path d="M15.9063,26.4354,23.9191,32,18.5772,18.8686a3.2165,3.2165,0,0,0,.4452-1.558,2.8936,2.8936,0,1,0-5.7871,0,5.2382,5.2382,0,0,0,.4461,1.78L7.8934,32Zm-3.5614.2225.89-2.2249,1.1125.6677Zm3.5614-6.2321a2.0057,2.0057,0,0,0,1.1124-.2225l1.1125,2.2249-2.0033,1.3354-2.0033-1.3354.89-2.2249C15.2386,20.4258,15.4611,20.4258,15.9063,20.4258ZM17.6868,25.1l1.1125-.6676.89,2.2248Z"/><path d="M18.3545,9.7423a9.3128,9.3128,0,0,1,4.0063,2.4482l-2.0032,2.0033a6.2147,6.2147,0,0,0-4.4513-1.7806h0Zm4.6742-4.4515a15.5586,15.5586,0,0,1,3.7838,2.8936l-2.2248,2.0033a12.6313,12.6313,0,0,0-4.0063-2.671ZM16.574,3.51h-.6677A14.1443,14.1443,0,0,0,5,8.1844l2.0033,2.0033a12.69,12.69,0,0,1,6.232-3.5616ZM7.5869,14.9143,22.4174,0l1.5777,1.5705L9.1646,16.4844Z"/></svg>