<svg xmlns="http://www.w3.org/2000/svg" width="32" height="32" viewBox="0 0 32 32"><title>icon_data-lte-avail</title><path d="M22.89,20.9931l-5.1928,5.1928-4.993-4.9931L17.8974,16,16,14.1026l-5.1928,5.1928-4.9931-4.993L11.0069,9.11l-.9986-.9986-4.993,4.993h0L1.0208,17.0985a3.1812,3.1812,0,0,0,0,4.5936l2.896,2.896L.4216,28.0832l3.4952,3.4952,3.4951-3.4952,2.896,2.896a3.1812,3.1812,0,0,0,4.5936,0l4.5936-4.5936h0l4.3939-4.3939Z"/><path d="M30.9792,10.208l-2.896-2.8959,3.4952-3.4952L28.0832.3218,24.5881,3.8169,21.792,1.0208a3.1813,3.1813,0,0,0-4.5937,0L11.6061,6.613,14.1026,9.11,8.91,14.3024,10.8072,16.2,16,11.0069,20.9931,16,15.8,21.1928,17.6976,23.09,22.89,17.8974l2.4966,2.4965,5.5922-5.5922A3.1813,3.1813,0,0,0,30.9792,10.208Z"/></svg>