<svg xmlns="http://www.w3.org/2000/svg" width="32" height="32" viewBox="0 0 32 32"><title>icon_gnss-2</title><polygon points="20.5 13.2 32 11.1 30.6 3 19.1 5.1 19.447 7.108 17.5 7.4 16.8 3.4 13 4 13.7 8 11.859 8.276 11.5 6.2 0 8.3 1.4 16.5 12.9 14.3 12.55 12.277 14.4 12 15.1 16 18.9 15.4 18.2 11.4 20.139 11.109 20.5 13.2"/><path d="M18.417,23.0787a10.1011,10.1011,0,0,0,6.9-4.2,1.5461,1.5461,0,0,0-.3-2,1.3874,1.3874,0,0,0-1.9.2v.1a7.8288,7.8288,0,0,1-10.9,1.8l-.1-.1a1.5461,1.5461,0,0,0-2,.3,1.3991,1.3991,0,0,0,.2,1.9h.1a10.0755,10.0755,0,0,0,8,2"/><path d="M6.417,25.7787a17.3944,17.3944,0,0,0,24.2-3.8,1.43,1.43,0,0,0-2.3-1.7,14.333,14.333,0,0,1-20.1,3.3l-.1-.1a1.5461,1.5461,0,0,0-2,.3,1.51,1.51,0,0,0,.3,2"/></svg>