<svg xmlns="http://www.w3.org/2000/svg" width="32" height="32" viewBox="0 0 32 32"><title>icon_hotspot-on</title><path d="M16.0059,13.4661a13.37,13.37,0,0,0-9.4887,3.8954,1.7657,1.7657,0,0,0,2.4971,2.497,9.8863,9.8863,0,0,1,13.9833,0,1.8429,1.8429,0,0,0,1.1986.4994,1.654,1.654,0,0,0,1.1985-.4994,1.7484,1.7484,0,0,0,0-2.497A12.97,12.97,0,0,0,16.0059,13.4661Z"/><path d="M31.4875,12.3674a22.0043,22.0043,0,0,0-30.9631,0,1.7484,1.7484,0,0,0,0,2.497,1.7484,1.7484,0,0,0,2.497,0,18.3264,18.3264,0,0,1,25.9691,0,1.8423,1.8423,0,0,0,1.1985.4994,1.6538,1.6538,0,0,0,1.1986-.4994A1.6709,1.6709,0,0,0,31.4875,12.3674Z"/><circle cx="16.0059" cy="24.5529" r="2.9964"/></svg>