<svg xmlns="http://www.w3.org/2000/svg" width="32" height="32" viewBox="0 0 32 32">
  <title>icon_backgroundtasks</title>
  <path d="M24.6227,6.4191a1.5508,1.5508,0,0,0,2.0726-2.3073A15.9462,15.9462,0,0,0,16,0a1.552,1.552,0,0,0,0,3.104,12.8478,12.8478,0,0,1,8.6229,3.3151M30.51,9.2715a1.549,1.549,0,1,0-2.8055,1.314,13.0118,13.0118,0,0,1,.3386,10.1108,1.5478,1.5478,0,1,0,2.886,1.12A16.1092,16.1092,0,0,0,30.51,9.2715M25.2478,25.0574a12.8825,12.8825,0,0,1-7.921,3.8469A1.5521,1.5521,0,0,0,17.4816,32c.0537,0,.1053-.0021.159-.0062a15.9855,15.9855,0,0,0,9.8285-4.7719,1.5507,1.5507,0,1,0-2.2213-2.1645M11.9643,28.328a12.93,12.93,0,0,1-6.9859-5.56A1.55,1.55,0,1,0,2.334,24.3838a16.0273,16.0273,0,0,0,8.6622,6.893,1.5317,1.5317,0,0,0,.4851.0766,1.5515,1.5515,0,0,0,.4831-3.0254M3.2411,17.9813a13.1109,13.1109,0,0,1-.1445-1.941A12.9563,12.9563,0,0,1,6.6576,7.1338L9.0441,9.528a.9183.9183,0,0,0,1.5689-.65V2.0826a.9191.9191,0,0,0-.9187-.9209H2.9149a.922.922,0,0,0-.65,1.5727l2.2048,2.21A16.0647,16.0647,0,0,0,0,16.04a16.5147,16.5147,0,0,0,.1775,2.3984,1.5492,1.5492,0,0,0,1.53,1.3223,1.4229,1.4229,0,0,0,.2291-.0166,1.5514,1.5514,0,0,0,1.3047-1.7631" fill="#1a1919"/>
</svg>
