<svg xmlns="http://www.w3.org/2000/svg" width="32" height="32" viewBox="0 0 32 32">
  <title>icon_plan_tool-tower</title>
  <g>
    <g>
      <g>
        <path d="M15.5,12C10.7793,12,6,10.4541,6,7.5S10.7793,3,15.5,3,25,4.5459,25,7.5,20.2207,12,15.5,12Zm0-7C10.9912,5,8,6.5049,8,7.5S10.9912,10,15.5,10,23,8.4951,23,7.5,20.0088,5,15.5,5Z" />
        <path d="M15.5,28.5c-5.1309,0-9-1.72-9-4s3.8691-4,9-4,9,1.72,9,4S20.6309,28.5,15.5,28.5Zm0-7c-4.7148,0-8,1.5811-8,3s3.2852,3,8,3,8-1.5811,8-3S20.2148,21.5,15.5,21.5Z" />
        <path d="M15.5,29C10.9316,29,6,27.4707,6,25V8H8c.1851.5547,3.0488,2,7.5,2s7.3145-1.4453,7.5039-2.0366L25,8V25C25,27.4707,20.0684,29,15.5,29ZM8,10.4609V25c.1851.5547,3.0488,2,7.5,2s7.3145-1.4453,7.5039-2.0361L23.001,10.46A17.2284,17.2284,0,0,1,15.5,12,17.2383,17.2383,0,0,1,8,10.4609Z" />
      </g>
      <circle cx="19.5" cy="27.5" r="2.5" />
      <path d="M16,23H15V20h1Zm0-5H15V14h1Zm0-6H15V8h1Z" />
    </g>
    <circle cx="15.5" cy="4.5" r="2.5" />
    <path d="M15.5,7A2.5,2.5,0,1,1,18,4.5,2.5026,2.5026,0,0,1,15.5,7Zm0-4A1.5,1.5,0,1,0,17,4.5,1.5016,1.5016,0,0,0,15.5,3Z" />
  </g>
</svg>
