<svg xmlns="http://www.w3.org/2000/svg" width="32" height="32" viewBox="0 0 32 32">
  <title>icon_plan_tool-copter3D</title>
  <path d="M29.8811,6.5115c-.0092-.0175-.0239-.03-.0342-.0473a.9843.9843,0,0,0-.3591-.34c-.0175-.01-.0221-.0292-.0405-.0384l-10-4.981a1.0033,1.0033,0,0,0-.7983-.0417l-8,2.9886c-.0289.0108-.0394.0381-.0665.0508a.9674.9674,0,0,0-.2953.2258.9638.9638,0,0,0-.1224.1253.9821.9821,0,0,0-.106.31.9819.9819,0,0,0-.0516.1937c0,.01-.0071.0168-.0071.0268V9.2755L2.6489,12.0217c-.0289.0108-.0394.0381-.0665.0508a.9674.9674,0,0,0-.2953.2258.9638.9638,0,0,0-.1224.1253.9821.9821,0,0,0-.106.31.9819.9819,0,0,0-.0516.1937c0,.01-.0071.0168-.0071.0268V24.9089a.9958.9958,0,0,0,.5527.891l10,4.981a.9031.9031,0,0,0,.1342.0277.8341.8341,0,0,0,.5189.03.9053.9053,0,0,0,.1453-.0164l16-5.9772A.9962.9962,0,0,0,30,23.9127V6.9772A.9817.9817,0,0,0,29.8811,6.5115ZM12,6.5967l7.9878,3.9787v2.7534L12,9.35Zm6.9429-3.5152,7.5588,3.7651L21.0571,8.88,13.4983,5.1154Zm-8,7.97,7.5443,3.7579L13.0562,16.85,5.4983,13.085ZM4,14.5663l8,3.9848V28.278L4,24.2932Zm24,8.656-14,5.23V18.6257L21.3511,15.88c.0289-.0108.0394-.0381.0665-.0508a1.9026,1.9026,0,0,0,.4177-.3511.98.98,0,0,0,.1061-.3107.9911.9911,0,0,0,.0515-.1934c0-.01.0071-.0168.0071-.0268V10.885l6-2.4279Z"/>
</svg>
