<svg xmlns="http://www.w3.org/2000/svg" width="32" height="32" viewBox="0 0 32 32"><title>icon_image</title><path d="M7.1152,13.1162a1.2521,1.2521,0,0,1,1.77,0L19,23.232l4.1158-4.1158a1.2521,1.2521,0,0,1,1.77,0L30,24.2314V6.961A2.8419,2.8419,0,0,0,27,4H4.9726A2.8474,2.8474,0,0,0,2,7V18.232ZM20,8a4,4,0,1,1-4,4A3.9989,3.9989,0,0,1,20,8Z"/><path d="M24,21.7676,17.7682,28H27.02l.02-.001a2.9924,2.9924,0,0,0,2.2272-.9646Z"/><path d="M17.232,25,8,15.7676l-6,6V25.039A2.8419,2.8419,0,0,0,5,28h9.2314Z"/></svg>