<svg xmlns="http://www.w3.org/2000/svg" viewBox="0 0 32 32" width="32" height="32" ><path d="M8.8,17.56A21.8936,21.8936,0,0,1,1,16.12v3.36a15.7881,15.7881,0,0,0,7.8,1.68,14.671,14.671,0,0,0,7.8-1.8V16A19.6842,19.6842,0,0,1,8.8,17.56Zm4.2,2.4a.96.96,0,0,1,0-1.92,1.0324,1.0324,0,0,1,.96.96h0a.9465.9465,0,0,1-.96.96Z"/><path d="M16.36,15.28C15.64,13.96,12.52,13,8.8,13s-6.84.96-7.56,2.28A16.46,16.46,0,0,0,8.8,16.84,15.06,15.06,0,0,0,16.36,15.28Z"/><path d="M7.36,22.96,3.4,26.92a.8017.8017,0,0,0,0,1.2.8017.8017,0,0,0,1.2,0l2.88-2.88Z"/><path d="M14.2,26.92l-3.96-3.96v2.28L13,28a.8017.8017,0,0,0,1.2,0,.6728.6728,0,0,0,0-1.08Z"/><path d="M9.64,22.36l-.24-.24a.9166.9166,0,0,0-.6-.24h0a.9166.9166,0,0,0-.6.24l-.24.24v2.28h0v5.52a.84.84,0,1,0,1.68,0h0Z"/><path d="M23.7326,13.1926A1.0333,1.0333,0,1,1,24.77,12.1594h0A1.33,1.33,0,0,1,23.7326,13.1926Zm-.83-9.5061a.8166.8166,0,0,1,.83-.8266h0a.8007.8007,0,0,1,.83.7233v5.373a.83.83,0,0,1-1.66,0ZM30.58,10.9194,25.8076,2.3433A2.87,2.87,0,0,0,23.7326,1a2.27,2.27,0,0,0-2.075,1.3433l-4.7724,8.5761a2.6189,2.6189,0,0,0-.1038,2.48A2.3661,2.3661,0,0,0,18.96,14.4326h9.5449a2.7592,2.7592,0,0,0,2.2825-1.1366,2.4007,2.4007,0,0,0-.2075-2.3766Z"/></svg>