<svg xmlns="http://www.w3.org/2000/svg" width="32" height="32" viewBox="0 0 32 32">
  <title>icon_layer-eye-marked</title>
  <path d="M31.9146,14.5566C31.3723,12.3573,24.3787,6,16,6,7.5041,6,.5724,12.5067.0757,14.7622L0,15.1038l.0853.3413C.6317,17.6442,7.6253,24,16,24c8.4908,0,15.4242-6.5067,15.9234-8.7584L32,14.8981Zm-28.69.5054a18.1245,18.1245,0,0,1,8.2279-5.337,6.9111,6.9111,0,0,0,.064,10.5779A19.0766,19.0766,0,0,1,3.2246,15.062Zm17.274,5.2314H20.498a6.9122,6.9122,0,0,0,.03-10.5879,19.0511,19.0511,0,0,1,8.248,5.2333A18.1431,18.1431,0,0,1,20.4986,20.2934Z" fill="#1c1b19"/>
</svg>
