<svg xmlns="http://www.w3.org/2000/svg" width="32" height="32" viewBox="0 0 32 32">
  <title>icon_pitch</title>
  <g>
    <circle cx="14" cy="16.2888" r="1.9992"/>
    <path d="M20.2852,10.5742H7.7149a1.6634,1.6634,0,0,0-1.7139,1.6v8.1133A1.66,1.66,0,0,0,7.6016,21.999H20.2852A1.6537,1.6537,0,0,0,21.9991,20.4V12.2852a1.6827,1.6827,0,0,0-1.6514-1.7129C20.3282,10.5742,20.3047,10.5742,20.2852,10.5742ZM14,20.4a4.1133,4.1133,0,1,1,4.1133-4.1133h0a4.0965,4.0965,0,0,1-4.08,4.1133Z"/>
    <path d="M11.4883,9.4326H16.629a.9023.9023,0,0,0,.914-.8886V8.5186a.8092.8092,0,0,0-.914-.8008H11.4883a.8382.8382,0,0,0-.914.7607.5116.5116,0,0,0,0,.1543C10.5743,9.2041,10.9141,9.4326,11.4883,9.4326Z"/>
  </g>
  <path d="M24.1973,25.7168a.9561.9561,0,0,1,.2754-.6728,13.0493,13.0493,0,0,0,.0879-18.2749.95.95,0,0,1,1.3574-1.33,14.9663,14.9663,0,0,1-.1015,20.9526.9493.9493,0,0,1-1.6192-.6748Z"/>
  <path d="M28.3135,6.2554a.3886.3886,0,0,0-.167-.7188l-3.5586-.83a.4756.4756,0,0,0-.4873.3867l-.0361,3.665a.3885.3885,0,0,0,.66.333Z"/>
  <path d="M28.2784,25.918a.3885.3885,0,0,1-.167.7187l-3.5586.83a.4738.4738,0,0,1-.4873-.3867l-.0362-3.665a.3886.3886,0,0,1,.66-.3331Z"/>
</svg>
