<?xml version="1.0" encoding="utf-8"?>
<!-- Generator: Adobe Illustrator 18.1.1, SVG Export Plug-In . SVG Version: 6.00 Build 0)  -->
<svg version="1.1" id="Layer_1" xmlns="http://www.w3.org/2000/svg" xmlns:xlink="http://www.w3.org/1999/xlink" x="0px" y="0px"
	 viewBox="0 0 18 18" enable-background="new 0 0 18 18" xml:space="preserve">
<g>
	<path d="M12.4229,9.624l-1.8438,4.6079c-0.0952,0.2393-0.3262,0.3931-0.5796,0.3931c-0.019,0-0.0386-0.001-0.0576-0.0024
		c-0.2754-0.0254-0.5015-0.229-0.5557-0.5L7.7983,6.1841L6.5791,9.2319C6.4844,9.4692,6.2549,9.625,5.999,9.625L2.5,9.6257v4.3919
		C2.521,14.918,3.1099,15.5,4,15.5h10.0098l0.0098-0.0005C14.9189,15.4761,15.5,14.8877,15.5,14l-0.0002-4.3842L12.4229,9.624z"/>
	<path d="M5.5757,8.375l1.8433-4.6069c0.1025-0.2573,0.3623-0.4136,0.6372-0.3906c0.2754,0.0254,0.5015,0.229,0.5557,0.5
		l1.5879,7.9385l1.2192-3.0479c0.0942-0.2368,0.3232-0.3926,0.5786-0.3931l3.5022-0.0092l-0.0002-4.3853
		C15.4761,3.0811,14.8877,2.5,14,2.5H3.9868C3.0835,2.5234,2.5,3.1118,2.5,4v4.3757L5.5757,8.375z"/>
</g>
</svg>
