<svg xmlns="http://www.w3.org/2000/svg" width="32" height="32" viewBox="0 0 32 32">
  <title>icon_safety-waypoint</title>
  <path d="M18.2568,19.1387a1.6192,1.6192,0,0,1,1.5069-1.3028A9.0242,9.0242,0,0,0,21.35,17.58c.1963-.3067.3359-.5352.4014-.6592a11.5039,11.5039,0,0,0,.91-2.3047.5838.5838,0,0,0,.03-.0537c.0195-.0791.0254-.1611.05-.2373.0781-.3291.1445-.665.1943-1.0049.0225-.13.0489-.2578.0606-.3887A11.4745,11.4745,0,0,0,13.2217.1372,12.1741,12.1741,0,0,0,11.5449,0,11.65,11.65,0,0,0,0,11.5439a11.4291,11.4291,0,0,0,1.2852,5.2872C1.8828,17.9854,11.5029,32,11.5029,32s3.58-5.1514,6.5166-9.4551A16.0787,16.0787,0,0,1,18.2568,19.1387ZM11.543,20.52a8.7847,8.7847,0,1,1,8.7841-8.7851A8.7854,8.7854,0,0,1,11.543,20.52Z"/>
  <path d="M31.8037,20.417a.6345.6345,0,0,0-.5869-.5166,8.4355,8.4355,0,0,1-2.6855-.6123,6.6355,6.6355,0,0,1-2.0459-1.8526c-.1143-.1406-.2793-.4355-.4532-.4355h-.0644c-.1748,0-.3379.2949-.4512.4355a7.2171,7.2171,0,0,1-2.0684,1.754,9.6028,9.6028,0,0,1-2.6591.6591.6637.6637,0,0,0-.5889.542c-.0186.086-1.7637,8.628,5.4043,11.5264a1.0569,1.0569,0,0,0,.7959.01C33.5439,28.9512,31.8242,20.5,31.8037,20.417Z"/>
</svg>
