<svg xmlns="http://www.w3.org/2000/svg" width="32" height="32" viewBox="0 0 32 32">
  <title>icon_stop</title>
  <g>
    <path d="M26.6509,13.4975H25.3354v1.9752h1.4818a1.0086,1.0086,0,0,0,1.1133-.9885C27.9307,13.7886,27.4373,13.4975,26.6509,13.4975Z"/>
    <path d="M19.0659,13.39c-1.2985,0-1.9374.9507-1.9374,2.287s.4461,2.461,1.9374,2.461c1.4421,0,1.9374-1.1247,1.9374-2.461S20.3644,13.39,19.0659,13.39Z"/>
    <path d="M29.4617,8.2525l-5.714-5.72A5.4338,5.4338,0,0,0,20.043,1H11.957A5.48,5.48,0,0,0,8.2542,2.529L2.51,8.2751A5.5232,5.5232,0,0,0,1,11.9553v8.0908a5.4383,5.4383,0,0,0,1.5366,3.7l5.7271,5.7366A5.4562,5.4562,0,0,0,11.957,31H20.043a5.4773,5.4773,0,0,0,3.7009-1.53l5.7347-5.7366A5.461,5.461,0,0,0,31,20.0459V11.9553A5.4478,5.4478,0,0,0,29.4617,8.2525ZM5.5269,19.4155c-2.0149,0-2.9164-1.0074-2.9164-1.7634a.6377.6377,0,0,1,.6672-.6577c.8619,0,.6408,1.2588,2.2492,1.2588.8241,0,1.2778-.4556,1.2778-.9205,0-.28-.1361-.59-.6766-.7258L4.336,16.1513c-1.4441-.3685-1.7048-1.1625-1.7048-1.909,0-1.55,1.4327-2.13,2.7784-2.13,1.24,0,2.7029.6976,2.7029,1.6274a.66.66,0,0,1-.7258.6294c-.7372,0-.601-1.0359-2.083-1.0359-.7372,0-1.1435.3383-1.1435.8222s.58.6391,1.085.7562l1.3268.3006c1.4536.3288,1.82,1.1907,1.82,2.0054C8.3922,18.4762,7.4435,19.4155,5.5269,19.4155Zm8.8173-5.8026H12.8418V18.582a.7939.7939,0,1,1-1.5879,0V13.6129H9.7533c-.4574,0-.8241-.2325-.8241-.6672,0-.4366.3668-.6691.8241-.6691h4.5912c.4556,0,.8222.2325.8222.6691C15.1665,13.38,14.8,13.6129,14.3443,13.6129Zm4.7216,5.8026c-2.5007,0-3.5251-1.6274-3.5251-3.7386a3.31,3.31,0,0,1,3.5251-3.5648,3.31,3.31,0,0,1,3.5251,3.5648A3.4314,3.4314,0,0,1,19.0659,19.4155Zm8.0311-2.7217H25.3354V18.582a.7948.7948,0,1,1-1.59,0V13.2064c0-.7068.3685-.93.93-.93h2.4325A2.1262,2.1262,0,0,1,29.52,14.484,2.1791,2.1791,0,0,1,27.0971,16.6938Z"/>
  </g>
</svg>
