<svg xmlns="http://www.w3.org/2000/svg" width="32" height="32" viewBox="0 0 32 32"><title>icon_oa-2</title><path d="M7.2269,5.1058a13.9438,13.9438,0,0,1,17.5462,0l1.4294-1.4294a15.9948,15.9948,0,0,0-20.405,0Z"/><path d="M28.3236,26.2025a15.9948,15.9948,0,0,0,0-20.405L26.8942,7.2269a13.9438,13.9438,0,0,1,0,17.5462Z"/><path d="M5.1058,24.7731a13.9438,13.9438,0,0,1,0-17.5462L3.6764,5.7975a15.9948,15.9948,0,0,0,0,20.405Z"/><path d="M24.7731,26.8942a13.9438,13.9438,0,0,1-17.5462,0L5.7975,28.3236a15.9948,15.9948,0,0,0,20.405,0Z"/><path d="M13.0961,18.9165a.503.503,0,0,0,.5342.0792l2.3714-1.3722,2.3564,1.3673q.3794.1138.5441-.0693a.5159.5159,0,0,0,.04-.54L16.416,13.48q-.18-.4455-.4243-.4405t-.4343.45l-2.4563,4.808Q12.9015,18.7235,13.0961,18.9165Z"/></svg>