<svg xmlns="http://www.w3.org/2000/svg" width="32" height="32" viewBox="0 0 32 32">
  <title>icon_frontlap</title>
  <path d="M28.0032,9.67H3.972A3.7966,3.7966,0,0,0,.4189,11.8413a1.9529,1.9529,0,0,0-.4157,1.1619v14.05a3.7876,3.7876,0,0,0,4,3.95H28.05a3.8242,3.8242,0,0,0,3.9531-4l-.0013-13.3853A3.788,3.788,0,0,0,28.0032,9.67Zm-.0168,17.3333h-.01L4.0032,26.9861,4.02,13.67l23.9832.0171Z"/>
  <g>
    <path d="M6.1309,20.4011a1.7021,1.7021,0,0,0-1.7021-1.7021H3.4074V17.6777a1.7021,1.7021,0,1,0-3.4043,0v2.7234a1.7021,1.7021,0,0,0,1.7021,1.7021H4.4287A1.7021,1.7021,0,0,0,6.1309,20.4011Z"/>
    <path d="M3.4074,5.4223V4.4011H4.4287a1.7021,1.7021,0,1,0,0-3.4043H1.7053A1.7021,1.7021,0,0,0,.0032,2.6989V5.4223a1.7021,1.7021,0,1,0,3.4043,0Z"/>
    <path d="M25.8755,2.6989a1.7021,1.7021,0,0,0,1.7021,1.7021h1.0213V5.4223a1.7021,1.7021,0,0,0,3.4043,0V2.6989A1.7021,1.7021,0,0,0,30.3011.9968H27.5777A1.7021,1.7021,0,0,0,25.8755,2.6989Z"/>
    <path d="M28.5989,17.6777v1.0213H27.5777a1.7021,1.7021,0,0,0,0,3.4043h2.7234a1.7021,1.7021,0,0,0,1.7021-1.7021V17.6777a1.7021,1.7021,0,1,0-3.4043,0Z"/>
    <path d="M8.1734,2.6989A1.7021,1.7021,0,0,0,9.8755,4.4011h.6809a1.7021,1.7021,0,0,0,0-3.4043H9.8755A1.7019,1.7019,0,0,0,8.1734,2.6989Z"/>
    <path d="M14.3011,2.6989a1.7021,1.7021,0,0,0,1.7021,1.7021h.6809a1.7021,1.7021,0,1,0,0-3.4043h-.6809A1.7019,1.7019,0,0,0,14.3011,2.6989Z"/>
    <path d="M8.1734,20.4011a1.7021,1.7021,0,0,0,1.7021,1.7021h.6809a1.7021,1.7021,0,0,0,0-3.4043H9.8755A1.7019,1.7019,0,0,0,8.1734,20.4011Z"/>
    <path d="M14.3011,20.4011a1.7021,1.7021,0,0,0,1.7021,1.7021h.6809a1.7021,1.7021,0,0,0,0-3.4043h-.6809A1.7019,1.7019,0,0,0,14.3011,20.4011Z"/>
    <path d="M20.0883,2.6989A1.7021,1.7021,0,0,0,21.79,4.4011h.6809a1.7021,1.7021,0,1,0,0-3.4043H21.79A1.7019,1.7019,0,0,0,20.0883,2.6989Z"/>
    <path d="M20.0883,20.4011A1.7021,1.7021,0,0,0,21.79,22.1032h.6809a1.7021,1.7021,0,1,0,0-3.4043H21.79A1.7019,1.7019,0,0,0,20.0883,20.4011Z"/>
  </g>
</svg>
