<svg xmlns="http://www.w3.org/2000/svg" width="32" height="32" viewBox="0 0 32 32">
  <title>icon_yaw</title>
  <g>
    <ellipse cx="16.0645" cy="14.0928" rx="2" ry="2.0044"/>
    <path d="M22.35,8.3657H9.7793A1.6651,1.6651,0,0,0,8.0645,9.97v8.1319a1.6614,1.6614,0,0,0,1.6016,1.7148H22.35a1.6565,1.6565,0,0,0,1.7149-1.6016V10.0815a1.6857,1.6857,0,0,0-1.6524-1.7177C22.3926,8.3657,22.3692,8.3657,22.35,8.3657Zm-6.2851,9.8491A4.1226,4.1226,0,1,1,20.1778,14.09h0a4.1014,4.1014,0,0,1-4.08,4.1245Z"/>
    <path d="M13.5528,7.2212h5.1406a.9028.9028,0,0,0,.9141-.8906V6.3052a.81.81,0,0,0-.9141-.8013H13.5528a.8376.8376,0,0,0-.9141.7612.5149.5149,0,0,0,0,.1548C12.6387,6.9922,12.9786,7.2212,13.5528,7.2212Z"/>
  </g>
  <g>
    <path d="M6.4121,22.332a.9563.9563,0,0,1,.6729.2754,13.05,13.05,0,0,0,18.2754.0879.95.95,0,0,1,1.33,1.3574,14.9671,14.9671,0,0,1-20.9532-.1015.9493.9493,0,0,1,.6748-1.6192Z"/>
    <path d="M25.8741,26.3779a.3885.3885,0,0,0,.7187-.167l.83-3.5586a.4757.4757,0,0,0-.3867-.4873l-3.6651-.0361a.3885.3885,0,0,0-.333.66Z"/>
    <path d="M6.3848,26.3779a.3885.3885,0,0,1-.7187-.167l-.83-3.5586a.4739.4739,0,0,1,.3867-.4873l3.665-.0361a.3885.3885,0,0,1,.333.66Z"/>
  </g>
</svg>
