<?xml version="1.0" encoding="utf-8"?>
<svg version="1.0" id="Layer_1" xmlns="http://www.w3.org/2000/svg" xmlns:xlink="http://www.w3.org/1999/xlink" x="0px" y="0px"
	 width="40px" height="40px" viewBox="0 0 40 40" enable-background="new 0 0 40 40" xml:space="preserve">
<title>icon_connection_ok</title>
<path d="M26.9726,24.9655l-5.2082,5.2082L16.77,25.1792l5.2079-5.2079l-1.9473-1.9487l-5.2079,5.2053l-4.9954-4.9937l5.2079-5.2053
	l-0.9744-0.9746l-5.0239,5.0247l0,0l-4.0493,4.0493C3.7095,22.353,3.6663,24.3819,4.891,25.66
	c0.0315,0.0329,0.0637,0.0651,0.0966,0.0966l2.8929,2.8929l-3.476,3.4746l3.4669,3.4691l3.4758-3.4763l2.8965,2.8965
	c1.2246,1.278,3.2534,1.3213,4.5315,0.0967c0.0329-0.0315,0.0651-0.0638,0.0967-0.0967l4.6284-4.6281l0,0l4.4463-4.4456
	L26.9726,24.9655z"/>
<path d="M34.9801,14.5796l-2.9905-2.9908l3.5849-3.5849l-3.5801-3.5804l-3.5852,3.5849l-2.9886-2.9886
	c-1.2649-1.32-3.3604-1.3646-4.6804-0.0996c-0.0339,0.0325-0.0671,0.0657-0.0996,0.0996l-5.7867,5.7867l2.5796,2.5794
	l-5.3785,5.3763l2.0123,2.0106l5.3785-5.3756l5.1573,5.159l-5.3777,5.3785l2.0111,2.0111l5.3785-5.3785l2.5789,2.5789l5.7858-5.7846
	c1.3207-1.2657,1.3652-3.3624,0.0995-4.6831C35.0468,14.645,35.0138,14.6119,34.9801,14.5796z"/>
</svg>
