<svg xmlns="http://www.w3.org/2000/svg" width="32" height="32" viewBox="0 0 32 32">
  <path d="M9.034,12.668 C8.58999778,12.668 8.14000228,12.7519992 7.684,12.92 C7.22799772,13.0880008 6.82600174,13.3099986 6.478,13.586 L5.362,11.984 C6.55000594,11.0479953 7.91199232,10.58 9.448,10.58 C10.7320064,10.58 11.7249965,10.8709971 12.427,11.453 C13.1290035,12.0350029 13.48,12.8719945 13.48,13.964 C13.48,14.756004 13.2910019,15.4579969 12.913,16.07 C12.5349981,16.6820031 11.9380041,17.2999969 11.122,17.924 L9.232,19.4 C8.91999844,19.6400012 8.65900105,19.8769988 8.449,20.111 C8.23899895,20.3450012 8.08000054,20.6179984 7.972,20.93 L13.426,20.93 L13.426,23 L5.308,23 L5.308,21.866 C5.308,21.0979962 5.49699811,20.3930032 5.875,19.751 C6.25300189,19.1089968 6.78399658,18.5240026 7.468,17.996 L9.502,16.43 C9.95800228,16.0819983 10.2939989,15.7310018 10.51,15.377 C10.7260011,15.0229982 10.834,14.6300022 10.834,14.198 C10.834,13.1779949 10.234006,12.668 9.034,12.668 Z M26.854,16.79 C26.854,17.7620049 26.7190013,18.6319962 26.449,19.4 C26.1789987,20.1680038 25.7830026,20.8189973 25.261,21.353 C24.7389974,21.8870027 24.0940038,22.2949986 23.326,22.577 C22.5579962,22.8590014 21.670005,23 20.662,23 L16.414,23 L16.414,10.58 L20.662,10.58 C21.670005,10.58 22.5579962,10.7209986 23.326,11.003 C24.0940038,11.2850014 24.7389974,11.6929973 25.261,12.227 C25.7830026,12.7610027 26.1789987,13.4119962 26.449,14.18 C26.7190013,14.9480038 26.854,15.8179951 26.854,16.79 Z M24.118,16.79 C24.118,15.3619929 23.8420028,14.3210033 23.29,13.667 C22.7379972,13.0129967 21.8320063,12.686 20.572,12.686 L19.042,12.686 L19.042,20.894 L20.572,20.894 C21.8320063,20.894 22.7379972,20.5670033 23.29,19.913 C23.8420028,19.2589967 24.118,18.2180071 24.118,16.79 Z"/>
</svg>
