<svg xmlns="http://www.w3.org/2000/svg" width="64" height="64" viewBox="0 0 64 64">
  <title>icon_modePhoto</title>
  <g>
    <circle cx="32.1411" cy="39.5" r="9.6"/>
    <path d="M57.284,16.6429H6.9983a6.642,6.642,0,0,0-6.8571,6.4V55.5a6.642,6.642,0,0,0,6.4,6.8571H57.284a6.642,6.642,0,0,0,6.8571-6.4V23.5a6.7323,6.7323,0,0,0-6.8571-6.8571ZM32.1411,55.9571A16.4571,16.4571,0,1,1,48.5983,39.5h0A16.3887,16.3887,0,0,1,32.1411,55.9571Z"/>
    <path d="M22.084,12.0714H42.6554a3.6057,3.6057,0,0,0,3.6571-3.6571c0-2.2857-1.8286-3.2-3.6571-3.2H22.084a3.3645,3.3645,0,0,0-3.6571,3.6571C18.4269,11.1571,19.7983,12.0714,22.084,12.0714Z"/>
  </g>
</svg>
