<svg xmlns="http://www.w3.org/2000/svg" width="32" height="32" viewBox="0 0 32 32">
  <title>icon_height</title>
  <path d="M19.9976,31a.9994.9994,0,0,1,1-1h10a1,1,0,1,1,0,2h-10A.9994.9994,0,0,1,19.9976,31Z"/>
  <path d="M19.9976,1a.9994.9994,0,0,1,1-1h10a1,1,0,0,1,0,2h-10A.9994.9994,0,0,1,19.9976,1Z"/>
  <path d="M31.0293,22H28V10h3.0293a.8552.8552,0,0,0,.6865-1.4717L26.6831,2.2529a1.051,1.051,0,0,0-1.3672,0L20.2808,8.53A.8545.8545,0,0,0,20.9663,10H24V22H20.9663a.8545.8545,0,0,0-.6855,1.47l5.0351,6.2783a1.0509,1.0509,0,0,0,1.3672,0l5.0327-6.2763A.855.855,0,0,0,31.0293,22Z"/>
  <path d="M12,4V28H4V4h8m-.0132-2H4.0083A2.0057,2.0057,0,0,0,2,4.0049V27.9961A2.0061,2.0061,0,0,0,4.0083,30h7.9785A2.01,2.01,0,0,0,14,27.9961V4.0049A2.0087,2.0087,0,0,0,11.9883,2Z"/>
</svg>
