<svg xmlns="http://www.w3.org/2000/svg" width="32" height="32" viewBox="0 0 32 32">
  <title>icon_menu-layers</title>
  <path d="M30.32,13.9632,28.3168,13.02l2.0036-.943c2.2395-1.0607,2.2395-3.3,0-4.243L18.77,2.53a7.4956,7.4956,0,0,0-5.54,0L1.68,7.8343c-2.2395,1.0607-2.2395,3.3,0,4.243l2.0036.943L1.68,13.9632c-2.2395,1.0607-2.2395,3.3,0,4.2431l2.0036.9429L1.68,20.0921c-2.2395,1.0608-2.2395,3.3,0,4.2431L13.23,29.639a7.4956,7.4956,0,0,0,5.54,0L30.32,24.3352c2.2395-1.0608,2.2395-3.3,0-4.2431l-2.0036-.9429,2.0036-.9429C32.56,17.2633,32.56,15.0239,30.32,13.9632ZM14.1731,4.8877a4.3067,4.3067,0,0,1,3.4181,0L28.67,10.0737,17.5912,15.26a4.3075,4.3075,0,0,1-3.4181,0L3.0939,10.0737ZM28.67,22.2136,17.5912,27.4a4.3067,4.3067,0,0,1-3.4181,0L3.0939,22.2136l3.6538-1.7679,6.6,3.0644a7.4956,7.4956,0,0,0,5.54,0l6.9539-3.1823-.5893.2357Zm-11.0792-.825a4.3075,4.3075,0,0,1-3.4181,0L3.0939,16.2026l3.6538-1.768,6.6,3.0645a7.4956,7.4956,0,0,0,5.54,0l6.3646-2.9466,3.4181,1.65Z"/>
</svg>
