<svg xmlns="http://www.w3.org/2000/svg" width="32" height="32" viewBox="0 0 32 32"><title>icon_uav-link</title><path d="M10.1992,12.0037a8.2136,8.2136,0,0,1,5.799-2.6,9.0555,9.0555,0,0,1,5.9989,2.6l-2,2a5.6573,5.6573,0,0,0-3.9992-1.8,4.9246,4.9246,0,0,0-3.7993,1.8Z"/><path d="M6,8.2044a13.1343,13.1343,0,0,1,9.9982-4.1993,13.1341,13.1341,0,0,1,9.9981,4.1993l-2,1.8a12.2831,12.2831,0,0,0-7.9985-3.1994A9.8094,9.8094,0,0,0,8,10.204Z"/><path d="M15.9982,26.401,23.9967,32l-5.599-12.9976a2.5369,2.5369,0,0,0,.2-1.2,2.8,2.8,0,1,0-5.599,0,2.89,2.89,0,0,0,.4,1.4L8,32Zm-3.7993.4,1-2.4,1.2.8Zm3.7993-6.3989a1.4987,1.4987,0,0,0,1-.2l1,2.5995-2,1.4-2-1.4,1-2.4Zm1.6,4.7991,1.2-.8,1,2.4Z"/></svg>