<svg xmlns="http://www.w3.org/2000/svg" width="32" height="32" viewBox="0 0 32 32">
  <title>icon-world-map</title>
  <path d="M16,1A15,15,0,1,0,31,16,15,15,0,0,0,16,1ZM26.3847,19.4614l-1.1539-1.1539-2.3077,5.7692,1.9659.9829a12.7228,12.7228,0,0,1-3.0534,2.2067l-3.5278-.8813H14.8461l-4.2836,1.0712a12.7247,12.7247,0,0,1-5.4276-4.9191l.7776-3.9821L5.73,15.0981,4.4313,10.8606A12.7,12.7,0,0,1,12.05,3.9342q.0969-.0315.1946-.0529l2.6012,1.7342L13.6922,7.9231H12.5386L11.3847,9.0769l-1.1539,1.1539,2.3078,1.1539h1.1539l-2.3078,1.1539-1.1539,1.1539v3.4614l2.3078,1.1539,1.1539,1.1539,1.1539,4.6153,3.4614-1.1539,1.1539-3.4616,1.1539-2.3077V14.8461l1.1539-1.1539,1.1539,1.1539L25.2308,16l1.1539-2.3078,1.1539,3.4614Z"/>
</svg>
