<?xml version="1.0" encoding="utf-8"?>
<!-- Generator: Adobe Illustrator 21.0.2, SVG Export Plug-In . SVG Version: 6.00 Build 0)  -->
<svg version="1.1" id="Layer_1" xmlns="http://www.w3.org/2000/svg" xmlns:xlink="http://www.w3.org/1999/xlink" x="0px" y="0px"
	 width="40px" height="40px" viewBox="0 0 40 40" style="enable-background:new 0 0 40 40;" xml:space="preserve">
<title>icon_connection_lost</title>
<g>
	<path d="M10.3,15.9l2,2l5.4-5.4l5.2,5.2l-5.4,5.4l2,2l5.4-5.4l0.9,0.9c1.4-0.7,2.9-1,4.5-1.1l3.1-3.1c0,0,2.4-2.4,0-4.8l-3-3
		L34,5.1l-3.6-3.6l-3.6,3.6l-3-3c0,0-2.4-2.4-4.8,0l-5.8,5.8l2.6,2.6L10.3,15.9z"/>
	<path d="M30.6,22.2c-4.6,0-8.4,3.8-8.4,8.4S26,39,30.6,39s8.4-3.8,8.4-8.4S35.2,22.2,30.6,22.2z M24.4,30.6c0-3.4,2.8-6.2,6.2-6.2
		c1.4,0,2.7,0.5,3.8,1.3L25.5,34C24.8,33,24.4,31.9,24.4,30.6z M30.6,36.8c-1.3,0-2.5-0.4-3.5-1.1l8.8-8.2c0.6,0.9,0.9,2,0.9,3.2
		C36.8,34,34,36.8,30.6,36.8z"/>
	<path d="M14.3,23.1l5.4-5.4l-2-2l-5.4,5.4l-5.2-5.2l5.4-5.4l-1-1l-5.2,5.2l0,0l-4.2,4.2c0,0-2.4,2.4,0,4.8l3,3l-3.6,3.6L5.1,34
		l3.6-3.6l3,3c0,0,2.4,2.4,4.8,0l3.1-3.1c0-0.8,0.1-1.6,0.3-2.4l-0.4,0.4L14.3,23.1z"/>
</g>
</svg>
