<svg xmlns="http://www.w3.org/2000/svg" width="32" height="32" viewBox="0 0 32 32">
  <title>icon-warning</title>
  <path d="M15.9285,27.8429a2.2943,2.2943,0,1,1,2.2943-2.2943A2.4672,2.4672,0,0,1,15.9285,27.8429ZM14.0931,6.9651A1.81,1.81,0,0,1,15.8762,5.13h.0523a1.6885,1.6885,0,0,1,1.8354,1.8354V18.6658a1.8354,1.8354,0,0,1-3.6708,0Zm16.9775,15.83L20.517,3.9825A5.94,5.94,0,0,0,15.9285,1,5.19,5.19,0,0,0,11.34,3.9825L.7863,22.7955a6.0259,6.0259,0,0,0-.2294,5.5062,5.0214,5.0214,0,0,0,4.8179,2.2943H26.482a6.1539,6.1539,0,0,0,5.0474-2.5237A5.4833,5.4833,0,0,0,31.0706,22.7955Z"/>
</svg>
