<svg xmlns="http://www.w3.org/2000/svg" width="32" height="32" viewBox="0 0 32 32"><title>icon_fp_rth</title><path d="M11.1434,18H6l6.4308-6H4L0,10V2H2L4,6h8L6,0h5.0878L20,6h8c2,0,4.0481,1.2489,4,3-.0479,1.7389-2,3-4,3H20.168"/><path d="M19.6815,29.8637h6.7742c1.8706,0,3.3871-2.2569,3.3871-5.3871,0-3.6451-1.5165-5.3871-3.3871-5.3871H19.5108V17.3408a.5079.5079,0,0,0-.8669-.3593l-2.6523,2.6521a.508.508,0,0,0,0,.7184l2.6523,2.6523a.5079.5079,0,0,0,.867-.36V20.8956h6.9449c.8729,0,1.5806,1.318,1.5806,3.5807,0,2.0519-.7077,3.5806-1.5806,3.5806H19.6815"/></svg>