<svg xmlns="http://www.w3.org/2000/svg" width="32" height="32" viewBox="0 0 32 32"><title>icon_data-cloud-warning</title><path d="M22.0621,28.4286a1.0932,1.0932,0,1,1,1.0932-1.0932h0A1.1029,1.1029,0,0,1,22.0621,28.4286Zm-.8944-10.3354a.8907.8907,0,0,1,.8944-.8944h0a.8117.8117,0,0,1,.8944.795v5.9627a.8944.8944,0,0,1-1.7888,0Zm8.4472,7.8509-5.2671-9.3416a3.0659,3.0659,0,0,0-2.2857-1.4907,2.5108,2.5108,0,0,0-2.2857,1.4907l-5.2671,9.3416a3.0472,3.0472,0,0,0-.0994,2.7826A2.3466,2.3466,0,0,0,16.795,29.82H27.3292a3.1076,3.1076,0,0,0,2.4845-1.292A2.6765,2.6765,0,0,0,29.6149,25.9441Z"/><path d="M14.8075,20.0807H6.2609a3.3577,3.3577,0,0,1-3.18-3.5776h0A3.5212,3.5212,0,0,1,6.559,13.0248h0a2.7508,2.7508,0,0,1,.8944.0994c.0994,0,.0994,0,.0994-.0994a3.148,3.148,0,0,1-.8944-2.2857,3.3086,3.3086,0,0,1,3.28-3.28,3.5067,3.5067,0,0,1,3.0807,1.9876c0,.0994.0994.0994.0994,0A5.66,5.66,0,0,1,18.882,3.882h.1987a5.98,5.98,0,0,1,5.9628,5.9627h0a5.6257,5.6257,0,0,1-.2982,1.7888c0,.0994,0,.0994.0994.0994h0a4.221,4.221,0,0,1,4.1739,4.2733v.0994a3.911,3.911,0,0,1-.5962,2.0869l1.59,2.7827A6.693,6.693,0,0,0,32,16.205c0-3.18-1.1925-5.5652-4.2733-6.559A8.4019,8.4019,0,0,0,19.677,1H19.18c-4.0745,0-6.36,1.8882-7.5528,4.2733A5.6979,5.6979,0,0,0,9.1429,4.677,5.4092,5.4092,0,0,0,3.677,9.9441a4.837,4.837,0,0,0,.0994,1.1925C1.2919,11.8323,0,13.9193,0,16.8012a6.2582,6.2582,0,0,0,6.1615,6.1615h7.0559Z"/></svg>