<svg xmlns="http://www.w3.org/2000/svg" width="32" height="32" viewBox="0 0 32 32">
  <title>icon_menu-analytics</title>
  <path d="M19.8571,15.0857V10.4A2.7982,2.7982,0,0,0,17,7.5429H3.8571A2.7982,2.7982,0,0,0,1,10.4V23.5429A2.7982,2.7982,0,0,0,3.8571,26.4H14.4857A7.67,7.67,0,0,1,13.8,23.2,8.3663,8.3663,0,0,1,19.8571,15.0857Z"/>
  <path d="M18.8286,5.6a2.7982,2.7982,0,0,1,2.8571,2.8571v6.1715c.2286,0,.4572-.1143.6857-.1143.4572,0,.8.1143,1.2572.1143V6.5143a2.7983,2.7983,0,0,0-2.8572-2.8572H7.6286A2.72,2.72,0,0,0,4.8857,5.6a1.6946,1.6946,0,0,1,.8-.1143H18.8286Z"/>
  <path d="M30.9429,30.1714,27.2857,26.4a5.4443,5.4443,0,0,0,1.0286-3.3143,5.9429,5.9429,0,1,0-5.9429,5.9429A5.4443,5.4443,0,0,0,25.6857,28l3.6572,3.6571a1.2343,1.2343,0,0,0,.8.3429,1.0376,1.0376,0,0,0,.8-.3429A.9745.9745,0,0,0,30.9429,30.1714Zm-8.5715-3.4285a3.6572,3.6572,0,0,1,0-7.3143,3.61,3.61,0,0,1,3.6572,3.6571A3.7591,3.7591,0,0,1,22.3714,26.7429Z"/>
  <path d="M22.6,1.8286a2.7982,2.7982,0,0,1,2.8571,2.8571V15.2a5.7944,5.7944,0,0,1,1.8286,1.0286V2.8571A2.6714,2.6714,0,0,0,24.5429,0H11.4A2.72,2.72,0,0,0,8.6571,1.9429a1.6946,1.6946,0,0,1,.8-.1143Z"/>
</svg>
