<svg xmlns="http://www.w3.org/2000/svg" width="16" height="16" viewBox="0 0 16 16">
  <g >
    <path d="M13,5.64121682 L13,14.5 C13,16 11.5,16 11.5,16 L4.5,16 C3.83728602,16 3.46736525,15.7072068 3.26087893,15.3803379 L4.5,14.1412168 L4.5,14.5 L11.5,14.5 L11.5,7.14121682 L13,5.64121682 Z M3,9.98436257 L3,3.5 C3,2 4.5,2 4.5,2 L6,2 L6,0.839 C6,0 6.839,0 6.839,0 L9.16,0 C10,0 10,0.839 10,0.839 L10,2 L10.9843626,2 L9.48436257,3.5 L6,3.5 L4.5,3.5 L4.5,8.48436257 L3,9.98436257 Z"/>
    <polygon points="13.801 1 15 2.193 2.193 15 1 13.807"/>
  </g>
</svg>
