<svg xmlns="http://www.w3.org/2000/svg" width="32" height="32" viewBox="0 0 32 32"><title>icon_data-no-connection</title><path d="M7.7916,12.4932l1.7006,1.7006,4.6016-4.6016,4.4015,4.4015-4.6016,4.6016,1.7006,1.7006,4.6016-4.6016.8.8a9.2446,9.2446,0,0,1,3.8013-.9l2.6009-2.6009a2.8742,2.8742,0,0,0,0-4.1014L24.8975,6.3911,27.8986,3.39,24.8975.389,21.8965,3.39,19.3956.8892a2.8742,2.8742,0,0,0-4.1014,0L10.3925,5.7909l2.2008,2.2008Z"/><path d="M24.8975,17.695A7.1025,7.1025,0,1,0,32,24.7975,7.13,7.13,0,0,0,24.8975,17.695Zm-5.2018,7.1025a5.2029,5.2029,0,0,1,8.4029-4.1014L20.596,27.6985A5.5283,5.5283,0,0,1,19.6957,24.7975Zm5.2018,5.2018a5.391,5.391,0,0,1-3.001-1l7.4026-6.9024a5.0314,5.0314,0,0,1,.8,2.7009A5.1662,5.1662,0,0,1,24.8975,29.9993Z"/><path d="M11.1928,18.4953l4.6016-4.6016-1.7006-1.7006L9.4922,16.7947,5.0907,12.3932,9.6923,7.7916l-.9-.9L4.39,11.2928h0L.8892,14.794a2.8743,2.8743,0,0,0,0,4.1015L3.39,21.3963.389,24.3974,3.39,27.3984l3.001-3.001L8.892,26.8982a2.8742,2.8742,0,0,0,4.1014,0l2.6009-2.6009a6.9311,6.9311,0,0,1,.3-2.0007l-.3.6Z"/></svg>