<svg xmlns="http://www.w3.org/2000/svg" width="32" height="32" viewBox="0 0 32 32">
  <title>icon_latitude</title>
  <path d="M16,2A14,14,0,1,1,2,16,14.0151,14.0151,0,0,1,16,2m0-2A16,16,0,1,0,32,16,16,16,0,0,0,16,0Z"/>
  <path d="M16,31.5C10.3926,31.5,6,24.6914,6,16S10.3926.5,16,.5,26,7.3086,26,16,21.6074,31.5,16,31.5Zm0-29C11.5889,2.5,8,8.5562,8,16s3.5889,13.5,8,13.5,8-6.0557,8-13.5S20.4111,2.5,16,2.5Z"/>
  <path d="M15.5161,10.9468A38.9965,38.9965,0,0,1,2.8535,9.084L3.5518,7.21c.1049.0381,10.6845,3.854,24.92-.0274l.5254,1.93A51.2051,51.2051,0,0,1,15.5161,10.9468Z"/>
  <path d="M3.4663,25.9l-.5264-1.93c14.8892-4.0586,25.691-.1416,26.1441.0283l-.6983,1.874C28.2813,25.833,17.6992,22.0176,3.4663,25.9Z"/>
  <rect x="1" y="14" width="30" height="4"/>
</svg>
