<svg xmlns="http://www.w3.org/2000/svg" width="32" height="32" viewBox="0 0 32 32">
  <title>icon_plan_tool-suggestion</title>
  <g transform="scale(1.5) translate(2.5,2.5)">
    <path fill="black" d="M7.9327,1.0012A4.8316,4.8316,0,0,0,3,5.6491a4.8776,4.8776,0,0,0,1.7085,3.27,2.3423,2.3423,0,0,1,.79,1.5432V10.72l.0827.5971h4.6663l.0643-.7532A2.5168,2.5168,0,0,1,11.23,8.8181,4.7306,4.7306,0,0,0,12.8378,5.64,4.8408,4.8408,0,0,0,7.9327,1.0012m2.4342,6.8065A3.8947,3.8947,0,0,0,9.0533,9.9571H6.84A3.8028,3.8028,0,0,0,5.6,7.8812,3.4446,3.4446,0,0,1,4.3778,5.6491a3.4538,3.4538,0,0,1,3.5548-3.27,3.4538,3.4538,0,0,1,3.5548,3.2793,3.4905,3.4905,0,0,1-1.139,2.1494"/>
    <path fill="black" d="M9.77,12.0147H6.0955a.5787.5787,0,0,0,0,1.1482H9.77a.5787.5787,0,0,0,0-1.1482"/>
    <path fill="black" d="M9.77,13.8518H6.0955a.5787.5787,0,0,0,0,1.1482H9.77a.5787.5787,0,0,0,0-1.1482"/>
    <path fill="black" d="M10.027,4.3815a.5787.5787,0,0,0-.7716.2572L7.9327,7.2933,6.61,4.6386a.5751.5751,0,1,0-1.0288.5144L7.4183,8.8273a.56.56,0,0,0,.101.147h0a.5511.5511,0,0,0,.1837.1286.56.56,0,0,0,.22,0h.0092a.57.57,0,0,0,.23-.0459.5879.5879,0,0,0,.1837-.1194h0a.5419.5419,0,0,0,.11-.1562l1.8371-3.6742a.57.57,0,0,0-.2471-.7666l-.01-.005"/>
  </g>
</svg>
