<svg xmlns="http://www.w3.org/2000/svg" width="32" height="32" viewBox="0 0 32 32">
  <title>icon_scanpattern-leftright</title>
  <path d="M23.4688,31.6581l6.0626-6.0626a1.1611,1.1611,0,0,0,0-1.6421h0l-6.0626-6.0626a1.16,1.16,0,0,0-1.9819.8219V22.71H9.0375L6.8469,15.484H21.2683a2.0645,2.0645,0,0,0,1.9757-1.4659L26.6856,2.663A2.0645,2.0645,0,0,0,24.71,0H7.5062a2.0646,2.0646,0,0,0,0,4.1291h14.42l-2.19,7.2257H4.0645A2.0665,2.0665,0,0,0,2,13.42a2.0327,2.0327,0,0,0,.0888.5988L5.53,25.3731A2.0645,2.0645,0,0,0,7.506,26.839H21.4871v3.9977a1.16,1.16,0,0,0,1.9815.8221Z"/>
</svg>
