<svg xmlns="http://www.w3.org/2000/svg" width="32" height="32" viewBox="0 0 32 32"><title>icon_cloud-down</title><path d="M26.9682,10.3152C26.9726,10.2082,27,10.108,27,10A7.9949,7.9949,0,0,0,11.68,6.7912a4.956,4.956,0,0,0-7.4858,5.516A5.9832,5.9832,0,0,0,6,24l1.9158.0008a3.6076,3.6076,0,0,1,3.195-5.2826H12.894V13.282a4,4,0,0,1,8,0v5.4366h1.7832a3.5929,3.5929,0,0,1,3.2288,5.19,6.96,6.96,0,0,0,1.0622-13.5938Z"/><path d="M22.6772,21.2186H18.394v-7.718a1.5,1.5,0,0,0-3,0v7.718H11.1112a1.1083,1.1083,0,0,0-.784,1.892l5.784,5.784a1.1081,1.1081,0,0,0,1.566,0l5.784-5.784A1.1083,1.1083,0,0,0,22.6772,21.2186Z"/></svg>