<svg xmlns="http://www.w3.org/2000/svg" width="32" height="32" viewBox="0 0 32 32">
  <title>icon_window-restore</title>
  <path d="M25.1419,30.065V8.7916a1.8941,1.8941,0,0,0-1.8533-1.9339H1.9346A1.8941,1.8941,0,0,0,0,8.7107V30.0644a1.8941,1.8941,0,0,0,1.8525,1.9349H23.2074a1.8941,1.8941,0,0,0,1.9339-1.8533Q25.1427,30.1052,25.1419,30.065ZM2.9025,29.098V9.7585H22.242V29.098Z"/>
  <path d="M30.1456,0H8.7916A1.8939,1.8939,0,0,0,6.8576,1.8533v0q0,.04,0,.08V9.7573H9.7586V2.9015H29.098V22.241H22.241v2.9009h7.8238a1.8941,1.8941,0,0,0,1.9345-1.8529V1.9346A1.8939,1.8939,0,0,0,30.1466,0Z"/>
</svg>
