<?xml version="1.0" encoding="utf-8"?>
<!DOCTYPE svg PUBLIC "-//W3C//DTD SVG 1.1//EN" "http://www.w3.org/Graphics/SVG/1.1/DTD/svg11.dtd">
<svg version="1.1" id="Layer_1" xmlns="http://www.w3.org/2000/svg" xmlns:xlink="http://www.w3.org/1999/xlink" x="0px" y="0px"
	 width="64px" height="64px" viewBox="0 0 64 64" enable-background="new 0 0 64 64" xml:space="preserve">
<g>
	<path fill-rule="evenodd" clip-rule="evenodd" d="M63,62.844L37.809,37.729c-1.551-1.36-3.576-2.184-5.808-2.184
		c-2.211,0-4.258,0.823-5.808,2.184L1,62.844C21.667,62.844,42.334,62.844,63,62.844L63,62.844z M33.984,42.653l14.053,14.01H15.963
		l14.054-14.01c0.475-0.558,1.198-0.928,1.983-0.928C32.807,41.726,33.51,42.096,33.984,42.653L33.984,42.653z"/>
	<path fill-rule="evenodd" clip-rule="evenodd" d="M4.1,11.335h55.8c1.715,0,3.1,1.401,3.1,3.091l0,0
		c0,1.71-1.385,3.09-3.1,3.09H4.1c-1.694,0-3.1-1.38-3.1-3.09l0,0C1,12.737,2.406,11.335,4.1,11.335L4.1,11.335z"/>
</g>
</svg>
