<svg xmlns="http://www.w3.org/2000/svg" width="32" height="32" viewBox="0 0 32 32"><title>icon_rtk-1</title><path d="M19.9109,10.4917a9.8948,9.8948,0,0,0-7.5279-2.438,1.5147,1.5147,0,0,0-1.293,1.501,1.3591,1.3591,0,0,0,1.3628,1.2827l.0743-.0639A7.669,7.669,0,0,1,20.83,17.7148l-.01.1381a1.5147,1.5147,0,0,0,1.501,1.293,1.3706,1.3706,0,0,0,1.2827-1.3628l-.064-.0743a9.87,9.87,0,0,0-3.6283-7.2171"/><path d="M29.5849,17.6744A17.0393,17.0393,0,0,0,11.2969,2.1379a1.4009,1.4009,0,0,0,.208,2.794A14.04,14.04,0,0,1,26.7891,17.607q.0064.0686.0121.1372l-.01.1381a1.5145,1.5145,0,0,0,1.501,1.293,1.4792,1.4792,0,0,0,1.293-1.5009"/><path d="M9.4981,18.7746A16.5425,16.5425,0,0,1,3,17.5321V20.329a13.1344,13.1344,0,0,0,6.4981,1.4341,12.5567,12.5567,0,0,0,6.4982-1.4711V17.521A16.8348,16.8348,0,0,1,9.4981,18.7746Zm3.52,1.9688A.8127.8127,0,1,1,13.83,19.93v.0005h0a.8128.8128,0,0,1-.8122.8124Z"/><path d="M15.8222,16.8855C15.16,15.8074,12.5805,15,9.4981,15,6.399,15,3.81,15.8164,3.165,16.9035a13.8738,13.8738,0,0,0,6.3331,1.3293A13.5976,13.5976,0,0,0,15.8222,16.8855Z"/><path d="M8.2835,23.29,4.9664,26.607a.6817.6817,0,0,0,.9638.9644l2.3533-2.3536Z"/><path d="M14.029,26.6077l-3.3035-3.3051v1.9261l2.3416,2.3427a.6809.6809,0,1,0,.9622-.9636h0Z"/><path d="M10.184,22.7607l-.195-.1949a.6777.6777,0,0,0-.4814-.1987l-.0091.0015-.01-.0015a.68.68,0,0,0-.4816.1987l-.1822.1822v1.9292l.0009-.0009v4.6362a.6793.6793,0,0,0,1.3585.0164V29.32Z"/></svg>