<svg xmlns="http://www.w3.org/2000/svg" width="32" height="32" viewBox="0 0 32 32"><title>icon_gnss-lost</title><path d="M23.418,20.472l-5.687-5.687-1.896,1.896,5.687,5.686-5.687,5.687,1.896,1.896,5.687-5.687,5.686,5.687L31,28.054l-5.687-5.687L31,16.681l-1.896-1.896ZM17.08,5.0269l-.6583-3.7335-3.5.6171L13.58,5.644l-1.75.3086.6583,3.7337,1.7494-.3086.6583,3.7335,3.501-.6174L17.7383,8.76l1.75-.3086L18.83,4.7183Zm1.4209-2.175L29.0016,1l1.3166,7.4672-10.5,1.8516ZM1,5.9374,11.5,4.0859l1.3166,7.4672-10.5,1.8516Z"/></svg>