<svg xmlns="http://www.w3.org/2000/svg" width="32" height="32" viewBox="0 0 32 32"><title>icon_manual</title><path d="M11.2537,7.6926A.8752.8752,0,0,0,12.4919,8.93a4.96,4.96,0,0,1,7.0171,0,.8749.8749,0,1,0,1.2373-1.2373,6.71,6.71,0,0,0-9.4926,0Z"/><path d="M9.5027,6.4357a9.2011,9.2011,0,0,1,12.9946,0,.8749.8749,0,1,0,1.2373-1.2373,10.9513,10.9513,0,0,0-15.4692,0A.8749.8749,0,0,0,9.5027,6.4357Z"/><path d="M7.75,9.75a.75.75,0,0,0-1.5,0V15h1.5Z"/><path d="M25.75,9.75a.75.75,0,0,0-1.5,0V15h1.5Z"/><circle cx="7" cy="26" r="2"/><circle cx="25" cy="26" r="2"/><path d="M29.3005,15H3.2A1.7,1.7,0,0,0,1.5,16.7v12.601A1.7,1.7,0,0,0,3.2,31h26.101a1.7,1.7,0,0,0,1.7-1.7V16.7A1.7,1.7,0,0,0,29.3005,15ZM7,30a4,4,0,1,1,4-4A3.9989,3.9989,0,0,1,7,30Zm12.5-9h-7A1.5,1.5,0,0,1,11,19.5v-1A1.5,1.5,0,0,1,12.5,17h7A1.5,1.5,0,0,1,21,18.5v1A1.5,1.5,0,0,1,19.5,21ZM25,30a4,4,0,1,1,4-4A3.9989,3.9989,0,0,1,25,30Z"/></svg>