<svg xmlns="http://www.w3.org/2000/svg" width="32" height="32" viewBox="0 0 32 32"><title>icon_help</title><path d="M16,0A16,16,0,1,0,32,16,16,16,0,0,0,16,0Zm-.5719,27.5549a2.4,2.4,0,1,1,2.399-2.401v.0022A2.4,2.4,0,0,1,15.4281,27.5549ZM19.38,16.0541l-.0293.0221A6.9733,6.9733,0,0,0,17.7228,17.53a4.8228,4.8228,0,0,0-.4829,1.0544c-.3045.8286-.5433,1.4819-1.8095,1.4819a1.76,1.76,0,0,1-1.7235-1.7946q.0011-.0493.0048-.0986c0-1.8467,1.5071-2.9677,2.9768-4.06,1.3983-1.0382,2.7179-2.0181,2.7179-3.5784,0-1.7117-1.4494-2.9052-3.5261-2.9052A3.2018,3.2018,0,0,0,12.6121,10.04c-.4315.9655-.7713,1.7275-1.99,1.7275a1.6407,1.6407,0,0,1-1.749-1.71c0-2.9233,3.2541-5.5868,6.8257-5.5868,3.4271,0,7.4283,1.59,7.4283,6.0625A7.18,7.18,0,0,1,19.38,16.0541Z"/></svg>