<svg xmlns="http://www.w3.org/2000/svg" width="32" height="32" viewBox="0 0 32 32">
  <g transform="translate(4 5)">
    <path d="M12,9.248 C10.1248,9.248 8.6,10.7728 8.6,12.648 C8.6,14.5232 10.1248,16.048 12,16.048 C13.8752,16.048 15.4,14.5232 15.4,12.648 C15.4,10.7728 13.8752,9.248 12,9.248"/>
    <path d="M12 18.448C8.8016 18.448 6.2 15.8464 6.2 12.648 6.2 9.4496 8.8016 6.848 12 6.848 15.1984 6.848 17.8 9.4496 17.8 12.648 17.8 15.8464 15.1984 18.448 12 18.448M20.8 4.648L3.2 4.648C3.2 4.648.8 4.648.8 7.048L.8 18.248C.8 18.248.8 20.648 3.2 20.648L20.8 20.648C20.8 20.648 23.2 20.648 23.2 18.248L23.2 7.048C23.2 7.048 23.2 4.648 20.8 4.648M8.4 3.048L15.6 3.048C16.2624 3.048 16.8 2.5104 16.8 1.848 16.8 1.1856 16.2624.648 15.6.648L8.4.648C7.7376.648 7.2 1.1856 7.2 1.848 7.2 2.5104 7.7376 3.048 8.4 3.048"/>
  </g>
</svg>
