<svg xmlns="http://www.w3.org/2000/svg" width="32" height="32" viewBox="0 0 32 32"><title>icon_battery-mains</title><path d="M7.1875,12.5312C5.2188,14.5938,2.9688,18.8125,5.7813,23.125L1,27.9063,4.0938,31,8.875,26.2188a8.0209,8.0209,0,0,0,4.3125,1.3125,9.6145,9.6145,0,0,0,6.2813-2.7188l3.6562-3.6562L10.8438,8.875Z"/><path d="M24.5312,15.1563,31,8.6875l-1.5-1.5-6.4687,6.4688L18.4375,9.0625l6.4688-6.4687L23.3125,1,16.8437,7.4687,14.0312,4.6562a1.5874,1.5874,0,0,0-2.1562,0,1.4993,1.4993,0,0,0,0,2.1563L25.2813,20.2188a1.3687,1.3687,0,0,0,2.0624,0,1.5875,1.5875,0,0,0,0-2.1563Z"/></svg>