<?xml version="1.0" encoding="utf-8"?>
<!-- Generator: Adobe Illustrator 21.0.2, SVG Export Plug-In . SVG Version: 6.00 Build 0)  -->
<svg version="1.0" id="Layer_1" xmlns="http://www.w3.org/2000/svg" xmlns:xlink="http://www.w3.org/1999/xlink" x="0px" y="0px"
	 viewBox="0 0 480 160" enable-background="new 0 0 480 160" width="480px" height="160px" xml:space="preserve">
<path fill="#007100" d="M131.876,133.8707h50.136l-3.711,3.6557c-0.3369,0.33-0.3425,0.8706-0.0125,1.2075
	c0.0041,0.0042,0.0083,0.0083,0.0125,0.0125c0.3443,0.3378,0.8957,0.3378,1.24,0l5.203-5.1241
	c0.1641-0.1611,0.2564-0.3816,0.256-0.6116c0.0047-0.2375-0.0877-0.4666-0.256-0.6342l-5.202-5.1251
	c-0.3457-0.3363-0.8964-0.3354-1.241,0.002c-0.3372,0.3292-0.3437,0.8694-0.0145,1.2067c0.0048,0.0049,0.0096,0.0098,0.0145,0.0145
	l3.727,3.6725h-50.152c-0.4759-0.0089-0.869,0.3696-0.8779,0.8456c-0.0089,0.4759,0.3696,0.869,0.8456,0.8779
	c0.0108,0.0002,0.0216,0.0002,0.0324,0v0.0001H131.876z"/>
<g>
	<g>
		<path fill="#0071C5" d="M70.26,135H68.8v-6.9h1.46V135z"/>
		<path fill="#0071C5" d="M73.24,130.28V135h-1.38v-6.9h1.61l1.87,3.7607l1.88-3.7607h1.55v6.9h-1.38v-4.73l-1.5,2.99h-1.15
			L73.24,130.28z"/>
		<path fill="#0071C5" d="M85.71,134.52c-0.2832,0.2056-0.5995,0.3615-0.9351,0.4609c-0.4007,0.1186-0.817,0.1759-1.2349,0.17
			c-0.5018,0.0093-1.0008-0.0775-1.47-0.2559c-0.4086-0.1576-0.7774-0.4034-1.08-0.72c-0.302-0.3241-0.5305-0.7095-0.67-1.13
			c-0.159-0.4789-0.2367-0.9809-0.23-1.4854c-0.0085-0.5222,0.0762-1.0417,0.25-1.5342c0.1511-0.4258,0.3935-0.8133,0.71-1.1357
			c0.3129-0.3109,0.6901-0.5495,1.105-0.6992c0.4634-0.1657,0.9527-0.247,1.4448-0.24c0.7235-0.0352,1.438,0.1725,2.03,0.59
			l-0.54,1.01c-0.2001-0.1367-0.4213-0.2396-0.6548-0.3047c-0.2363-0.0641-0.4802-0.0959-0.7251-0.0947
			c-0.5883-0.0404-1.1634,0.1871-1.5649,0.6191c-0.3885,0.5125-0.5786,1.1483-0.5352,1.79
			c-0.0441,0.6358,0.1463,1.2656,0.5352,1.7705c0.4046,0.4265,0.9784,0.6502,1.5649,0.61c0.2743,0.0034,0.5475-0.0355,0.81-0.1152
			c0.231-0.0725,0.4501-0.1788,0.65-0.3154L85.71,134.52z"/>
	</g>
</g>
<g>
	<path fill="#1A1919" d="M87,124.012L67.012,124L67,136.988L86.978,137L87,124.012z M75,141h4v-2h-4V141z M86.75,143H62.5
		c-0.8284,0-1.5-0.6716-1.5-1.5s0.6716-1.5,1.5-1.5H64v-16c-0.0843-1.5718,1.1215-2.9142,2.6933-2.9985
		c0.0915-0.0049,0.1832-0.0054,0.2747-0.0015H87c1.5664-0.0894,2.9087,1.1079,2.9981,2.6743
		c0.0054,0.0951,0.0061,0.1905,0.0019,0.2857V137h-6v6H86.75z M87,135v2h3v-4L87,135z"/>
	<g>
		<path fill="#252525" d="M87,141c0.0324-0.6327,0.2816-1.235,0.7058-1.7056L92,135h10l4.2942,4.2942
			c0.4241,0.4707,0.6733,1.073,0.7058,1.7058v1.9953c0.0013,1.1023-0.8885,1.9984-1.9908,2.0047H88.9908
			c-1.1021-0.0026-1.9934-0.8981-1.9908-2.0002c0-0.0016,0-0.0032,0-0.0047V141z"/>
		<path fill="#252525" d="M97,124L97,124c2.7614,0,5,2.2386,5,5l0,0c0,2.7614-2.2386,5-5,5l0,0c-2.7614,0-5-2.2386-5-5l0,0
			C92,126.2386,94.2386,124,97,124z"/>
	</g>
</g>
<polyline fill="none" stroke="#007314" stroke-width="2" stroke-linecap="round" stroke-linejoin="round" points="386.311,103.697 
	393.182,103.697 393.182,111.123 "/>
<polyline fill="none" stroke="#007314" stroke-width="2" stroke-linecap="round" stroke-linejoin="round" points="319.202,133.102 
	363.94,133.102 392.802,104.24 "/>
<g display="none">
	<path display="inline" fill="#B70000" d="M348.5447,136.0167l-5.2789-9.4706c-0.4426-0.8901-1.3241-1.4786-2.3158-1.5461
		c-0.983,0.0387-1.8558,0.6402-2.2417,1.5451l-5.2809,9.4726c-0.501,0.8511-0.5444,1.896-0.1156,2.7857
		c0.525,0.8244,1.4667,1.2863,2.44,1.1966h10.4691c0.9859,0.0238,1.9176-0.45,2.479-1.2607
		c0.4565-0.8663,0.3967-1.9139-0.1555-2.7226L348.5447,136.0167z"/>
	<path display="inline" fill="#FFFFFF" d="M340.9742,138.4469c-0.6429,0.0027-1.1663-0.5163-1.169-1.1592
		c-0.0027-0.6429,0.5163-1.1663,1.1592-1.169s1.1663,0.5163,1.169,1.1592c0,0.0018,0,0.0036,0,0.0054
		c0.0013,0.6413-0.5175,1.1623-1.1588,1.1636C340.9745,138.4469,340.9744,138.4469,340.9742,138.4469z M340.1299,127.9579
		c-0.0053-0.4817,0.3808-0.8765,0.8625-0.8818c0.4817-0.0053,0.8765,0.3808,0.8818,0.8625c0.0001,0.0064,0.0001,0.0129,0,0.0193
		v5.8828c0.0053,0.4817-0.3808,0.8765-0.8625,0.8818c-0.4817,0.0053-0.8765-0.3808-0.8818-0.8625
		c-0.0001-0.0064-0.0001-0.0129,0-0.0193V127.9579z"/>
</g>
<path fill="#1A1919" d="M443.8253,48.3793l-0.2036-0.2037c0,0-2.6432-2.6452-5.2864,0L426.9621,59.56l-22.3228-3.9224
	c-0.7076-0.0991-1.4221,0.1264-1.9446,0.6138l-1.0176,1.0186c0,0-1.8291,1.83,0.5253,2.9039l16.58,7.57l-7.6243,7.6328
	l-8.114-2.0267c-0.2595-0.0554-0.5296,0.0196-0.7234,0.2009l-0.6986,0.6992c-0.4373,0.3687-0.493,1.0221-0.1244,1.4594
	c0.0946,0.1122,0.212,0.2031,0.3444,0.2665l8.9033,5.2354c0.0105,0.0046,0.0205,0.0101,0.03,0.0165l0.055,0.0523
	c0.011,0.022,0.0193,0.0413,0.0193,0.0413l5.1351,8.8054c0.2431,0.5143,0.8571,0.7341,1.3714,0.491
	c0.1351-0.0639,0.2546-0.1563,0.3504-0.271l0.6986-0.6992c0.1812-0.194,0.2561-0.4643,0.2008-0.7239l-1.9969-8.0182l7.641-7.6456
	l7.5226,16.507c1.0727,2.3562,2.9045,0.5257,2.9045,0.5257l1.0149-1.0184c0.4874-0.5231,0.7137-1.2378,0.6161-1.9461l-3.9-22.2324
	L443.8253,53.67c0,0,2.6432-2.6452,0-5.29"/>
<g>
	<path fill="#1A1919" d="M242.4583,130.7427c0.5087,0.001,0.9967-0.2008,1.3561-0.5608c4.2419-4.2449,11.1218-4.2474,15.3668-0.0054
		c0.0018,0.0018,0.0036,0.0036,0.0054,0.0054c0.7524,0.7449,1.9662,0.7388,2.7111-0.0135c0.7401-0.7475,0.7396-1.9517-0.0011-2.6986
		c-5.7418-5.7419-15.0511-5.7421-20.7931-0.0003c-0.0001,0.0001-0.0002,0.0002-0.0003,0.0003
		c-0.7489,0.7482-0.7495,1.9619-0.0013,2.7109c0.3599,0.3602,0.8482,0.5624,1.3574,0.5621"/>
	<path fill="#1A1919" d="M268.4438,122.0067c-9.3644-9.3423-24.5236-9.3423-33.8879,0c-0.7454,0.7513-0.7406,1.9646,0.0106,2.71
		c0.7471,0.7413,1.9522,0.7413,2.6993,0c7.8675-7.8463,20.6007-7.8463,28.4682,0c0.7513,0.7454,1.9646,0.7406,2.71-0.0106
		c0.7413-0.7471,0.7413-1.9522,0-2.6993 M259.7151,145.0823c-0.9074,0-1.643-0.7356-1.643-1.643c0-0.9074,0.7356-1.643,1.643-1.643
		s1.643,0.7356,1.643,1.643C261.3578,144.3466,260.6223,145.082,259.7151,145.0823 M262.4535,139.0579h-9.3105v-7.1197
		c-0.0006-0.9074-0.7367-1.6425-1.6441-1.6419c-0.9065,0.0006-1.6413,0.7353-1.6419,1.6419v7.1197h-9.3105
		c-2.4198,0-4.3814,1.9616-4.3814,4.3814s1.9616,4.3814,4.3814,4.3814h21.9069c2.4198,0,4.3814-1.9616,4.3814-4.3814
		C266.8349,141.0195,264.8733,139.0579,262.4535,139.0579L262.4535,139.0579"/>
</g>
<path fill="none" stroke="#1A1919" stroke-width="2" stroke-linecap="square" d="M76,57.5v40.611"/>
<path fill="none" stroke="#0071C5" stroke-width="2" d="M32,10h90c2.2091,0,4,1.7909,4,4v35c0,2.2091-1.7909,4-4,4H32
	c-2.2091,0-4-1.7909-4-4V14C28,11.7909,29.7909,10,32,10z"/>
<g>
	<g>
		<path fill="#555555" d="M76.8921,35.72l3.2158,5.94v-5.94h1.6563V44H79.832l-3.2158-5.832V44H74.96v-8.28H76.8921z"/>
		<path fill="#555555" d="M87.3315,37.0879V44H85.58v-6.9121h-2.7123V35.72h7.1758v1.3682L87.3315,37.0879z"/>
		<path fill="#555555" d="M97.1841,38.1436c0.0111,0.534-0.158,1.0562-0.48,1.4824c-0.3199,0.42-0.7796,0.7117-1.2959,0.8223
			L97.76,44h-2.0159l-1.752-2.88c-0.0609-0.1141-0.1473-0.2127-0.2524-0.2881c-0.1155-0.0558-0.2436-0.0807-0.3716-0.0723H92.852V44
			h-1.7041v-8.28h3.18c0.4023-0.0051,0.8029,0.0515,1.188,0.168c0.3285,0.0995,0.6343,0.2626,0.9,0.48
			c0.2467,0.2061,0.4419,0.4669,0.57,0.7617C97.1223,37.4501,97.1898,37.7955,97.1841,38.1436z M95.4441,38.2764
			c0.0284-0.3328-0.0899-0.6615-0.3237-0.9c-0.302-0.2185-0.6726-0.3208-1.0439-0.2881h-1.2244v2.4238H94.04
			c0.3743,0.0257,0.7452-0.0851,1.044-0.3121c0.2525-0.2382,0.3846-0.5773,0.3598-0.9236H95.4441z"/>
		<path fill="#555555" d="M100.5435,44h-1.752v-8.28h1.752V44z"/>
		<path fill="#555555" d="M104.18,41.1563V44h-1.7158v-8.28h3.0958c0.798-0.051,1.586,0.1996,2.208,0.7021
			c1.0378,1.1358,1.0403,2.8749,0.0059,4.0137c-0.6219,0.5172-1.419,0.7753-2.2261,0.7207L104.18,41.1563z M104.18,37.004v2.8682
			h1.0923c0.4119,0.0309,0.8211-0.0884,1.1519-0.3359c0.2817-0.2902,0.4222-0.6892,0.3843-1.0918
			c0.0369-0.4035-0.1009-0.8034-0.3784-1.0986c-0.3265-0.252-0.7348-0.3738-1.146-0.3418L104.18,37.004z"/>
	</g>
</g>
<g>
	<g>
		<path fill="#555555" d="M40.6309,41.2754L39.2813,46h-0.9092l-1.8179-6.21h0.9l1.4038,5.2646l1.3594-4.833h0.8906l1.4131,4.8877
			l1.4042-5.3193h0.8638L42.9531,46h-0.9L40.6309,41.2754z"/>
		<path fill="#555555" d="M49.46,41.2754L48.11,46h-0.9092l-1.8179-6.21h0.9l1.4038,5.2646l1.3594-4.833h0.8906l1.4133,4.8878
			l1.4044-5.3194h0.8638L51.7822,46h-0.9L49.46,41.2754z"/>
		<path fill="#555555" d="M58.2886,41.2754L56.939,46H56.03l-1.8179-6.21h0.9l1.4038,5.2646l1.3594-4.833h0.8906l1.4131,4.8877
			l1.404-5.3193h0.8638L60.6108,46h-0.9L58.2886,41.2754z"/>
	</g>
</g>
<path fill="#252525" d="M47.2464,17.113c-0.0482,0.0105-0.0958,0.0235-0.1427,0.0388c-4.8861,1.5993-7.5505,6.8568-5.9512,11.7428
	c1.5993,4.8861,6.8568,7.5505,11.7428,5.9512c1.361-0.4455,2.6009-1.199,3.6232-2.2019l-1.4416-0.7208l1.6923-4.2308l0.8462,0.8462
	l0.8462-1.6923l-0.8462-2.5385L56.7692,26l-1.6923-0.8462l-0.8462-0.8462l-0.8462,0.8462v1.6923l-0.8462,1.6923l-0.8462,2.5385
	l-2.5385,0.8462l-0.8462-3.3846l-0.8462-0.8462l-1.6923-0.8462v-2.5384l0.8462-0.8462l1.6923-0.8462h-0.8462l-1.6923-0.8462
	l0.8462-0.8462l0.8462-0.8462h0.8462l0.8462-1.6923L47.2464,17.113z M45.7692,34.4615l3.3846-0.8462h2.5385l3.3846,0.8462
	l-3.3846,1.6923h-5.0769L45.7692,34.4615z M41.4469,22.003l1.0221,3.3357l0.1329,2.535L41.934,31.298l-1.8671-3.2914l-0.2657-5.07
	L41.4469,22.003z M50,37c-6.0751,0-11-4.9249-11-11s4.9249-11,11-11s11,4.9249,11,11S56.0751,37,50,37z"/>
</svg>
