<?xml version="1.0" encoding="utf-8"?>
<!-- Generator: Adobe Illustrator 21.0.2, SVG Export Plug-In . SVG Version: 6.00 Build 0)  -->
<svg version="1.0" id="Layer_1" xmlns="http://www.w3.org/2000/svg" xmlns:xlink="http://www.w3.org/1999/xlink" x="0px" y="0px"
	 viewBox="0 0 480 160" enable-background="new 0 0 480 160" width="480px" height="160px" xml:space="preserve">
<path fill="#007100" d="M131.876,133.8707h50.136l-3.711,3.6557c-0.3369,0.33-0.3425,0.8706-0.0125,1.2075
	c0.0041,0.0042,0.0083,0.0083,0.0125,0.0125c0.3443,0.3378,0.8957,0.3378,1.24,0l5.203-5.1241
	c0.1641-0.1611,0.2564-0.3816,0.256-0.6116c0.0047-0.2375-0.0877-0.4666-0.256-0.6342l-5.202-5.1251
	c-0.3457-0.3363-0.8964-0.3354-1.241,0.002c-0.3372,0.3292-0.3437,0.8694-0.0145,1.2067c0.0048,0.0049,0.0096,0.0098,0.0145,0.0145
	l3.727,3.6725h-50.152c-0.4759-0.0089-0.869,0.3696-0.8779,0.8456c-0.0089,0.4759,0.3696,0.869,0.8456,0.8779
	c0.0108,0.0002,0.0216,0.0002,0.0324,0v0.0001H131.876z"/>
<g>
	<g>
		<path fill="#0071C5" d="M70.26,135H68.8v-6.9h1.46V135z"/>
		<path fill="#0071C5" d="M73.24,130.28V135h-1.38v-6.9h1.61l1.87,3.7607l1.88-3.7607h1.55v6.9h-1.38v-4.73l-1.5,2.99h-1.15
			L73.24,130.28z"/>
		<path fill="#0071C5" d="M85.71,134.52c-0.2832,0.2056-0.5995,0.3615-0.9351,0.4609c-0.4007,0.1186-0.817,0.1759-1.2349,0.17
			c-0.5018,0.0093-1.0008-0.0775-1.47-0.2559c-0.4086-0.1576-0.7774-0.4034-1.08-0.72c-0.302-0.3241-0.5305-0.7095-0.67-1.13
			c-0.159-0.4789-0.2367-0.9809-0.23-1.4854c-0.0085-0.5222,0.0762-1.0417,0.25-1.5342c0.1511-0.4258,0.3935-0.8133,0.71-1.1357
			c0.3129-0.3109,0.6901-0.5495,1.105-0.6992c0.4634-0.1657,0.9527-0.247,1.4448-0.24c0.7235-0.0352,1.438,0.1725,2.03,0.59
			l-0.54,1.01c-0.2001-0.1367-0.4213-0.2396-0.6548-0.3047c-0.2363-0.0641-0.4802-0.0959-0.7251-0.0947
			c-0.5883-0.0404-1.1634,0.1871-1.5649,0.6191c-0.3885,0.5125-0.5786,1.1483-0.5352,1.79
			c-0.0441,0.6358,0.1463,1.2656,0.5352,1.7705c0.4046,0.4265,0.9784,0.6502,1.5649,0.61c0.2743,0.0034,0.5475-0.0355,0.81-0.1152
			c0.231-0.0725,0.4501-0.1788,0.65-0.3154L85.71,134.52z"/>
	</g>
</g>
<g>
	<path fill="#1A1919" d="M87,124.012L67.012,124L67,136.988L86.978,137L87,124.012z M75,141h4v-2h-4V141z M86.75,143H62.5
		c-0.8284,0-1.5-0.6716-1.5-1.5s0.6716-1.5,1.5-1.5H64v-16c-0.0843-1.5718,1.1215-2.9142,2.6933-2.9985
		c0.0915-0.0049,0.1832-0.0054,0.2747-0.0015H87c1.5664-0.0894,2.9087,1.1079,2.9981,2.6743
		c0.0054,0.0951,0.0061,0.1905,0.0019,0.2857V137h-6v6H86.75z M87,135v2h3v-4L87,135z"/>
	<g>
		<path fill="#252525" d="M87,141c0.0324-0.6327,0.2816-1.235,0.7058-1.7056L92,135h10l4.2942,4.2942
			c0.4241,0.4707,0.6733,1.073,0.7058,1.7058v1.9953c0.0013,1.1023-0.8885,1.9984-1.9908,2.0047H88.9908
			c-1.1021-0.0026-1.9934-0.8981-1.9908-2.0002c0-0.0016,0-0.0032,0-0.0047V141z"/>
		<path fill="#252525" d="M97,124L97,124c2.7614,0,5,2.2386,5,5l0,0c0,2.7614-2.2386,5-5,5l0,0c-2.7614,0-5-2.2386-5-5l0,0
			C92,126.2386,94.2386,124,97,124z"/>
	</g>
</g>
<polyline fill="none" stroke="#007314" stroke-width="2" stroke-linecap="round" stroke-linejoin="round" points="386.311,103.697 
	393.182,103.697 393.182,111.123 "/>
<polyline fill="none" stroke="#007314" stroke-width="2" stroke-linecap="round" stroke-linejoin="round" points="319.202,133.102 
	363.94,133.102 392.802,104.24 "/>
<path fill="#1A1919" d="M443.8253,48.3793l-0.2036-0.2037c0,0-2.6432-2.6452-5.2864,0L426.9621,59.56l-22.3228-3.9224
	c-0.7076-0.0991-1.4221,0.1264-1.9446,0.6138l-1.0176,1.0186c0,0-1.8291,1.83,0.5253,2.9039l16.58,7.57l-7.6243,7.6328
	l-8.114-2.0267c-0.2595-0.0554-0.5296,0.0196-0.7234,0.2009l-0.6986,0.6992c-0.4373,0.3687-0.493,1.0221-0.1244,1.4594
	c0.0946,0.1122,0.212,0.2031,0.3444,0.2665l8.9033,5.2354c0.0105,0.0046,0.0205,0.0101,0.03,0.0165l0.055,0.0523
	c0.011,0.022,0.0193,0.0413,0.0193,0.0413l5.1351,8.8054c0.2431,0.5143,0.8571,0.7341,1.3714,0.491
	c0.1351-0.0639,0.2546-0.1563,0.3504-0.271l0.6986-0.6992c0.1812-0.194,0.2561-0.4643,0.2008-0.7239l-1.9969-8.0182l7.641-7.6456
	l7.5226,16.507c1.0727,2.3562,2.9045,0.5257,2.9045,0.5257l1.0149-1.0184c0.4874-0.5231,0.7137-1.2378,0.6161-1.9461l-3.9-22.2324
	L443.8253,53.67c0,0,2.6432-2.6452,0-5.29"/>
<g>
	<path fill="#1A1919" d="M242.4583,130.7428c0.5086,0.001,0.9967-0.2008,1.3561-0.5608c4.2419-4.2449,11.1218-4.2474,15.3668-0.0054
		c0.0018,0.0018,0.0036,0.0036,0.0055,0.0054c0.7524,0.7449,1.9662,0.7388,2.711-0.0135c0.7401-0.7475,0.7396-1.9517-0.0011-2.6986
		c-5.7418-5.7419-15.0512-5.7421-20.7931-0.0003c-0.0001,0.0001-0.0002,0.0002-0.0003,0.0003
		c-0.7489,0.7482-0.7495,1.9619-0.0013,2.7109c0.3598,0.3602,0.8482,0.5624,1.3574,0.5621"/>
	<path fill="#1A1919" d="M268.4438,122.0067c-9.3643-9.3423-24.5236-9.3423-33.8879,0c-0.7454,0.7513-0.7406,1.9646,0.0106,2.71
		c0.7471,0.7413,1.9522,0.7413,2.6993,0c7.8675-7.8463,20.6007-7.8463,28.4682,0c0.7513,0.7454,1.9646,0.7406,2.71-0.0106
		c0.7413-0.7471,0.7413-1.9522,0-2.6993 M259.7151,145.0824c-0.9074,0-1.643-0.7356-1.643-1.643c0-0.9074,0.7356-1.643,1.643-1.643
		s1.643,0.7356,1.643,1.643C261.3578,144.3467,260.6224,145.0821,259.7151,145.0824 M262.4535,139.0579h-9.3105v-7.1197
		c-0.0006-0.9074-0.7367-1.6425-1.6441-1.6419c-0.9065,0.0006-1.6413,0.7353-1.6419,1.6419v7.1197h-9.3105
		c-2.4198,0-4.3814,1.9616-4.3814,4.3814s1.9616,4.3814,4.3814,4.3814h21.9069c2.4198,0,4.3814-1.9616,4.3814-4.3814
		S264.8733,139.0579,262.4535,139.0579L262.4535,139.0579"/>
</g>
<path fill="none" stroke="#1A1919" stroke-width="2" stroke-linecap="square" d="M76,57.5v40.611"/>
<g>
	<g>
		<g>
			<path fill="#555555" d="M66.82,34.92v2.29h3.5V38h-4.44v-6.9h4.44v0.79h-3.5v2.24h2.94v0.79L66.82,34.92z"/>
			<path fill="#555555" d="M73.66,35.44L75.51,38h-1.03l-1.34-1.93L71.79,38h-0.97l1.85-2.55L70.94,33h1.02l1.23,1.83L74.42,33h0.97
				L73.66,35.44z"/>
			<path fill="#555555" d="M78.8,37.99c-0.0867,0.0127-0.1733,0.0244-0.26,0.0352c-0.0963,0.0102-0.1931,0.0151-0.29,0.0146
				c-0.4431,0.0412-0.8833-0.1037-1.2153-0.4c-0.2852-0.3778-0.4189-0.8485-0.3747-1.3198v-2.6h-0.85V33h0.85v-1.26h0.89V33h1.25
				v0.72h-1.25v2.7c-0.0309,0.2536,0.0515,0.5079,0.2251,0.6953c0.231,0.145,0.5033,0.2099,0.7749,0.1847h0.25
				C78.8,37.3,78.8,37.99,78.8,37.99z"/>
			<path fill="#555555" d="M80.45,35.71c-0.0006,0.4567,0.1727,0.8966,0.4849,1.23c0.3433,0.2989,0.7909,0.4498,1.2451,0.42
				c0.4572,0.0203,0.9069-0.1214,1.27-0.4l0.38,0.59c-0.2249,0.1989-0.4888,0.3488-0.7749,0.44
				c-0.3092,0.0959-0.6314,0.1431-0.9551,0.14c-0.3576,0.0048-0.7132-0.0544-1.05-0.1748c-0.302-0.1091-0.5755-0.285-0.8-0.5146
				c-0.2285-0.2403-0.4025-0.5271-0.51-0.8408c-0.126-0.3698-0.1869-0.7587-0.18-1.1494c-0.0062-0.3712,0.0548-0.7405,0.18-1.09
				c0.1088-0.303,0.2809-0.5793,0.5049-0.8105c0.2157-0.2191,0.4745-0.391,0.76-0.5049c0.3009-0.1185,0.6218-0.1779,0.9451-0.175
				c0.3064-0.0065,0.611,0.0497,0.895,0.165c0.2478,0.1034,0.4685,0.2625,0.645,0.4648c0.1781,0.2087,0.3109,0.4521,0.39,0.7148
				c0.0892,0.2934,0.133,0.5987,0.13,0.9053c0.0007,0.1978-0.016,0.3952-0.05,0.59L80.45,35.71z M81.97,33.61
				c-0.377-0.014-0.7441,0.1227-1.02,0.38c-0.2788,0.2784-0.4491,0.6472-0.48,1.04h2.7v-0.08c0.0227-0.357-0.0877-0.7097-0.31-0.99
				C82.6301,33.7168,82.3039,33.5885,81.97,33.61z"/>
			<path fill="#555555" d="M85.25,33h0.46c0.2729,0,0.4096,0.12,0.41,0.36v0.48c0.1297-0.2819,0.3426-0.5173,0.61-0.6748
				c0.368-0.1946,0.7869-0.2714,1.2-0.22c0.0608,0.0073,0.1209,0.0191,0.18,0.0352V33.72h-0.33
				c-0.4556-0.0364-0.905,0.1237-1.2349,0.44c-0.3071,0.4102-0.4515,0.9196-0.4053,1.43V38h-0.89L85.25,33z"/>
			<path fill="#555555" d="M89.8394,33.75c0.1546-0.2747,0.3856-0.4986,0.665-0.6445c0.3231-0.1648,0.6824-0.2458,1.0449-0.2354
				c0.4883-0.033,0.9673,0.1455,1.3149,0.49c0.3301,0.4042,0.493,0.9194,0.4551,1.4399V38h-0.89v-3.11
				c0.0269-0.3363-0.0671-0.6711-0.2651-0.9443c-0.2194-0.2205-0.5251-0.3324-0.835-0.3057c-0.4021-0.0155-0.791,0.1451-1.0649,0.44
				c-0.2897,0.3497-0.4347,0.7969-0.4053,1.25V38h-0.89v-5h0.46c0.2729,0,0.4096,0.12,0.41,0.36L89.8394,33.75z"/>
			<path fill="#555555" d="M98.53,38.03c-0.2155,0.0192-0.4287-0.0556-0.585-0.2051c-0.1341-0.1653-0.2066-0.3721-0.2051-0.585
				c-0.1406,0.2738-0.3625,0.4974-0.6353,0.64c-0.3071,0.159-0.6493,0.2381-0.9951,0.23c-0.2366,0.0036-0.472-0.0354-0.6948-0.1152
				c-0.192-0.0698-0.3675-0.1788-0.5151-0.32c-0.1394-0.1362-0.247-0.3017-0.3149-0.4844c-0.0709-0.1922-0.1065-0.3957-0.105-0.6006
				c-0.0071-0.2507,0.0515-0.4989,0.17-0.72c0.11-0.1964,0.2662-0.3629,0.4551-0.4854c0.2012-0.128,0.4228-0.2207,0.6552-0.2743
				c0.2521-0.0612,0.5106-0.0917,0.77-0.0908h1.1v-0.3c0.0738-0.5454-0.3084-1.0473-0.8538-1.1212
				c-0.1119-0.0152-0.2256-0.0112-0.3362,0.0118c-0.2596-0.0011-0.5178,0.0394-0.7646,0.12
				c-0.2478,0.0817-0.4821,0.1996-0.6953,0.35l-0.36-0.6c0.2629-0.2016,0.559-0.3556,0.875-0.4551
				c0.3315-0.1046,0.6773-0.1568,1.0249-0.1547c0.2544-0.0013,0.5079,0.029,0.7549,0.09c0.4696,0.1089,0.8573,0.4387,1.04,0.8848
				c0.1123,0.2848,0.1651,0.5895,0.1553,0.8955V36.97c-0.0472,0.1639,0.0474,0.3351,0.2113,0.3823
				c0.0585,0.0168,0.1206,0.016,0.1786-0.0023h0.11v0.62c-0.0537,0.0137-0.12,0.0273-0.2,0.04
				C98.6908,38.0234,98.6105,38.0301,98.53,38.03z M96.55,35.67c-0.3147-0.0198-0.6281,0.055-0.9,0.2148
				c-0.2114,0.1531-0.3287,0.4046-0.31,0.665c-0.012,0.2238,0.0716,0.4421,0.23,0.6006c0.1993,0.1623,0.4538,0.2412,0.71,0.22
				c0.1989,0.0041,0.3964-0.0334,0.58-0.11c0.1612-0.0691,0.3061-0.1713,0.4253-0.3c0.119-0.1308,0.2078-0.2862,0.26-0.4551
				c0.0575-0.1826,0.0862-0.3731,0.085-0.5645V35.67H96.55z"/>
			<path fill="#555555" d="M100.9194,30.83v5.81c-0.0256,0.1922,0.0228,0.387,0.1353,0.5449
				c0.1446,0.0995,0.3201,0.1439,0.4946,0.125h0.07v0.7c-0.0627,0.0138-0.1261,0.0238-0.19,0.03
				c-0.0698,0.0069-0.1399,0.0102-0.21,0.01c-0.3313,0.0263-0.6578-0.0923-0.895-0.3252c-0.2214-0.2933-0.3267-0.6582-0.2954-1.0244
				V30.83H100.9194z"/>
		</g>
		<g>
			<path fill="#555555" d="M66.67,40.83v2.94c0.1546-0.2807,0.3898-0.5087,0.6753-0.6543c0.3222-0.168,0.6814-0.2525,1.0447-0.2457
				c0.3175-0.0058,0.6326,0.0555,0.9248,0.18c0.2642,0.1158,0.4972,0.2925,0.68,0.5156c0.1907,0.2368,0.3334,0.5086,0.42,0.8
				c0.1004,0.3355,0.1494,0.6842,0.1452,1.0344c0.0032,0.3687-0.0474,0.7359-0.15,1.09c-0.0905,0.3137-0.2398,0.6073-0.44,0.8652
				c-0.1931,0.2425-0.4395,0.4373-0.72,0.5693c-0.3104,0.1418-0.6488,0.2119-0.99,0.2051
				c-0.3342,0.0075-0.6653-0.0662-0.9648-0.2148c-0.2664-0.134-0.4899-0.34-0.645-0.5947V47.64c0,0.24-0.1367,0.36-0.41,0.36h-0.46
				v-7.17H66.67z M66.65,45.55c-0.0282,0.4759,0.1116,0.9466,0.395,1.33c0.2727,0.3245,0.6818,0.5022,1.105,0.48
				c0.4266,0.0244,0.8379-0.1625,1.1-0.5c0.2771-0.4159,0.4106-0.9111,0.38-1.41c0.0315-0.475-0.0931-0.9472-0.355-1.3447
				c-0.2509-0.3171-0.6414-0.491-1.045-0.4653c-0.4482-0.0232-0.8808,0.1682-1.165,0.5156
				C66.7695,44.5584,66.6228,45.0512,66.65,45.55z"/>
			<path fill="#555555" d="M75.49,48.03c-0.2155,0.0192-0.4287-0.0556-0.585-0.2051c-0.134-0.1653-0.2065-0.3721-0.205-0.5849
				c-0.1406,0.2738-0.3625,0.4974-0.6353,0.64c-0.3071,0.159-0.6493,0.2381-0.9951,0.23c-0.2366,0.0036-0.472-0.0354-0.6948-0.1152
				c-0.192-0.0698-0.3675-0.1788-0.5151-0.32c-0.1394-0.1362-0.247-0.3017-0.3149-0.4844c-0.0709-0.1922-0.1065-0.3957-0.105-0.6006
				c-0.0071-0.2507,0.0515-0.4989,0.17-0.72c0.11-0.1964,0.2662-0.3629,0.4551-0.4854c0.2012-0.128,0.4227-0.2208,0.6551-0.2744
				c0.2521-0.0612,0.5106-0.0917,0.77-0.0908h1.1v-0.3c0.0737-0.5454-0.3086-1.0473-0.854-1.121
				c-0.1118-0.0151-0.2254-0.0111-0.336,0.0118c-0.2596-0.0011-0.5178,0.0394-0.7646,0.12c-0.2478,0.0817-0.4821,0.1996-0.6953,0.35
				l-0.36-0.6c0.2629-0.2016,0.559-0.3556,0.875-0.4551c0.3315-0.1046,0.6773-0.1569,1.0249-0.1549
				c0.2544-0.0013,0.5079,0.029,0.7549,0.09c0.4696,0.1089,0.8573,0.4387,1.04,0.8848c0.1123,0.2848,0.1651,0.5895,0.1553,0.8955
				V46.97c-0.0472,0.1639,0.0474,0.3351,0.2113,0.3823c0.0585,0.0168,0.1206,0.016,0.1786-0.0023h0.11v0.62
				c-0.0537,0.0137-0.12,0.0273-0.2,0.04C75.6508,48.0234,75.5705,48.0301,75.49,48.03z M73.51,45.67
				c-0.3147-0.0198-0.6281,0.055-0.9,0.2148c-0.2114,0.1531-0.3287,0.4046-0.31,0.665c-0.012,0.2238,0.0716,0.4421,0.23,0.6006
				c0.1993,0.1623,0.4538,0.2412,0.71,0.22c0.1989,0.0041,0.3964-0.0334,0.58-0.11c0.1612-0.0691,0.3061-0.1713,0.4253-0.3
				c0.119-0.1308,0.2078-0.2862,0.26-0.4551c0.0575-0.1826,0.0862-0.3731,0.085-0.5645V45.67H73.51z"/>
			<path fill="#555555" d="M78.61,43.61c-0.24-0.0082-0.4779,0.0467-0.69,0.1592c-0.1873,0.1083-0.2961,0.3142-0.28,0.53
				c0.0032,0.1237,0.0432,0.2437,0.1147,0.3447c0.1343,0.1528,0.3154,0.2568,0.5151,0.2959l0.92,0.2793
				c0.3603,0.0885,0.6913,0.2696,0.96,0.5254c0.2046,0.2288,0.3122,0.5283,0.3,0.835c0.0135,0.4291-0.1686,0.8412-0.4951,1.12
				c-0.4072,0.3114-0.9138,0.4643-1.4253,0.43c-0.3691,0.0049-0.7362-0.0542-1.085-0.1748
				c-0.3133-0.1104-0.6033-0.2783-0.855-0.4951l0.41-0.62c0.2135,0.1671,0.4512,0.3005,0.7051,0.3955
				c0.2673,0.0984,0.5502,0.1474,0.835,0.1445c0.2616,0.0118,0.5209-0.0542,0.7451-0.1895c0.193-0.1322,0.3016-0.3567,0.2854-0.5901
				c0.0071-0.1472-0.0451-0.2911-0.145-0.3994c-0.1417-0.125-0.3113-0.2142-0.4946-0.26l-0.95-0.28
				c-0.3476-0.0825-0.6658-0.2589-0.92-0.51c-0.2042-0.2314-0.3116-0.5324-0.3-0.8408c-0.0048-0.2182,0.0433-0.4343,0.14-0.63
				c0.0921-0.1788,0.2259-0.3329,0.39-0.4492c0.1768-0.1253,0.3751-0.217,0.585-0.2705c0.2367-0.0615,0.4805-0.0918,0.7251-0.09
				c0.3158,0.0005,0.6302,0.0425,0.9351,0.125c0.2884,0.0729,0.5589,0.2038,0.7949,0.3848L80,44
				c-0.1965-0.1178-0.4063-0.2118-0.625-0.28C79.1272,43.6441,78.8691,43.607,78.61,43.61z"/>
			<path fill="#555555" d="M82.26,45.71c-0.0006,0.4567,0.1727,0.8966,0.4849,1.23c0.3433,0.2989,0.7909,0.4498,1.2451,0.42
				c0.4572,0.0203,0.9069-0.1214,1.27-0.4l0.38,0.59c-0.2249,0.1989-0.4888,0.3488-0.7749,0.44
				c-0.3092,0.0959-0.6314,0.1431-0.9551,0.14c-0.3576,0.0048-0.7132-0.0544-1.05-0.1748c-0.302-0.1091-0.5755-0.285-0.8-0.5146
				c-0.2285-0.2403-0.4025-0.5271-0.51-0.8408c-0.126-0.3698-0.1869-0.7587-0.18-1.1494c-0.0062-0.3712,0.0548-0.7405,0.18-1.09
				c0.1088-0.303,0.2809-0.5793,0.5049-0.8105c0.2157-0.2191,0.4745-0.391,0.76-0.5049c0.3009-0.1185,0.6218-0.1779,0.9451-0.175
				c0.3064-0.0065,0.611,0.0497,0.895,0.165c0.2478,0.1035,0.4685,0.2626,0.645,0.465c0.1781,0.2087,0.3109,0.4521,0.39,0.7148
				c0.0892,0.2934,0.133,0.5987,0.13,0.9053c0.0007,0.1978-0.016,0.3952-0.05,0.59L82.26,45.71z M83.78,43.61
				c-0.377-0.014-0.7441,0.1227-1.02,0.38c-0.2788,0.2784-0.4491,0.6472-0.48,1.04h2.7v-0.08c0.0227-0.357-0.0877-0.7097-0.31-0.99
				C84.4401,43.7168,84.1139,43.5885,83.78,43.61z"/>
			<path fill="#555555" d="M91.1,43.61c-0.24-0.0082-0.4779,0.0467-0.69,0.1592c-0.1873,0.1083-0.2961,0.3142-0.28,0.53
				c0.0032,0.1237,0.0432,0.2437,0.1147,0.3447c0.1343,0.1528,0.3154,0.2568,0.5151,0.2959l0.92,0.2793
				c0.3603,0.0885,0.6913,0.2696,0.96,0.5254c0.2046,0.2288,0.3122,0.5283,0.3,0.835c0.0135,0.4291-0.1686,0.8412-0.4951,1.12
				c-0.4072,0.3114-0.9138,0.4643-1.4253,0.43c-0.3691,0.0049-0.7362-0.0542-1.085-0.1748
				c-0.3133-0.1104-0.6033-0.2783-0.855-0.4951l0.41-0.62c0.2135,0.1671,0.4512,0.3005,0.7051,0.3955
				c0.2673,0.0984,0.5502,0.1474,0.835,0.1445c0.2616,0.0118,0.5209-0.0542,0.7451-0.1895c0.193-0.1322,0.3016-0.3567,0.2854-0.5901
				c0.0071-0.1472-0.0451-0.2911-0.145-0.3994c-0.1417-0.125-0.3113-0.2142-0.4946-0.26l-0.95-0.28
				c-0.3476-0.0825-0.6658-0.2589-0.92-0.51c-0.2042-0.2314-0.3116-0.5324-0.3-0.8408c-0.0048-0.2182,0.0433-0.4343,0.14-0.63
				c0.0921-0.1788,0.2259-0.3329,0.39-0.4492c0.1768-0.1253,0.3751-0.217,0.585-0.2705c0.2367-0.0615,0.4805-0.0918,0.7251-0.09
				c0.3158,0.0005,0.6302,0.0425,0.9351,0.125c0.2884,0.0729,0.5589,0.2038,0.7949,0.3848l-0.33,0.62
				c-0.1965-0.1178-0.4063-0.2118-0.625-0.28C91.6175,43.644,91.3593,43.6069,91.1,43.61z"/>
			<path fill="#555555" d="M96.5894,47.99c-0.0867,0.0127-0.1733,0.0244-0.26,0.0352c-0.0963,0.0102-0.1931,0.0151-0.29,0.0146
				c-0.4431,0.0412-0.8833-0.1037-1.2153-0.4c-0.2852-0.3776-0.419-0.8482-0.375-1.3193V43.72H93.6V43h0.85v-1.26h0.89V43h1.25v0.72
				h-1.25v2.7c-0.0309,0.2536,0.0515,0.5079,0.2251,0.6953c0.231,0.145,0.5033,0.2098,0.7749,0.1846h0.25L96.5894,47.99z"/>
			<path fill="#555555" d="M101.37,48.03c-0.2155,0.0192-0.4287-0.0556-0.585-0.2051c-0.1341-0.1653-0.2066-0.3721-0.2051-0.585
				c-0.1406,0.2738-0.3625,0.4974-0.6353,0.64c-0.3071,0.159-0.6493,0.2381-0.9951,0.23c-0.2366,0.0036-0.472-0.0354-0.6948-0.1152
				c-0.192-0.0698-0.3675-0.1788-0.5151-0.32c-0.1394-0.1362-0.247-0.3017-0.3149-0.4844c-0.0709-0.1922-0.1065-0.3957-0.105-0.6006
				c-0.0071-0.2507,0.0515-0.4989,0.17-0.72c0.11-0.1964,0.2662-0.3629,0.4551-0.4854c0.2012-0.128,0.4228-0.2207,0.6552-0.2743
				c0.2521-0.0612,0.5106-0.0917,0.77-0.0908h1.1v-0.3c0.0738-0.5454-0.3084-1.0473-0.8538-1.1212
				c-0.1119-0.0152-0.2256-0.0112-0.3362,0.0118c-0.2596-0.0011-0.5178,0.0394-0.7646,0.12
				c-0.2478,0.0817-0.4821,0.1996-0.6953,0.35l-0.36-0.6c0.2629-0.2016,0.559-0.3556,0.875-0.4551
				c0.3315-0.1048,0.6773-0.1572,1.0249-0.1553c0.2544-0.0013,0.5079,0.029,0.7549,0.09c0.4696,0.1089,0.8573,0.4387,1.04,0.8848
				c0.1123,0.2848,0.1651,0.5895,0.1553,0.8955V46.97c-0.0472,0.1639,0.0474,0.3351,0.2113,0.3823
				c0.0585,0.0168,0.1206,0.016,0.1786-0.0023h0.11v0.62c-0.0537,0.0137-0.12,0.0273-0.2,0.04
				C101.5308,48.0234,101.4505,48.0301,101.37,48.03z M99.39,45.67c-0.3147-0.0198-0.6281,0.055-0.9,0.2148
				c-0.2114,0.1531-0.3287,0.4046-0.31,0.665c-0.012,0.2238,0.0716,0.4421,0.23,0.6006c0.1993,0.1623,0.4538,0.2412,0.71,0.22
				c0.1989,0.0041,0.3964-0.0334,0.58-0.11c0.1612-0.0691,0.3061-0.1713,0.4253-0.3c0.119-0.1308,0.2078-0.2862,0.26-0.4551
				c0.0575-0.1826,0.0862-0.3731,0.085-0.5645V45.67H99.39z"/>
			<path fill="#555555" d="M105.3193,47.99c-0.0867,0.0127-0.1733,0.0244-0.26,0.0352c-0.0963,0.0102-0.1931,0.0151-0.29,0.0146
				c-0.4431,0.0412-0.8833-0.1037-1.2153-0.4c-0.2852-0.3776-0.419-0.8482-0.375-1.3193V43.72h-0.85V43h0.85v-1.26h0.89V43h1.25
				v0.72h-1.25v2.7c-0.0309,0.2536,0.0515,0.5079,0.2251,0.6953c0.231,0.145,0.5033,0.2098,0.7749,0.1846h0.25L105.3193,47.99z"/>
			<path fill="#555555" d="M106.3589,41h0.93v1h-0.93V41z M107.2689,48h-0.89v-5h0.89V48z"/>
			<path fill="#555555" d="M113.4692,45.5c0.0045,0.3663-0.0565,0.7304-0.18,1.0752c-0.1105,0.3068-0.2804,0.5889-0.5,0.83
				c-0.2182,0.2328-0.4843,0.4154-0.78,0.5352c-0.6513,0.2526-1.3736,0.2526-2.0249,0c-0.2939-0.1203-0.5583-0.3029-0.7749-0.5352
				c-0.2199-0.2409-0.3899-0.523-0.5-0.83c-0.2401-0.6965-0.2401-1.4535,0-2.15c0.1101-0.307,0.2801-0.5891,0.5-0.83
				c0.2166-0.2323,0.481-0.4148,0.7749-0.5352c0.6513-0.2526,1.3736-0.2526,2.0249,0c0.2957,0.1198,0.5618,0.3024,0.78,0.5352
				c0.2196,0.2411,0.3895,0.5232,0.5,0.83C113.4127,44.7699,113.4736,45.1339,113.4692,45.5z M112.5392,45.5
				c0.0314-0.491-0.1101-0.9775-0.4-1.375c-0.6051-0.6296-1.6061-0.6494-2.2357-0.0443c-0.0151,0.0145-0.0298,0.0292-0.0443,0.0443
				c-0.5332,0.8391-0.5332,1.9109,0,2.75c0.6051,0.6296,1.6061,0.6494,2.2357,0.0443c0.0151-0.0145,0.0298-0.0292,0.0443-0.0443
				c0.2902-0.3974,0.432-0.8839,0.4008-1.375H112.5392z"/>
			<path fill="#555555" d="M115.5991,43.75c0.1546-0.2747,0.3856-0.4986,0.665-0.6445c0.3231-0.1648,0.6824-0.2458,1.0449-0.2354
				c0.4883-0.033,0.9673,0.1455,1.3149,0.49c0.33,0.4041,0.4929,0.9191,0.4551,1.4395V48h-0.89v-3.11
				c0.0269-0.3363-0.0671-0.6711-0.2651-0.9443c-0.2194-0.2205-0.5251-0.3324-0.835-0.3057c-0.4021-0.0155-0.791,0.1451-1.0649,0.44
				c-0.2897,0.3497-0.4347,0.7969-0.4053,1.25V48h-0.89v-5h0.46c0.2729,0,0.4096,0.12,0.41,0.36L115.5991,43.75z"/>
		</g>
	</g>
	<g>
		<path fill="#252525" d="M45,27.54c1.7253,0.005,3.12,1.4077,3.115,3.133c-0.005,1.7253-1.4077,3.12-3.133,3.115
			c-1.7218-0.005-3.115-1.4022-3.115-3.124c0.0006-1.7259,1.4002-3.1246,3.1262-3.124C44.9955,27.54,44.9977,27.54,45,27.54z
			 M38.3831,24.2407c1.719-1.8812,4.1566-2.9432,6.7048-2.9213c2.5432,0.0026,4.9713,1.0605,6.7048,2.9213l-2.22,2.1166
			c-1.2198-1.2082-2.8563-1.9028-4.5727-1.9408c-1.6598,0.0155-3.2389,0.7182-4.3616,1.9408L38.3831,24.2407z"/>
		<path fill="#252525" d="M33.6545,19.9759c2.8882-3.2146,7.0433-4.9975,11.3631-4.8759c4.3302-0.1048,8.4929,1.6741,11.41,4.876
			l-2.25,2.0644c-2.4633-2.3661-5.7167-3.7344-9.1307-3.84c-3.4739-0.1068-6.8243,1.2933-9.1893,3.84L33.6545,19.9759z"/>
		<polygon fill="#252525" points="45.919,30.394 44.081,29.606 36.698,46.832 49.573,37.819 48.427,36.181 41.302,41.168 		"/>
		<polygon fill="#252525" points="44.353,30.394 46.191,29.606 53.574,46.832 40.699,37.819 41.845,36.181 48.97,41.168 		"/>
	</g>
</g>
<path fill="none" stroke="#0071C5" stroke-width="2" d="M32,10h90c2.2091,0,4,1.7909,4,4v35c0,2.2091-1.7909,4-4,4H32
	c-2.2091,0-4-1.7909-4-4V14C28,11.7909,29.7909,10,32,10z"/>
</svg>
