<svg xmlns="http://www.w3.org/2000/svg" width="200" height="150" viewBox="0 0 200 150"><title>gfx_project-preview</title><path d="M145.3125,115.6237h-1.5619V65.625s0-6.25-6.25-6.25h-12.5v-25s0-9.375-9.375-9.375h-37.5s-9.375,0-9.375,9.375V50h-3.125s-9.375,0-9.375,9.375v56.2487H54.6875a4.6875,4.6875,0,1,0,0,9.375H65.6137l.0119.0013h31.25l.0338-.0013h48.4031a4.6875,4.6875,0,0,0,0-9.375Zm-54.6869.0013h-18.75V100h18.75Zm8.5932-23.4388H63.2813v-6.25H99.2188Zm0-14.0625H63.2813v-6.25H99.2188Zm0-13.2812H63.2813v-6.25H99.2188Zm16.4068-4.6862v55.4674h-9.375V59.375s0-9.375-9.375-9.375h-18.75V34.375h37.5Zm21.875,55.4687h-12.5v-12.5h12.5Zm0-18.75h-12.5v-12.5h12.5Zm0-18.75h-12.5v-12.5h12.5Z"/></svg>