<svg xmlns="http://www.w3.org/2000/svg" width="26" height="26" viewBox="0 0 26 26">
  <g fill="none" fill-rule="evenodd">
    <path fill="#FFF" fill-rule="nonzero" d="M16.0442631,12.625102 C16.0621738,12.757792 16.0714286,12.8933532 16.0714286,13.03125 L16.0714286,15.5 L20.1428571,15.5 C22.8092565,15.5 25,17.6085907 25,20.25 C25,22.8903484 22.808911,25 20.1428571,25 L5.85714286,25 C3.19108896,25 1,22.8903484 1,20.25 C1,17.6085907 3.19074354,15.5 5.85714286,15.5 L9.92857143,15.5 L9.92857143,13.03125 C9.92857143,12.893502 9.93780628,12.7580845 9.95567896,12.6255315 C9.80706789,12.7478325 9.66399615,12.8798662 9.52710162,13.0213802 C8.91508127,13.6533791 8.08527332,14 7.22412974,14 C6.09682873,13.7689194 5.32849331,13.4420115 4.91912348,13.0192764 C4.34604385,12.425754 4.04095346,11.6660772 4.00400424,10.8954864 C2.91893339,11.1825378 1.71612849,10.8755245 0.885222943,9.97506036 C-0.294744114,8.70005525 -0.294744114,6.69157056 0.883083243,5.41514527 C7.54417873,-1.80525496 18.4531836,-1.80472739 25.1165997,5.41480171 C26.2947441,6.69157056 26.2947441,8.70005525 25.1167583,9.97291646 C24.509942,10.6305303 23.6720299,11 22.7948317,11 C22.5227737,11 22.2546618,10.9644631 21.9961336,10.8958459 C21.9589028,11.6671274 21.6527891,12.4276138 21.0777926,13.0213802 C19.8150194,14.3253747 17.7397216,14.3253747 16.4725068,13.0206142 C16.3357362,12.8792282 16.1927764,12.7473062 16.0442631,12.625102 L16.0442631,12.625102 Z"/>
    <path fill="#000" fill-rule="nonzero" d="M7.80873161,11.325719 C7.38636799,11.76187 6.81628667,12 6.22412974,12 C5.63197282,12 5.0618915,11.76187 4.63851069,11.3246671 C3.7871631,10.4429504 3.7871631,9.02814783 4.63925366,8.14566253 C6.59952446,6.119804 9.21772811,5 11.9994752,5 C14.7812223,5 17.399426,6.119804 19.3594226,8.14537925 C20.2135258,9.02736339 20.2135258,10.4437349 19.3594226,11.325719 C18.4894374,12.2241035 17.0641532,12.2241035 16.1912475,11.325336 C15.0678524,10.1640313 13.5832977,9.52890173 11.9994752,9.52890173 C10.4168968,9.52890173 8.9323867,10.1641458 7.80873161,11.325719 Z M23.3818368,8.29476426 C22.9637167,8.74788585 22.3919526,9 21.7948317,9 C21.1977314,9 20.6273228,8.74788539 20.2093919,8.29496874 C15.6726762,3.38122113 8.32771349,3.38079825 3.79079685,8.29476426 C2.92403516,9.23408406 1.48492492,9.23408406 0.619153831,8.29583621 C-0.20621951,7.40398484 -0.20621951,5.98651892 0.618083982,5.09321157 C6.88319588,-1.69795596 17.1143219,-1.69746118 23.3817575,5.09303979 C24.2062195,5.98651892 24.2062195,7.40398484 23.3818368,8.29476426 Z M14.0714286,12.03125 L14.0714286,15.5 L19.1428571,15.5 C21.2653425,15.5 23,17.1696078 23,19.25 C23,21.3294117 21.2649232,23 19.1428571,23 L4.85714286,23 C2.73507684,23 1,21.3294117 1,19.25 C1,17.1696078 2.73465749,15.5 4.85714286,15.5 L9.92857143,15.5 L9.92857143,12.03125 C9.92857143,10.9009828 10.8646575,10 12,10 C13.1353425,10 14.0714286,10.9009828 14.0714286,12.03125 Z" transform="translate(1 1)"/>
    <g fill="#FFA300" transform="translate(2 2)">
      <path d="M5.22412974,10 C5.53759652,10 5.8510633,9.87716763 6.0903616,9.6300578 C7.40160432,8.27456647 9.14526326,7.52890173 10.9994752,7.52890173 C12.8550866,7.52890173 14.5987455,8.27456647 15.9099883,9.6300578 C16.3885849,10.1228324 17.1638554,10.1228324 17.6410526,9.6300578 C18.1196491,9.13583815 18.1196491,8.33526012 17.6410526,7.84104046 C15.8680061,6.00867052 13.5086088,5 10.9994752,5 C8.4903416,5 6.13094435,6.00867052 4.35789789,7.84104046 C3.8807007,8.33526012 3.8807007,9.13583815 4.35789789,9.6300578 C4.59719619,9.87716763 4.91066297,10 5.22412974,10"/>
      <path d="M21.6469153 4.77127788C15.7759354-1.58968005 6.22268802-1.59117183.35308472 4.77127788-.117694907 5.28146728-.117694907 6.10791444.35308472 6.61661206.823864347 7.12680146 1.58509573 7.12680146 2.05587536 6.61661206 6.9894256 1.27304938 15.0119509 1.27454116 19.9441246 6.61661206 20.1795145 6.87170676 20.4864848 7 20.7948317 7 21.1031786 7 21.4115255 6.87170676 21.6469153 6.61661206 22.1176949 6.10791444 22.1176949 5.28146728 21.6469153 4.77127788M16.3571429 19.28125C15.7657143 19.28125 15.2857143 18.81925 15.2857143 18.25 15.2857143 17.68075 15.7657143 17.21875 16.3571429 17.21875 16.9485714 17.21875 17.4285714 17.68075 17.4285714 18.25 17.4285714 18.81925 16.9485714 19.28125 16.3571429 19.28125M18.1428571 15.5L12.0714286 15.5 12.0714286 11.03125C12.0714286 10.462 11.5914286 10 11 10 10.4085714 10 9.92857143 10.462 9.92857143 11.03125L9.92857143 15.5 3.85714286 15.5 3.85714286 15.5C2.27857143 15.5 1 16.730625 1 18.25 1 19.768 2.27857143 21 3.85714286 21L3.85714286 21 18.1428571 21C19.7214286 21 21 19.768 21 18.25 21 16.730625 19.7214286 15.5 18.1428571 15.5"/>
    </g>
  </g>
</svg>
