<svg xmlns="http://www.w3.org/2000/svg" width="24" height="24" viewBox="0 0 24 24">
  <title>icon_rtk_base</title>
  <g>
    <path d="M12.0882,23.2941A1.6311,1.6311,0,0,1,10.3941,21.6V16.8L7.5706,19.6235a1.6031,1.6031,0,0,1-1.1294.4235,1.6031,1.6031,0,0,1-1.1294-.4235,1.6247,1.6247,0,0,1,0-2.4l4.6588-4.6588c.1412-.1412.2824-.1412.5647-.1412h0c0-.1412.1412-.4235.1412-.5647l.2824-.2824c-4.2353-.1412-7.4824-1.4118-8.3294-2.1176a.4508.4508,0,0,1-.4235-.4235V5.0824a.7335.7335,0,0,1,.2824-.5647.63.63,0,0,1,0-.7059C3.6176,1.9765,7.4294.7059,12.0882.7059s8.4706,1.2706,9.6,2.9647a.6412.6412,0,0,1,0,.7059,1.0784,1.0784,0,0,1,.2824.7059V9.0353c0,.1412-.1412.4235-.1412.5647-.5647.5647-3.8118,1.9765-8.4706,2.2588l.2824.2824c.1412.1412.1412.2824.1412.5647h0c.1412,0,.4235.1412.5647.1412l4.6588,4.6588a1.6247,1.6247,0,0,1,0,2.4,1.7177,1.7177,0,0,1-2.2588,0l-2.8235-2.8235v4.8A1.8548,1.8548,0,0,1,12.0882,23.2941ZM17.0294,8.0471a.3744.3744,0,0,0-.4235.4235.4235.4235,0,1,0,.8471,0A.3744.3744,0,0,0,17.0294,8.0471Z"/>
    <path d="M12.0882,1.4118c4.3765,0,8.0471,1.1294,8.8941,2.6824-.9882.7059-4.3765,1.9765-8.8941,1.9765A20.3314,20.3314,0,0,1,3.1941,4.2353c.8471-1.5529,4.5176-2.8235,8.8941-2.8235m9.1765,3.6706V9.0353c-.5647.5647-4.0941,2.1176-9.1765,2.1176-4.9412,0-8.4706-1.4118-9.1765-1.9765V5.0824a23.646,23.646,0,0,0,9.1765,1.6941,24.7489,24.7489,0,0,0,9.1765-1.6941M17.0294,9.6a1.2146,1.2146,0,0,0,1.1294-1.1294,1.1135,1.1135,0,0,0-1.1294-1.1294A1.2146,1.2146,0,0,0,15.9,8.4706,1.2146,1.2146,0,0,0,17.0294,9.6m-4.9412,2.2588c.2824,0,.4235.1412.7059.2824l.2824.2824v9.3176a.9882.9882,0,1,1-1.9765,0V15.2471h0V12.5647l.2824-.2824a.7764.7764,0,0,1,.7059-.4235h0m-1.6941,1.2706v2.6824L7.0059,19.2a1.0784,1.0784,0,0,1-.7059.2824c-.2824,0-.4235-.1412-.7059-.2824a.9431.9431,0,0,1,0-1.4118l4.8-4.6588m3.3882,0,4.6588,4.6588a.9431.9431,0,0,1,0,1.4118,1.0784,1.0784,0,0,1-.7059.2824c-.2824,0-.4235-.1412-.7059-.2824l-3.2471-3.2471V13.1294M12.0882,0C8.2765,0,3.3353.8471,1.9235,3.3882a1.7906,1.7906,0,0,0-.1412.8471A2.0066,2.0066,0,0,0,1.5,5.0824V9.0353a1.284,1.284,0,0,0,.5647,1.1294c.8471.7059,3.5294,1.8353,7.2,2.1176L4.6059,16.8A2.3379,2.3379,0,0,0,3.9,18.4941a2.6047,2.6047,0,0,0,.7059,1.6941A2.3379,2.3379,0,0,0,6.3,20.8941a2.6047,2.6047,0,0,0,1.6941-.7059l1.6941-1.6941V21.6a2.474,2.474,0,0,0,2.4,2.4,2.38,2.38,0,0,0,2.4-2.4V18.4941l1.6941,1.6941a2.3379,2.3379,0,0,0,1.6941.7059,2.6047,2.6047,0,0,0,1.6941-.7059,2.3379,2.3379,0,0,0,.7059-1.6941A2.6047,2.6047,0,0,0,19.5706,16.8l-4.6588-4.5176c3.9529-.4235,6.6353-1.6941,7.3412-2.4a1.2816,1.2816,0,0,0,.4235-.9882V5.0824a2.0066,2.0066,0,0,0-.2824-.8471,1.7906,1.7906,0,0,0-.1412-.8471C20.7.9882,15.7588,0,12.0882,0Z" fill="#fff"/>
  </g>
</svg>
