<svg xmlns="http://www.w3.org/2000/svg" width="64" height="64" viewBox="0 0 64 64"><title>icon_adsb-object</title><path d="M10.5637,52.6372c.3313-1.5,10.1939-24.2193,18.4233-43.0082a2.6561,2.6561,0,0,1,2.509-1.6278l.0033.0111.0034-.0105A2.6628,2.6628,0,0,1,34.0117,9.63C42.238,28.421,52.1,51.1335,52.4349,52.6378a2.7623,2.7623,0,0,1-2.0288,3.2957,2.6,2.6,0,0,1-1.43-.0749L31.4993,50.2641l-17.483,5.5941a2.6591,2.6591,0,0,1-3.3809-1.7526,2.8392,2.8392,0,0,1-.0709-1.4684" fill="#00ffff" stroke="#000" stroke-linecap="square" stroke-linejoin="round" stroke-width="2"/></svg>