<svg xmlns="http://www.w3.org/2000/svg" width="144" height="144" viewBox="0 0 144 144">
  <title>intelLogo</title>
  <g>
    <path d="M68.3969,108.6191c-28.4489,2.6243-58.0589-1.51-62.2624-23.7345-2.02-10.9615,2.9726-22.5733,9.5913-29.7958V51.2337C3.789,61.6843-2.6672,74.9217,1.0486,90.5744c4.6447,20.0652,30.1906,31.4215,69.0437,27.6593,15.374-1.4863,35.4856-6.4329,49.4662-14.12V93.1987C106.8319,100.77,85.9307,107.0167,68.3969,108.6191ZM143.3626,50.955c-6.7581-32.931-70.739-35.0211-111.984-9.9165v2.7636c41.1986-21.18,99.6059-21.0406,104.9473,9.2894,1.7882,10.0326-3.8783,20.5064-13.9341,26.5213v7.8728C134.5144,83.0267,146.9855,68.6281,143.3626,50.955Z"/>
    <path d="M117.2825,46.1709h-7.4548v33.21a7.2922,7.2922,0,0,0,6.736,7.8089q.3587.0265.7187.0175Z"/>
    <path d="M28.4524,58.2936H20.9047v21.714c0,3.9016,1.9043,7.2922,7.478,7.8263Z"/>
    <rect x="20.9744" y="47.1696" width="7.4548" height="7.0832"/>
    <path d="M73.1345,87.4857a7.9657,7.9657,0,0,1-8.5927-8.3373V50.328h7.4548v7.9657H77.57v5.9685H71.9966V78.6839a2.3224,2.3224,0,0,0,2.5546,2.6243H77.547v6.1542H73.1345"/>
    <path d="M86.7435,75.0843a6.131,6.131,0,0,0,6.549,6.5723,8.3373,8.3373,0,0,0,6.7813-2.7868l4.6447,4.366A14.5844,14.5844,0,0,1,93.3158,87.88c-7.0832,0-13.9341-3.8551-13.9341-15.1185,0-9.6146,5.922-15.0721,13.7019-15.0721s12.4478,6.3633,12.4478,14.7237v2.6707H86.7435m6.0149-11.2634a5.6666,5.6666,0,0,0-5.295,3.0655,7.5013,7.5013,0,0,0-.6967,3.1816h11.38c-.1626-3.0887-1.6024-6.1542-5.3879-6.1542Z"/>
    <path d="M48.5408,64.2621c2.16,0,3.0655,1.0683,3.0655,2.81V87.5089h7.3851v-20.46a8.105,8.105,0,0,0-8.7088-8.7321H35.0247v29.192H42.433V64.2853Z"/>
    <path d="M125.4108,52.1162a2.9726,2.9726,0,1,1,2.9726-2.9726h0A2.9726,2.9726,0,0,1,125.4108,52.1162Zm0-5.4343a2.4617,2.4617,0,1,0,2.3184,2.5971q.0038-.0676.0039-.1354a2.4617,2.4617,0,0,0-2.3224-2.4849Zm1.3237,4.25h-.5574l-.9754-1.3934h-.3251v1.2773a.1393.1393,0,0,1-.1393.1393H124.25a.1393.1393,0,0,1-.1161-.1393V47.5644c0-.1858,0-.2555.2322-.2787h.9057c.9057,0,1.4631.2787,1.4631,1.138h0a.9057.9057,0,0,1-.6735.9522l.79,1.3237h0Zm-.72-2.5314c0-.3716-.209-.4877-.6967-.4877h-.4645v1.0218h.4645c.4877,0,.6967-.1626.6967-.4877Z"/>
  </g>
</svg>
