<svg xmlns="http://www.w3.org/2000/svg" width="32" height="32" viewBox="0 0 32 32">
  <title>map_landingspot</title>
  <g>
    <path d="M25,23H7a1,1,0,0,1-1-1V16a1,1,0,0,1,1-1h6.4019a.9988.9988,0,0,1,.6919.2783l1.9756,1.8926,1.78-1.8623A.9985.9985,0,0,1,18.5723,15H25a.9994.9994,0,0,1,1,.9988V22a.9994.9994,0,0,1-.9988,1ZM8,21H24V17H19l-2.1772,2.2773a1.0012,1.0012,0,0,1-.7007.3086,1.0525,1.0525,0,0,1-.7139-.2783L13,17H8Z" fill="#fff"/>
    <polygon points="8 17 13 17 16 19.874 19 17 24 17 24 21 8 21 8 17" fill="#00aeef"/>
    <path d="M25,22H7V16h6.415l2.5781,2.4141L18.5859,16H25ZM8,21H24V17H19l-3.0088,3L13,17H8Z" fill="#252525"/>
    <path d="M16,18.4141a.9968.9968,0,0,1-.707-.293L9.0024,11.8306a2.9032,2.9032,0,0,1-.8486-3.18A2.9063,2.9063,0,0,1,11.0059,7H13V1a1,1,0,0,1,1-1h4a1,1,0,0,1,1,1V7h1.9941a2.9065,2.9065,0,0,1,2.8525,1.6509,2.9023,2.9023,0,0,1-.8486,3.18l-6.291,6.29A.9968.9968,0,0,1,16,18.4141ZM11.0059,9c-.5132,0-.8979.1592-1.0039.4155s.0527.6392.4146,1.001L16,16l5.5835-5.5835c.3613-.3618.5205-.7451.415-1S21.5073,9,20.9937,9H18a1,1,0,0,1-1-1V2H15V8a1,1,0,0,1-1,1Z" fill="#fff"/>
    <path d="M15.0337,9H11.04c-1.1088,0-1.3716.6342-.5893,1.4166L16.0337,16l5.5834-5.5834C22.4,9.6335,22.1356,9,21.0278,9H17.0337V2h-2Z" fill="#00aeef"/>
    <path d="M16.0337,17.4141,9.7432,11.1235a1.9456,1.9456,0,0,1-.6313-2.0908A1.9489,1.9489,0,0,1,11.04,8h2.9941V1h4V8h2.9941a1.95,1.95,0,0,1,1.9287,1.0332,1.9459,1.9459,0,0,1-.6318,2.09ZM11.04,9c-.5132,0-.8979.1592-1.0039.4155s.0527.6392.4146,1.001L16.0337,16l5.5835-5.5835c.3623-.3618.5205-.7451.415-1S21.541,9,21.0273,9H17.0332V2h-2V9Z" fill="#252525"/>
    <g>
      <polygon points="19.207 25 18.5 24.293 16 26.793 13.5 24.293 12.793 25 15.293 27.5 12.793 30 13.5 30.707 16 28.207 18.5 30.707 19.207 30 16.707 27.5 19.207 25"/>
      <path d="M18.5,24.293l.7071.707-2.5,2.5,2.5,2.5-.7071.707-2.5-2.5-2.5,2.5L12.793,30l2.5-2.5-2.5-2.5.707-.707,2.5,2.5,2.5-2.5m0-1.4142-.7071.7071L16,25.3787l-1.7929-1.7929L13.5,22.8788l-.7071.707-.707.707L11.3788,25l.7072.7071L13.8789,27.5l-1.7929,1.7929L11.3788,30l.7071.7071.707.707.7071.7071.7071-.7071L16,29.6212l1.7928,1.7928.7071.707.7071-.707.7071-.707L20.6214,30l-.7072-.7072L18.1214,27.5l1.7929-1.7929L20.6214,25l-.7072-.7071-.7071-.707-.7071-.707Z" fill="#fff"/>
    </g>
  </g>
</svg>
