<?xml version="1.0" encoding="utf-8"?>
<!-- Generator: Adobe Illustrator 21.0.2, SVG Export Plug-In . SVG Version: 6.00 Build 0)  -->
<svg version="1.0" id="Layer_1" xmlns="http://www.w3.org/2000/svg" xmlns:xlink="http://www.w3.org/1999/xlink" x="0px" y="0px"
	 width="32px" height="32px" viewBox="0 0 32 32" enable-background="new 0 0 32 32" xml:space="preserve">
<path fill="#FFFFFF" d="M16.5649,32l1.0337-12.0294c4.262-0.755,7.4788-4.5029,7.4788-8.9117C25.0774,6.0638,21.0136,2,16.0186,2
	l0,0c-4.9951,0-9.0588,4.0638-9.0588,9.0588c0,4.4088,3.2168,8.1567,7.4788,8.9117L15.4154,32"/>
<path d="M24.0774,11.0588C24.0774,6.6154,20.4626,3,16.0186,3c-4.4435,0-8.0588,3.6154-8.0588,8.0588
	c0,4.2477,3.306,7.7301,7.4788,8.0294V32h1.16V19.0883C20.7718,18.7889,24.0774,15.3065,24.0774,11.0588z"/>
<circle fill="#0071C5" cx="16.0185" cy="11.0589" r="6.8989"/>
<path fill="#FFFFFF" d="M19.6304,8.886c0,0.677-0.1884,1.265-0.5706,1.7658c-0.3804,0.5008-0.8951,0.8271-1.5425,0.9789
	l2.8005,4.2313H17.917l-2.0869-3.4304c-0.1047-0.171-0.2059-0.2862-0.3001-0.3437c-0.096-0.0558-0.2425-0.0855-0.4432-0.0855
	h-0.6142v3.8597h-2.031V6h3.7881c0.5252,0,0.9963,0.0663,1.4151,0.1989c0.4205,0.1344,0.7765,0.3245,1.0731,0.5723
	c0.2949,0.2478,0.5217,0.5496,0.6788,0.9073C19.5537,8.0363,19.6304,8.4393,19.6304,8.886z M17.5593,9.0431
	c0-0.4851-0.1291-0.8428-0.3856-1.0714c-0.2582-0.2286-0.6718-0.3437-1.2441-0.3437h-1.457v2.8878h1.4151
	c0.5427,0,0.9562-0.1239,1.2423-0.3717C17.4162,9.8963,17.5593,9.5299,17.5593,9.0431z"/>
</svg>
